<svg width="1914" height="1914" viewBox="0 0 1914 1914" fill="none" xmlns="http://www.w3.org/2000/svg">
<rect x="718.638" y="0.734131" width="1689.09" height="732.794" transform="rotate(45 718.638 0.734131)" fill="#4F79FE"/>
<path d="M-3.8147e-06 718.647L63.3825 721.643C126.482 724.921 253.672 730.488 319.838 797.079C386.428 863.245 391.995 990.434 428.462 1086.72C464.647 1183.29 531.025 1249.67 623.779 1289.68C716.815 1329.4 835.519 1343.45 898.361 1413.36C961.204 1483.28 966.771 1610.46 1010.73 1699.26C1054.27 1788.48 1136.21 1839.3 1176.68 1865.2L1217.43 1890.83L1398.45 1709.81L1365.26 1676.62C1332.08 1643.43 1265.7 1577.05 1199.32 1510.67C1132.94 1444.29 1066.56 1377.92 1000.18 1311.54C933.807 1245.16 867.428 1178.78 801.05 1112.4C734.672 1046.03 668.294 979.648 601.916 913.269C535.538 846.891 469.159 780.513 402.781 714.135C336.403 647.757 270.025 581.379 236.836 548.19L203.647 515L-3.8147e-06 718.647Z" fill="#4F79FE"/>
</svg>
