<svg width="866" height="683" viewBox="0 0 866 683" fill="none" xmlns="http://www.w3.org/2000/svg">
<path d="M290.44 646.81L539 647C539 647 511.54 612.22 460 624C460 624 451.88 586.7 400.3 616.47C400.3 616.47 394.19 588.15 322.95 591.6L278.41 614.5L290.44 646.81Z" fill="#2F2E41"/>
<path d="M250.79 591.58L326.51 506.15C326.51 506.15 353.51 478.34 360.27 485.8C360.27 485.8 369.09 504.8 354.16 525.15C354.16 525.15 401.65 550.25 320.92 574.68C320.92 574.68 373.73 602.03 294.74 623.98C294.74 623.98 355.52 632.78 356.2 646.81H70.1999C70.1999 646.81 67.6399 640.21 73.0999 631.75C73.0999 631.75 34.3699 610.21 39.5599 588.12C39.5599 588.12 43.3699 576.94 59.1899 576.94C59.1899 576.94 16.3799 564.94 23.7399 552.4C23.7399 552.4 28.9199 540.13 42.0099 539.86C42.0099 539.86 10.4899 515.56 27.6799 485.04C28.9337 482.807 30.7786 480.963 33.0121 479.711C35.2455 478.458 37.781 477.846 40.3399 477.94C48.3399 478.26 60.1799 482.36 67.3399 501.41C67.3399 501.41 82.6299 486.41 96.0799 493.59C96.0799 493.59 116.4 503.45 103.77 553.85C103.77 553.85 120.77 531.75 133.43 541.36C133.43 541.36 140.02 544.66 149.9 571.02C149.9 571.02 176.9 577.52 186.75 584.88C186.75 584.88 166.91 554.82 169.16 525.36C169.16 525.36 175.02 469.25 206.09 475.14C206.09 475.14 221.67 479.96 220.16 518C220.16 518 260.84 515.45 250.79 591.58Z" fill="#4768EB"/>
<path opacity="0.3" d="M250.79 591.58L326.51 506.15C326.51 506.15 353.51 478.34 360.27 485.8C360.27 485.8 369.09 504.8 354.16 525.15C354.16 525.15 401.65 550.25 320.92 574.68C320.92 574.68 373.73 602.03 294.74 623.98C294.74 623.98 355.52 632.78 356.2 646.81H70.1999C70.1999 646.81 67.6399 640.21 73.0999 631.75C73.0999 631.75 34.3699 610.21 39.5599 588.12C39.5599 588.12 43.3699 576.94 59.1899 576.94C59.1899 576.94 16.3799 564.94 23.7399 552.4C23.7399 552.4 28.9199 540.13 42.0099 539.86C42.0099 539.86 10.4899 515.56 27.6799 485.04C28.9337 482.807 30.7786 480.963 33.0121 479.711C35.2455 478.458 37.781 477.846 40.3399 477.94C48.3399 478.26 60.1799 482.36 67.3399 501.41C67.3399 501.41 82.6299 486.41 96.0799 493.59C96.0799 493.59 116.4 503.45 103.77 553.85C103.77 553.85 120.77 531.75 133.43 541.36C133.43 541.36 140.02 544.66 149.9 571.02C149.9 571.02 176.9 577.52 186.75 584.88C186.75 584.88 166.91 554.82 169.16 525.36C169.16 525.36 175.02 469.25 206.09 475.14C206.09 475.14 221.67 479.96 220.16 518C220.16 518 260.84 515.45 250.79 591.58Z" fill="black"/>
<path d="M274.65 642C256.65 646.9 230.01 637.54 230.01 637.54C230.01 635.38 232.53 630.01 234.01 627.03C234.708 625.63 235.067 624.085 235.06 622.52L234.92 590.46C233.84 569.28 236.55 527.46 236.55 527.46C238.64 505.791 237.914 483.942 234.39 462.46C239.674 462.645 244.916 463.475 250 464.93C256.735 465.772 263.529 466.047 270.31 465.75L271.15 468.75C273 501.63 260.15 585.13 260.15 585.13L253.24 624.86C252.56 635.51 274.65 642 274.65 642Z" fill="#F9B499"/>
<path d="M230 637.49C230 637.49 226.34 641.15 227.38 648.49L293 650.65C293.059 650.653 293.119 650.643 293.174 650.622C293.23 650.602 293.281 650.57 293.324 650.528C293.367 650.487 293.401 650.438 293.425 650.383C293.448 650.328 293.46 650.27 293.46 650.21C293.465 650.146 293.454 650.082 293.43 650.023C293.406 649.964 293.368 649.912 293.32 649.87C291.18 647.98 285.03 643.39 274.63 641.95C274.65 642 262.43 647.25 230 637.49Z" fill="#4768EB"/>
<path d="M293.01 653.05L227.39 650.78V648.5L293.02 650.65L293.01 653.05Z" fill="#2F2E41"/>
<path d="M129.87 637.49C129.87 637.49 126.21 641.15 127.24 648.49L192.88 650.64C192.973 650.647 193.066 650.624 193.146 650.574C193.225 650.524 193.286 650.451 193.321 650.364C193.355 650.277 193.361 650.181 193.338 650.09C193.314 650 193.262 649.919 193.19 649.86C191.05 647.97 184.9 643.38 174.5 641.94C174.5 642 162.29 647.25 129.87 637.49Z" fill="#4768EB"/>
<path d="M192.87 653.05L127.24 650.78V648.5L192.88 650.65L192.87 653.05Z" fill="#2F2E41"/>
<path d="M129.87 637.49C129.87 637.49 136.07 625.05 136.87 615.92L146.87 560.78C146.87 560.78 160.24 511.93 164.09 499.72C164.09 499.72 171.67 470.31 170.32 462.3C170.32 462.3 189.84 468.41 208.46 464.95C208.46 464.95 202.53 488.95 195.59 506.02L164.35 590.34L154.45 619C154.45 619 150.34 627.74 158.31 632.24L174.5 642C174.5 642 165.57 647.62 129.87 637.49Z" fill="#F9B499"/>
<path d="M40.7202 497.14C43.3402 501.98 45.9802 506.813 48.6402 511.64C51.3002 516.467 53.9669 521.28 56.6402 526.08C62.0302 535.69 67.4902 545.25 73.1502 554.7C78.8102 564.15 84.5202 573.56 90.5502 582.77C93.5502 587.41 96.6902 591.91 99.8702 596.4L104.79 603.03L110.02 609.42C102.48 601.42 96.0802 592.33 89.8602 583.23C83.6402 574.13 77.8602 564.72 72.2202 555.23C66.5802 545.74 61.2202 536.18 56.0002 526.48C50.7802 516.78 45.5702 507 40.7202 497.14Z" fill="white"/>
<path d="M75.3798 508.18C74.9298 511.37 74.3798 514.52 73.7798 517.68C73.1798 520.84 72.5398 523.98 71.8898 527.12C71.2398 530.26 70.5198 533.39 69.7598 536.5L68.5998 541.18C68.1798 542.73 67.7998 544.28 67.3398 545.83C67.5598 544.23 67.8398 542.65 68.0898 541.07L68.9498 536.33C69.5198 533.17 70.1798 530.03 70.8398 526.89C71.4998 523.75 72.1998 520.62 72.9698 517.51C73.7398 514.4 74.4998 511.27 75.3798 508.18Z" fill="white"/>
<path d="M43.1699 560.76C46.1699 560.97 49.2399 561.3 52.2599 561.64C55.2799 561.98 58.2599 562.39 61.3099 562.8C64.3599 563.21 67.3099 563.69 70.3099 564.21L74.8099 565C76.2999 565.31 77.8099 565.57 79.2899 565.91C77.7599 565.81 76.2899 565.65 74.7299 565.52L70.2099 565C67.2099 564.67 64.2099 564.25 61.2099 563.83C58.2099 563.41 55.2099 562.95 52.2099 562.42C49.2099 561.89 46.1499 561.41 43.1699 560.76Z" fill="white"/>
<path d="M105.76 565.91C105.14 568.1 104.41 570.26 103.67 572.4C102.93 574.54 102.13 576.67 101.31 578.79C100.49 580.91 99.6401 583.01 98.7301 585.09L97.3501 588.21C96.8601 589.21 96.4001 590.28 95.8701 591.29C96.1701 590.19 96.5301 589.11 96.8701 588.02L97.9701 584.79C98.7001 582.64 99.5101 580.52 100.32 578.4C101.13 576.28 102 574.18 102.91 572.1C103.82 570.02 104.73 567.94 105.76 565.91Z" fill="white"/>
<path d="M199 508.18L204.92 531.68C206.92 539.513 208.92 547.337 210.92 555.15C212.92 562.96 215.09 570.74 217.31 578.5L219.03 584.31L220.86 590.08C221.44 592.01 222.16 593.89 222.86 595.81C223.17 596.81 223.56 597.7 223.94 598.63L225.06 601.45C221.694 594.091 218.857 586.502 216.57 578.74C214.18 571.02 212.03 563.22 209.93 555.42C207.83 547.62 205.93 539.75 204.13 531.88C202.33 524.01 200.58 516.11 199 508.18Z" fill="white"/>
<path d="M231.63 554.32C230.89 557.05 230.03 559.73 229.15 562.41C228.27 565.09 227.35 567.75 226.4 570.41C225.45 573.07 224.47 575.7 223.4 578.31L221.82 582.23C221.26 583.53 220.74 584.84 220.14 586.12C220.51 584.75 220.94 583.41 221.33 582.06L222.62 578.06C223.49 575.38 224.43 572.73 225.37 570.06C226.31 567.39 227.31 564.78 228.37 562.16C229.43 559.54 230.47 556.9 231.63 554.32Z" fill="white"/>
<path d="M186.14 545.83C190.32 546.93 194.38 548.34 198.42 549.83C202.46 551.32 206.42 552.93 210.34 554.83C206.16 553.73 202.09 552.32 198.05 550.83C193.998 549.367 190.023 547.698 186.14 545.83Z" fill="white"/>
<path d="M336.46 527C329.81 534.6 323.07 542.11 316.31 549.62L296 572L275.4 594.29L265.06 605.36L254.63 616.36L264.63 605.01L274.75 593.74L295.11 571.32L315.66 549.07C322.59 541.68 329.48 534.3 336.46 527Z" fill="white"/>
<path d="M318.06 591.29C313.77 592.57 309.45 593.73 305.12 594.87C300.79 596.01 296.45 597.07 292.12 598.18C287.79 599.29 283.42 600.26 279.05 601.24L272.5 602.69C270.31 603.13 268.12 603.61 265.92 604.02C268.07 603.38 270.23 602.79 272.38 602.18L278.86 600.44C283.18 599.3 287.53 598.24 291.86 597.14C296.19 596.04 300.56 595.05 304.93 594.07C309.3 593.09 313.66 592.14 318.06 591.29Z" fill="white"/>
<path d="M290.44 550.32C290.38 552.89 290.21 555.45 290.02 558.01C289.83 560.57 289.57 563.12 289.31 565.67C289.05 568.22 288.72 570.76 288.31 573.3L287.74 577.1C287.52 578.37 287.32 579.64 287.06 580.9C287.06 579.61 287.17 578.33 287.22 577.05L287.49 573.21C287.67 570.65 287.93 568.1 288.2 565.55C288.47 563 288.78 560.46 289.2 557.92C289.62 555.38 289.94 552.84 290.44 550.32Z" fill="white"/>
<path d="M351.19 540.7C348.56 541.35 345.91 541.88 343.26 542.39C340.61 542.9 337.95 543.39 335.26 543.79C332.57 544.19 329.93 544.62 327.26 544.95L323.26 545.45C321.92 545.57 320.58 545.73 319.26 545.83C320.57 545.49 321.89 545.23 323.21 544.93L327.21 544.14C329.86 543.61 332.52 543.14 335.21 542.73C337.9 542.32 340.55 541.91 343.21 541.58C345.87 541.25 348.49 540.91 351.19 540.7Z" fill="white"/>
<path d="M584.24 646.81H843.24C843.24 646.81 840.15 598.56 801.33 610.02C801.33 610.02 783.33 570.55 737.63 591.51C737.63 591.51 751.46 561.75 748.95 539.96C748.95 539.96 747.95 484.82 715.61 499.4C713.816 500.215 712.227 501.42 710.957 502.927C709.687 504.433 708.769 506.204 708.27 508.11C706.4 515.225 706.124 522.666 707.46 529.9C707.46 529.9 663.95 537.63 678.26 579.9C678.78 581.47 679.191 583.074 679.49 584.7L683 603.52L632.49 544.84C632.49 544.84 594.49 496.29 580.49 502.05C580.49 502.05 569.21 522.99 586.24 537.05C586.24 537.05 562.08 552.24 577.96 563.97L616.38 582.61C616.38 582.61 566.22 604.47 639.62 626.79C639.65 626.76 585 637 584.24 646.81Z" fill="#4768EB"/>
<path opacity="0.3" d="M584.24 646.81H843.24C843.24 646.81 840.15 598.56 801.33 610.02C801.33 610.02 783.33 570.55 737.63 591.51C737.63 591.51 751.46 561.75 748.95 539.96C748.95 539.96 747.95 484.82 715.61 499.4C713.816 500.215 712.227 501.42 710.957 502.927C709.687 504.433 708.769 506.204 708.27 508.11C706.4 515.225 706.124 522.666 707.46 529.9C707.46 529.9 663.95 537.63 678.26 579.9C678.78 581.47 679.191 583.074 679.49 584.7L683 603.52L632.49 544.84C632.49 544.84 594.49 496.29 580.49 502.05C580.49 502.05 569.21 522.99 586.24 537.05C586.24 537.05 562.08 552.24 577.96 563.97L616.38 582.61C616.38 582.61 566.22 604.47 639.62 626.79C639.65 626.76 585 637 584.24 646.81Z" fill="black"/>
<path d="M602.31 537.319L601.516 538.035L683.431 628.916L684.226 628.199L602.31 537.319Z" fill="white"/>
<path d="M304 462.61C293.396 466.249 282.306 468.272 271.1 468.61C264.319 468.912 257.525 468.638 250.79 467.79C245.721 466.345 240.497 465.515 235.23 465.32C227.099 464.959 218.952 465.341 210.89 466.46C192.793 469.625 174.161 467.135 157.53 459.33C156.968 459.053 156.515 458.594 156.247 458.028C155.978 457.461 155.909 456.821 156.05 456.21L180.81 349.43L212.81 256.12L217.9 257.84C223.4 257.05 225.05 254.84 225.05 254.84L237.69 257.84L264.69 340.56C275.01 359.26 300.64 436.75 307.05 456.36C307.452 457.594 307.359 458.936 306.79 460.102C306.22 461.268 305.22 462.168 304 462.61Z" fill="#2F2E41"/>
<path d="M446.08 278.17C446.08 278.17 468.38 269.61 480.66 286.38C486.13 293.85 487.66 303.67 483.66 312.05C480.46 318.87 473.25 325.9 457.39 327.94L446.08 278.17Z" fill="#4768EB"/>
<path opacity="0.59" d="M446.08 278.17C446.08 278.17 468.38 269.61 480.66 286.38C486.13 293.85 487.66 303.67 483.66 312.05C480.46 318.87 473.25 325.9 457.39 327.94L446.08 278.17Z" fill="white"/>
<path d="M560.38 243.42C574.695 243.42 586.3 231.815 586.3 217.5C586.3 203.185 574.695 191.58 560.38 191.58C546.065 191.58 534.46 203.185 534.46 217.5C534.46 231.815 546.065 243.42 560.38 243.42Z" fill="#4768EB"/>
<path opacity="0.4" d="M560.38 243.42C574.695 243.42 586.3 231.815 586.3 217.5C586.3 203.185 574.695 191.58 560.38 191.58C546.065 191.58 534.46 203.185 534.46 217.5C534.46 231.815 546.065 243.42 560.38 243.42Z" fill="white"/>
<path d="M627.92 287.61C627.92 287.61 651.51 291.37 661.61 284.25L666.67 265.41C666.67 265.41 667.67 254.98 677.3 249.53C671.164 252.192 665.196 255.228 659.43 258.62L641.43 267.68C640.573 268.109 639.628 268.333 638.67 268.333C637.712 268.333 636.767 268.109 635.91 267.68L627.91 263.68L627.92 287.61Z" fill="#4768EB"/>
<path opacity="0.4" d="M627.92 287.61C627.92 287.61 651.51 291.37 661.61 284.25L666.67 265.41C666.67 265.41 667.67 254.98 677.3 249.53C671.164 252.192 665.196 255.228 659.43 258.62L641.43 267.68C640.573 268.109 639.628 268.333 638.67 268.333C637.712 268.333 636.767 268.109 635.91 267.68L627.91 263.68L627.92 287.61Z" fill="black"/>
<path d="M209.55 221V242.21C209.549 243.345 209.977 244.438 210.75 245.27L216.36 251.27C217.37 252.356 217.928 253.787 217.92 255.27V257.75C217.92 257.75 222.92 257.1 225.08 254.75V250.37C225.069 249.286 225.421 248.231 226.08 247.37L227.42 245.66V233.46L214 219.7L209.55 221Z" fill="#F9B499"/>
<path d="M227.46 233.51V241.89C227.46 241.89 220.9 242.66 217.86 232.89L227.46 233.51Z" fill="#F7A48B"/>
<path d="M260.69 297.1L270.69 330.68L271.37 332.98C271.48 333.335 271.501 333.712 271.434 334.078C271.366 334.444 271.21 334.788 270.98 335.08C268.84 337.8 261.73 345.08 247.24 344.55C246.955 344.542 246.68 344.439 246.459 344.258C246.239 344.077 246.084 343.828 246.02 343.55L227.47 257.8C226.806 257.614 226.217 257.225 225.787 256.687C225.356 256.148 225.105 255.488 225.07 254.8V250.4C225.07 250.4 224.49 248.61 227.47 245.68V240.45C227.47 240.45 230.31 241.02 231.7 244.7C231.7 244.7 248.42 248.97 257.93 261.24C257.93 261.24 270.81 276.57 278.17 280.24H288L290.45 301.71C290.45 301.71 270.5 304.78 260.69 297.1Z" fill="#4768EB"/>
<path d="M271 335.08C268.86 337.8 261.75 345.08 247.26 344.55C246.974 344.542 246.7 344.439 246.479 344.258C246.258 344.077 246.104 343.828 246.04 343.55L227.47 257.8C226.806 257.614 226.217 257.225 225.786 256.687C225.356 256.148 225.105 255.488 225.07 254.8C225.07 254.8 229.37 258.01 233.38 252.34C233.247 253.546 232.811 254.699 232.111 255.691C231.412 256.683 230.472 257.481 229.38 258.01L247 329.48C247 329.48 252.95 346.32 270.69 330.68L271.37 332.98C271.482 333.334 271.507 333.71 271.443 334.075C271.378 334.441 271.226 334.786 271 335.08Z" fill="#2F2E41"/>
<path opacity="0.3" d="M271 335.08C268.86 337.8 261.75 345.08 247.26 344.55C246.974 344.542 246.7 344.439 246.479 344.258C246.258 344.077 246.104 343.828 246.04 343.55L227.47 257.8C226.806 257.614 226.217 257.225 225.786 256.687C225.356 256.148 225.105 255.488 225.07 254.8C225.07 254.8 229.37 258.01 233.38 252.34C233.247 253.546 232.811 254.699 232.111 255.691C231.412 256.683 230.472 257.481 229.38 258.01L247 329.48C247 329.48 252.95 346.32 270.69 330.68L271.37 332.98C271.482 333.334 271.507 333.71 271.443 334.075C271.378 334.441 271.226 334.786 271 335.08Z" fill="black"/>
<path opacity="0.3" d="M242.43 248.94C244.43 252.27 246.32 255.73 248.08 259.22C249.84 262.71 251.46 266.28 252.95 269.91C254.462 273.531 255.77 277.233 256.87 281C258.008 284.752 258.772 288.607 259.15 292.51C258.94 291.56 258.73 290.6 258.54 289.65C258.35 288.7 258.04 287.77 257.79 286.83C257.54 285.89 257.26 285 257 284C256.74 283 256.44 282.14 256.1 281.23C254.86 277.54 253.45 273.91 251.98 270.3C250.51 266.69 248.93 263.13 247.35 259.57C246.57 257.78 245.75 256.01 244.92 254.24C244.09 252.47 243.25 250.71 242.43 248.94Z" fill="black"/>
<path d="M260.69 297.1C260.69 297.1 273.69 287.36 283.46 302.28C283.46 302.28 268.82 303.39 260.69 297.1Z" fill="#2F2E41"/>
<path opacity="0.3" d="M260.69 297.1C260.69 297.1 273.69 287.36 283.46 302.28C283.46 302.28 268.82 303.39 260.69 297.1Z" fill="black"/>
<path opacity="0.45" d="M220.16 257.35C221.88 265.937 223.493 274.54 225 283.16C226.507 291.78 227.92 300.42 229.24 309.08C231.91 326.38 234.18 343.75 236.24 361.14C238.3 378.53 239.75 395.98 240.92 413.46L241.63 426.57L241.81 429.85L241.92 433.13L242.14 439.69C242.49 448.44 242.38 457.2 242.45 465.95C242.21 457.2 242.14 448.45 241.61 439.71L241.32 433.16L241.17 429.88L240.96 426.61L240.09 413.51C238.76 396.07 237.21 378.64 235.17 361.26C233.13 343.88 230.94 326.52 228.45 309.2C227.203 300.533 225.87 291.883 224.45 283.25C223.03 274.617 221.6 265.983 220.16 257.35Z" fill="black"/>
<path d="M217.574 193.509C222.802 191.677 225.991 187.201 224.698 183.511C223.405 179.821 218.119 178.314 212.892 180.146C207.664 181.978 204.474 186.454 205.767 190.144C207.06 193.834 212.346 195.341 217.574 193.509Z" fill="#2F2E41"/>
<path d="M302.26 335.3L294.74 327.94" stroke="#ED1C24" stroke-width="0.5" stroke-miterlimit="10"/>
<path d="M305.94 332.7L298.5 324.93" stroke="#ED1C24" stroke-width="0.5" stroke-miterlimit="10"/>
<path d="M307.29 329.78L301.03 323.09" stroke="#ED1C24" stroke-width="0.5" stroke-miterlimit="10"/>
<path d="M428.89 285.59C442.23 275.2 452.83 277.29 460.09 281.99C463.986 284.601 467.121 288.197 469.176 292.412C471.232 296.628 472.133 301.313 471.79 305.99C469.79 340.27 433.26 326.48 433.26 326.48L440.26 371.55L298.5 390L283.5 249L328.88 243.67C328.88 243.67 324.56 279.77 357.52 277.41C357.52 277.41 385.52 273.68 376.69 237.73L423 232.91L428.89 285.59Z" fill="#4768EB"/>
<path opacity="0.4" d="M428.89 285.59C442.23 275.2 452.83 277.29 460.09 281.99C463.986 284.601 467.121 288.197 469.176 292.412C471.232 296.628 472.133 301.313 471.79 305.99C469.79 340.27 433.26 326.48 433.26 326.48L440.26 371.55L298.5 390L283.5 249L328.88 243.67C328.88 243.67 324.56 279.77 357.52 277.41C357.52 277.41 385.52 273.68 376.69 237.73L423 232.91L428.89 285.59Z" fill="white"/>
<path d="M423 232.91L438.64 231.65L444.29 278.36C444.29 278.36 437.86 278.76 428.88 285.59L423 232.91Z" fill="#4768EB"/>
<path d="M440.27 371.51L455.11 368.65L449.74 329.16C449.74 329.16 440.49 329.38 433.26 326.44L440.27 371.51Z" fill="#4768EB"/>
<g opacity="0.59">
<path d="M423 232.91L438.64 231.65L444.29 278.36C444.29 278.36 437.86 278.76 428.88 285.59L423 232.91Z" fill="white"/>
<path d="M440.27 371.51L455.11 368.65L449.74 329.16C449.74 329.16 440.49 329.38 433.26 326.44L440.27 371.51Z" fill="white"/>
</g>
<path d="M568.55 232.91H568.22C571.078 229.049 572.807 224.471 573.216 219.685C573.625 214.899 572.696 210.093 570.535 205.804C568.373 201.514 565.063 197.909 560.973 195.39C556.882 192.871 552.173 191.538 547.37 191.538C542.566 191.538 537.857 192.871 533.767 195.39C529.677 197.909 526.367 201.514 524.205 205.804C522.043 210.093 521.115 214.899 521.524 219.685C521.933 224.471 523.662 229.049 526.52 232.91H473.17V279.55C473.17 279.55 498.48 272.01 507.66 291.19C509.346 294.777 510.257 298.68 510.333 302.643C510.409 306.606 509.648 310.541 508.1 314.19C504.42 322.96 495.55 332.98 474.3 327.92V373.52H616.3V232.91H568.55Z" fill="#4768EB"/>
<path d="M627.92 232.91H616.26V373.53H627.92V232.91Z" fill="#4768EB"/>
<path opacity="0.4" d="M627.92 232.91H616.26V373.53H627.92V232.91Z" fill="white"/>
<path d="M589.73 302V290.42H581.26C580.415 287.553 579.137 284.831 577.47 282.35L583.47 276.8L575.66 268.3L569.22 274.22C566.095 272.163 562.6 270.73 558.93 270V261.48H547.39V270C543.541 270.77 539.888 272.311 536.65 274.53L531.95 269.42L523.45 277.23L528.58 282.82C526.43 286.124 524.981 289.834 524.32 293.72L517.81 293.49L517.41 305.03L524.64 305.28C525.677 309.774 527.764 313.958 530.73 317.49L525.11 322.66L532.93 331.16L539.87 324.77C542.972 326.362 546.336 327.378 549.8 327.77V335.82H561.35V326.82C565.023 325.749 568.451 323.969 571.44 321.58L576.16 326.71L584.66 318.9L578.92 312.65C580.709 309.349 581.84 305.732 582.25 302H589.73ZM554.22 316.65C544.66 316.65 536.9 308.59 536.9 298.65C536.9 288.71 544.66 280.65 554.22 280.65C563.78 280.65 571.53 288.71 571.53 298.65C571.53 308.59 563.78 316.65 554.22 316.65Z" fill="white"/>
<path d="M410.32 341.12L402.32 341.99L395.06 285.59L383.79 286.68L389.9 343.35L382.82 344.12L378.73 314.63L366.88 316.01L370.14 345.5L363.38 346.24L358.47 304.58L346.14 305.51L351.34 347.56L345.72 348.17L339.17 292.5L326.85 293.98L332.98 349.56L326.51 350.27L326.82 353.09L410.63 343.94L410.32 341.12Z" fill="white"/>
<path d="M61.8601 360.44C67.8592 357.668 74.3917 356.242 81.0001 356.26C105.51 356.26 125.37 375.58 125.37 399.41C125.37 423.24 105.46 442.55 81.0001 442.55C56.5401 442.55 36.6201 423.24 36.6201 399.41H82.0001L61.8601 360.44Z" fill="#4768EB"/>
<path d="M51.7899 352.59L75.6099 396H23.5399C23.5399 396 15.8598 361.62 51.7899 352.59Z" fill="#2F2E41"/>
<path d="M679.63 248.81C679.63 248.81 668.63 250.45 665.95 268.11C665.95 268.11 651.95 314.99 649.43 345.27C649.379 346.01 649.605 346.743 650.063 347.326C650.521 347.91 651.179 348.303 651.91 348.43C662.79 350.15 704.2 356.22 728.62 353.14C729.047 353.085 729.46 352.945 729.834 352.73C730.207 352.515 730.535 352.229 730.798 351.887C731.061 351.545 731.254 351.155 731.365 350.738C731.477 350.322 731.506 349.887 731.45 349.46V349.29C730.049 341.222 729.28 333.057 729.15 324.87C729.15 324.87 733.78 258.22 720.74 253.8L705.65 248.8H679.65L679.63 248.81Z" fill="#4768EB"/>
<path opacity="0.2" d="M694.18 306.51C694.18 306.51 721.68 303.82 729.92 298.61C729.92 298.61 729.81 286.29 729.3 280.73C729.3 280.73 722.94 291.68 701.16 302.37L694.18 306.51Z" fill="black"/>
<path opacity="0.2" d="M661.61 284.25C661.61 284.25 656.54 269.77 659.43 258.62C659.43 258.62 671.75 251.37 677.3 249.53C677.3 249.53 668.11 253.25 666.67 265.41L661.61 284.25Z" fill="black"/>
<path d="M629.78 308.49C629.78 308.49 627.33 310.22 625.42 308.49L617.78 300.26C617.385 299.828 616.834 299.571 616.249 299.544C615.664 299.518 615.093 299.725 614.66 300.12C614.286 300.474 614.047 300.946 613.983 301.457C613.919 301.968 614.035 302.485 614.31 302.92L617.49 307.92L593.94 307.76C593.759 307.759 593.579 307.793 593.411 307.861C593.243 307.929 593.09 308.03 592.961 308.157C592.832 308.284 592.73 308.436 592.659 308.603C592.588 308.77 592.551 308.949 592.55 309.13V309.47C592.549 309.651 592.583 309.831 592.651 309.999C592.719 310.167 592.82 310.32 592.947 310.449C593.074 310.578 593.226 310.681 593.393 310.751C593.56 310.822 593.739 310.859 593.92 310.86H609.4C609.607 310.86 609.805 310.942 609.952 311.088C610.098 311.235 610.18 311.433 610.18 311.64C610.18 311.847 610.098 312.045 609.952 312.192C609.805 312.338 609.607 312.42 609.4 312.42H592.17C591.804 312.42 591.453 312.565 591.194 312.824C590.936 313.083 590.79 313.434 590.79 313.8C590.789 313.981 590.823 314.161 590.891 314.329C590.959 314.497 591.06 314.65 591.187 314.779C591.314 314.908 591.466 315.011 591.633 315.081C591.8 315.152 591.979 315.189 592.16 315.19L609.08 314.83C609.345 314.83 609.6 314.935 609.787 315.123C609.975 315.31 610.08 315.565 610.08 315.83C610.08 316.095 609.975 316.35 609.787 316.537C609.6 316.725 609.345 316.83 609.08 316.83L593.89 316.54C593.524 316.54 593.173 316.685 592.914 316.944C592.655 317.203 592.51 317.554 592.51 317.92V318.44C592.51 318.806 592.655 319.157 592.914 319.416C593.173 319.675 593.524 319.82 593.89 319.82H609.33C609.537 319.82 609.735 319.902 609.882 320.048C610.028 320.195 610.11 320.393 610.11 320.6V321.29C610.11 321.497 610.028 321.695 609.882 321.842C609.735 321.988 609.537 322.07 609.33 322.07H597.53C597.161 322.07 596.808 322.216 596.547 322.477C596.287 322.738 596.14 323.091 596.14 323.46V324.37C596.14 324.736 596.285 325.087 596.544 325.346C596.803 325.605 597.154 325.75 597.52 325.75H597.59L633.08 324.1L629.78 308.49Z" fill="#F9B499"/>
<path d="M676.64 626.09H676.48C675.05 625.92 669.07 629.65 669.07 629.65C665.19 632.99 662.19 631.23 662.19 631.23C662.19 623.48 654.44 624.01 654.44 624.01V614L675.35 610L676.64 626.09Z" fill="#F9B499"/>
<path d="M681.93 647.24L628.26 649.24C626.79 649.299 625.325 649.032 623.97 648.46C615.71 645 617.97 641.39 617.97 641.39L654.44 624C654.44 624 662.19 623.47 662.19 631.22C662.19 631.22 665.19 632.98 669.07 629.64C669.07 629.64 675.07 625.91 676.48 626.08H676.64C678.94 629.62 681.93 647.24 681.93 647.24Z" fill="#4768EB"/>
<path d="M681.93 647.24C681.931 647.928 681.666 648.589 681.191 649.087C680.716 649.584 680.067 649.879 679.38 649.91L626.94 652.27C620.58 651.88 615.94 644.87 615.94 644.87C613.47 640.57 618.01 641.42 618.01 641.42C618.01 641.42 615.75 645.03 624.01 648.49C625.365 649.062 626.83 649.329 628.3 649.27L681.93 647.24Z" fill="#2F2E41"/>
<path d="M756.85 610.02L760.56 619.58L769.59 628.38L781.87 619.2L777.7 601.27L756.85 610.02Z" fill="#F9B499"/>
<path d="M792 635.32C781.82 637.41 758.9 650.86 758.9 650.86C747.25 656.37 732.29 650.47 729.83 649.43C729.548 649.312 729.322 649.09 729.2 648.81C728.45 647.03 731.2 645.27 731.53 645.08L759.66 620.33C760.351 619.721 761.2 619.319 762.11 619.17C767.05 618.42 768.52 623.55 768.52 623.55C768.509 623.847 768.571 624.142 768.699 624.409C768.828 624.677 769.019 624.91 769.257 625.088C769.494 625.265 769.772 625.383 770.065 625.431C770.358 625.478 770.658 625.454 770.94 625.36C772.129 625.168 773.201 624.532 773.94 623.58C778.45 617.96 780.66 617.28 780.66 617.28C783.48 612.88 790.21 627.62 792.56 633.13C792.65 633.36 792.74 633.56 792.83 633.75C792.887 633.893 792.914 634.046 792.912 634.2C792.909 634.354 792.877 634.506 792.815 634.647C792.754 634.788 792.665 634.916 792.555 635.023C792.444 635.13 792.313 635.214 792.17 635.27L792 635.32Z" fill="#4768EB"/>
<path d="M796 635.32C796.061 635.909 795.908 636.5 795.568 636.985C795.228 637.47 794.725 637.816 794.15 637.96C791.97 638.56 788.24 639.8 788.24 639.8C780.89 641.8 761.07 653.18 761.07 653.18C745.07 659.5 729.81 651.61 729.81 651.61C723.28 648.06 731.06 645.25 731.59 645.08C731.28 645.27 728.51 647.03 729.26 648.81C729.383 649.09 729.608 649.312 729.89 649.43C732.35 650.43 747.31 656.37 758.96 650.86C758.96 650.86 781.96 637.34 792.12 635.31C792.407 635.247 792.659 635.076 792.823 634.832C792.987 634.588 793.051 634.29 793 634C792.978 633.919 792.951 633.838 792.92 633.76C792.83 633.56 792.74 633.36 792.65 633.13L793 633.07C795.13 633.39 795.84 634.36 796 635.32Z" fill="#2F2E41"/>
<path d="M617.859 596.381L617.596 597.419L661.188 608.465L661.451 607.428L617.859 596.381Z" fill="white"/>
<path d="M589.316 550.709L589.241 551.779L618.661 553.839L618.736 552.769L589.316 550.709Z" fill="white"/>
<path d="M702.29 608.07L701.29 607.71C701.49 607.16 720.65 552.54 724.29 533.93L725.35 534.13C721.67 552.82 702.48 607.52 702.29 608.07Z" fill="white"/>
<path d="M696.736 565.598L695.754 566.021L706.882 591.824L707.865 591.4L696.736 565.598Z" fill="white"/>
<path d="M716.37 565.38L715.92 564.41L733.54 556.32L733.99 557.3L716.37 565.38Z" fill="white"/>
<path d="M425.51 150.19C426.915 150.823 428.18 151.731 429.23 152.86C431.626 155.345 433.252 158.471 433.91 161.86L436.4 174.08L464.54 169.24L462.73 154.71C462.73 154.71 461.81 148.97 465.9 145.94C465.9 145.94 483.62 130.78 475.31 109.94C473.21 104.68 469.885 99.9978 465.612 96.2811C461.338 92.5644 456.24 89.9209 450.74 88.57C441.74 86.38 429.11 86.99 417.74 98.18C417.74 98.18 403.01 111.68 410.66 133.27C410.69 133.24 414 145.34 425.51 150.19Z" fill="#4768EB"/>
<path opacity="0.5" d="M425.51 150.19C426.915 150.823 428.18 151.731 429.23 152.86C431.626 155.345 433.252 158.471 433.91 161.86L436.4 174.08L464.54 169.24L462.73 154.71C462.73 154.71 461.81 148.97 465.9 145.94C465.9 145.94 483.62 130.78 475.31 109.94C473.21 104.68 469.885 99.9978 465.612 96.2811C461.338 92.5644 456.24 89.9209 450.74 88.57C441.74 86.38 429.11 86.99 417.74 98.18C417.74 98.18 403.01 111.68 410.66 133.27C410.69 133.24 414 145.34 425.51 150.19Z" fill="white"/>
<path d="M434 143.79H433.87C432.637 143.566 431.472 143.058 430.469 142.307C429.466 141.555 428.652 140.581 428.09 139.46C425.93 134.79 428.95 128.57 429.09 128.3C430.39 126.16 431.78 125.21 433.23 125.44C437.91 126.19 441.09 139.44 441.44 141.01L441.97 143.48H441.35C437.28 143.79 434.06 143.79 434 143.79ZM432.8 126.46C431.89 126.46 430.96 127.25 430.02 128.8C430.02 128.8 427.12 134.8 429.02 138.99C429.5 140.018 430.259 140.891 431.21 141.51C432.542 142.349 434.098 142.76 435.67 142.69C436.87 142.69 438.62 142.6 440.61 142.47L440.34 141.22C439.44 137.3 436.34 127.02 433.01 126.48L432.8 126.46Z" fill="white"/>
<path d="M447.3 174.75L440.67 142.47H441.29C444.649 142.262 447.99 141.828 451.29 141.17L451.88 141.04L455 173.43L447.3 174.75ZM442 143.45L448.23 173.45L453.93 172.45L450.93 142.29C447.979 142.857 444.997 143.244 442 143.45Z" fill="white"/>
<path d="M451 142.3L450.14 133.38C449.941 131.569 450.019 129.738 450.37 127.95C450.85 125.62 451.72 124.05 452.95 123.28C453.419 122.998 453.941 122.818 454.484 122.751C455.026 122.684 455.577 122.731 456.1 122.89C457.05 123.157 457.928 123.634 458.671 124.284C459.413 124.935 460 125.743 460.39 126.65C464.68 135.83 458.47 139.6 457.98 139.88C455.999 141.011 453.837 141.79 451.59 142.18L451 142.3ZM454.91 123.81C454.42 123.804 453.939 123.936 453.52 124.19C452.52 124.8 451.84 126.19 451.42 128.19C451.09 129.873 451.02 131.596 451.21 133.3L452 141C453.912 140.642 455.751 139.966 457.44 139C457.68 138.87 463.44 135.72 459.44 127.16C459.115 126.4 458.625 125.721 458.006 125.173C457.387 124.625 456.654 124.221 455.86 123.99C455.537 123.88 455.201 123.813 454.86 123.79L454.91 123.81Z" fill="white"/>
<path d="M359.29 80.62L361.25 76.15L400.92 96.27L359.29 80.62Z" fill="#4768EB"/>
<path d="M390.02 40.67L419.92 78.67L394.21 38.15L390.02 40.67Z" fill="#4768EB"/>
<path d="M445.9 27.26H450.37L449.06 71.46L445.9 27.26Z" fill="#4768EB"/>
<path d="M470.69 82.66L502.59 50.6L505.81 53.52L470.69 82.66Z" fill="#4768EB"/>
<g opacity="0.4">
<path d="M359.29 80.62L361.25 76.15L400.92 96.27L359.29 80.62Z" fill="white"/>
<path d="M390.02 40.67L419.92 78.67L394.21 38.15L390.02 40.67Z" fill="white"/>
<path d="M445.9 27.26H450.37L449.06 71.46L445.9 27.26Z" fill="white"/>
<path d="M470.69 82.66L502.59 50.6L505.81 53.52L470.69 82.66Z" fill="white"/>
</g>
<path d="M690.23 257.16L680.55 263.68C680.55 263.68 673.61 249.8 684.55 243.92C684.55 243.92 684.13 253.38 690.23 257.16Z" fill="#2F2E41"/>
<path d="M691.66 267.73L690.23 257.16C690.23 257.16 698.01 256.95 703.23 244.97L708.7 253.8C708.7 253.8 704.86 263.73 691.66 267.73Z" fill="#2F2E41"/>
<path d="M629.46 307L633.46 325.92C633.46 325.92 679.46 317.09 701.17 302.37C701.17 302.37 723.4 291.05 729.31 280.73C730.714 277.505 731.335 273.993 731.121 270.482C730.907 266.971 729.865 263.561 728.08 260.53C728.08 260.53 721.14 247.28 705.63 265.78L682.46 289.12L629.46 307Z" fill="#4768EB"/>
<path opacity="0.4" d="M629.46 307L633.46 325.92C633.46 325.92 679.46 317.09 701.17 302.37C701.17 302.37 723.4 291.05 729.31 280.73C730.714 277.505 731.335 273.993 731.121 270.482C730.907 266.971 729.865 263.561 728.08 260.53C728.08 260.53 721.14 247.28 705.63 265.78L682.46 289.12L629.46 307Z" fill="black"/>
<path d="M684.55 235.72V245.6C684.55 245.6 684.55 253.6 690.23 257.16C690.23 257.16 698.64 256.95 703.23 244.97L703.03 230.88L707.03 217.7H702.03L684.55 235.72Z" fill="#F9B499"/>
<path d="M684.55 235.72V245.6C684.55 245.6 692.05 242.07 692.71 234.36L684.55 235.72Z" fill="#F7A48B"/>
<path d="M700.43 221.681C704.116 210.469 701.733 199.614 695.106 197.435C688.48 195.256 680.12 202.579 676.433 213.791C672.747 225.003 675.131 235.858 681.757 238.037C688.383 240.215 696.743 232.893 700.43 221.681Z" fill="#F9B499"/>
<path d="M673.61 211.54C677.143 211.747 680.681 211.239 684.012 210.047C687.344 208.854 690.401 207.002 693 204.6C695.836 206.787 697.792 209.921 698.51 213.43V218.69L703.1 226.49V230.88C703.1 230.88 715.29 220.79 710.87 199.97C710.87 199.97 706.55 186.73 698.51 194.97C698.51 194.97 695.9 187.13 690.51 193.7C690.44 193.66 678.87 188.2 673.61 211.54Z" fill="#2F2E41"/>
<path d="M702.05 226.68C704.022 226.68 705.62 224.67 705.62 222.19C705.62 219.71 704.022 217.7 702.05 217.7C700.078 217.7 698.48 219.71 698.48 222.19C698.48 224.67 700.078 226.68 702.05 226.68Z" fill="#F9B499"/>
<path d="M780.73 602.37C771.17 610.37 752.68 612.25 752.68 612.25L709 499.1C700.71 485.1 700.39 456.72 700.39 456.72L688 388.51L668.55 469.51C664.41 482.89 665.68 503.29 665.68 503.29C669.51 517.95 673.34 564.16 673.34 564.16L678.75 609.42L675.36 610.06L654.45 614.06L651.92 614.54C651.92 614.54 644.02 564.81 636.68 536.13C636.54 535.56 636.39 534.98 636.25 534.42C629.32 506.25 628.4 477.17 628.4 477.17C627.4 425.87 651.92 348.49 651.92 348.49C698.38 356.49 728.63 353.2 728.63 353.2C734.19 367.49 742.17 480 742.17 480L780.73 602.37Z" fill="#2F2E41"/>
<path d="M283.46 312.67C280.46 314.06 278.46 325.11 278.46 325.11L253.15 324.87C224.84 323.72 215.4 313.14 215.4 313.14C215.4 317.06 211.89 328.56 211.89 328.56C199.4 364.45 169.16 344.66 169.16 344.66C169.22 340.82 169.317 337.153 169.45 333.66C171.2 285.85 178.52 268.14 178.52 268.14C182.96 252.66 194.31 252.35 194.31 252.35L201.22 249.59L204.13 245.44C207.35 240.54 209.59 241.15 209.59 241.15V242.28C209.589 243.417 210.022 244.512 210.8 245.34L216.41 251.34C217.42 252.426 217.978 253.857 217.97 255.34V257.82L218.55 280.26L234.04 300.26C254 298.88 283.46 312.67 283.46 312.67Z" fill="#4768EB"/>
<path d="M202.24 253.54C202.24 253.54 207.13 259.18 217.86 259.07L218.5 280.24L207.3 265.74L212.14 270.57L211.33 259.87C211.33 259.87 204.43 258.72 202.24 253.54Z" fill="#2F2E41"/>
<path opacity="0.3" d="M202.24 253.54C202.24 253.54 207.13 259.18 217.86 259.07L218.5 280.24L207.3 265.74L212.14 270.57L211.33 259.87C211.33 259.87 204.43 258.72 202.24 253.54Z" fill="black"/>
<path d="M215.35 313.14C215.35 317.06 211.84 328.56 211.84 328.56C199.35 364.45 169.11 344.66 169.11 344.66C169.17 340.82 169.267 337.153 169.4 333.66C176.57 337.32 196.14 345.45 204.23 330.59C204.23 330.59 210.93 320.81 210.37 311.59C210.37 311.59 190.65 302 184.46 292.03L188.55 283.84C188.55 283.84 203.05 306 215.35 313.14Z" fill="#2F2E41"/>
<path opacity="0.3" d="M215.35 313.14C215.35 317.06 211.84 328.56 211.84 328.56C199.35 364.45 169.11 344.66 169.11 344.66C169.17 340.82 169.267 337.153 169.4 333.66C176.57 337.32 196.14 345.45 204.23 330.59C204.23 330.59 210.93 320.81 210.37 311.59C210.37 311.59 190.65 302 184.46 292.03L188.55 283.84C188.55 283.84 203.05 306 215.35 313.14Z" fill="black"/>
<path d="M213.79 312.15C213.79 312.15 231 303.5 237.71 323.09C237.71 323.09 224.1 321.34 213.79 312.15Z" fill="#2F2E41"/>
<path opacity="0.3" d="M213.79 312.15C213.79 312.15 231 303.5 237.71 323.09C237.71 323.09 224.1 321.34 213.79 312.15Z" fill="black"/>
<path d="M294.15 314.32C296.818 313.499 299.677 313.541 302.32 314.44C303.129 314.807 303.875 315.3 304.53 315.9C304.652 316.008 304.787 316.102 304.93 316.18C305.053 316.254 305.16 316.351 305.245 316.467C305.331 316.583 305.392 316.714 305.427 316.853C305.461 316.992 305.467 317.137 305.446 317.279C305.424 317.421 305.374 317.557 305.3 317.68C305.223 317.808 305.12 317.918 304.997 318.005C304.875 318.091 304.736 318.15 304.59 318.18C302.979 318.501 301.311 318.369 299.77 317.8C298.116 316.319 296.213 315.141 294.15 314.32Z" fill="#F7A48B"/>
<path d="M283.46 312.67L294.15 314.32C295.86 314.582 297.437 315.396 298.64 316.64L308.31 326.64C308.628 326.943 308.838 327.342 308.906 327.776C308.975 328.209 308.899 328.654 308.69 329.04C308.555 329.289 308.351 329.494 308.103 329.63C307.855 329.767 307.573 329.829 307.29 329.81C307.29 329.81 308.09 332.73 305.94 332.73C305.94 332.73 306.86 335.95 302.26 335.33C302.26 335.33 302.26 339.02 297.2 336.1L278.41 325.1C278.41 325.1 280.12 314.43 283.46 312.67Z" fill="#F9B499"/>
<path d="M302.26 335.3C298.812 334.104 295.639 332.227 292.93 329.78C294.658 330.36 296.315 331.131 297.87 332.08C299.447 332.989 300.92 334.069 302.26 335.3Z" fill="#F7A48B"/>
<path d="M305.7 332.54C302.257 331.331 299.087 329.455 296.37 327.02C298.094 327.6 299.748 328.371 301.3 329.32C302.88 330.229 304.356 331.309 305.7 332.54Z" fill="#F7A48B"/>
<path d="M307.83 329.78C304.387 328.571 301.217 326.695 298.5 324.26C300.228 324.838 301.885 325.609 303.44 326.56C305.017 327.469 306.489 328.549 307.83 329.78Z" fill="#F7A48B"/>
<path d="M228.641 234.127C235.984 232.062 239.767 222.673 237.09 213.156C234.414 203.639 226.291 197.598 218.948 199.663C211.605 201.729 207.822 211.118 210.498 220.635C213.175 230.152 221.298 236.193 228.641 234.127Z" fill="#F9B499"/>
<path d="M218.5 201.14C218.5 201.14 222.24 208.14 235.5 209.81C238.16 215.067 238.78 221.123 237.24 226.81C236.493 229.016 235.202 230.997 233.485 232.57C231.768 234.143 229.682 235.258 227.42 235.81V240.45C228.393 240.806 229.276 241.372 230.007 242.106C230.737 242.84 231.298 243.726 231.65 244.7C237.822 246.541 243.673 249.32 249 252.94C249 252.94 242.7 235.63 243.23 219.72C243.472 216.337 243.009 212.942 241.871 209.747C240.734 206.552 238.946 203.628 236.62 201.16C236.62 201.16 228.62 191.16 222.78 191.54C221.994 191.59 221.206 191.59 220.42 191.54C215.72 191.18 201.9 190.67 201.61 197.04C201.61 197.04 202.52 215.27 190.21 230.57C190.21 230.57 162.21 258.19 160.99 265.66C160.99 265.66 167.59 277.17 174.99 280.66C174.99 280.66 177.14 271.72 178.4 268.13C178.4 268.13 181.96 253.53 194.19 252.34L201.1 249.58C201.1 249.58 206.56 241.67 209.47 241.14V222.9L208.47 217C208.47 217 221.88 210.29 218.5 201.14Z" fill="#2F2E41"/>
<path d="M208.46 222.83C210.332 222.83 211.85 221.25 211.85 219.3C211.85 217.35 210.332 215.77 208.46 215.77C206.588 215.77 205.07 217.35 205.07 219.3C205.07 221.25 206.588 222.83 208.46 222.83Z" fill="#F9B499"/>
<path d="M207.1 192.2C208.176 192.74 209.342 193.079 210.54 193.2C211.713 193.33 212.897 193.33 214.07 193.2C215.259 193.072 216.438 192.868 217.6 192.59L219.36 192.14C219.95 191.97 220.53 191.8 221.15 191.67C220.63 192.02 220.09 192.32 219.55 192.67C219.007 192.98 218.434 193.235 217.84 193.43C216.661 193.872 215.431 194.168 214.18 194.31C212.913 194.459 211.63 194.381 210.39 194.08C209.132 193.792 207.987 193.138 207.1 192.2Z" fill="#4768EB"/>
<path d="M453.92 196.22C453.92 196.22 440.34 201.31 436.41 174.09L447.56 172.17L454.26 171.02L464.54 169.25C464.54 169.25 471.5 195.27 453.92 196.22Z" fill="#2F2E41"/>
</svg>
