<svg width="700" height="553" viewBox="0 0 700 553" fill="none" xmlns="http://www.w3.org/2000/svg">
<path d="M193.677 79.4631L192.23 54.6733C192.116 52.6793 191.381 50.7708 190.128 49.2157L175.38 30.8296C174.666 29.944 174.135 28.9245 173.821 27.8311C173.506 26.7377 173.413 25.5925 173.547 24.4626C173.681 23.3327 174.039 22.241 174.601 21.2517C175.163 20.2623 175.917 19.3953 176.819 18.7015L178.962 17.044C179.885 16.3312 180.944 15.815 182.075 15.5274C183.205 15.2397 184.382 15.1867 185.534 15.3716C186.685 15.5564 187.787 15.9752 188.77 16.6022C189.753 17.2291 190.598 18.0509 191.252 19.0168L198.472 29.6976C198.814 30.1946 199.329 30.5463 199.917 30.6838C200.504 30.8213 201.122 30.7349 201.649 30.4415C201.948 30.2706 202.208 30.038 202.41 29.7592C202.612 29.4804 202.752 29.1617 202.822 28.8244L205.078 18.3134C205.146 17.9931 205.322 17.7061 205.577 17.5001C205.831 17.2941 206.149 17.1816 206.476 17.1814C206.67 17.1812 206.861 17.2203 207.039 17.2962C207.217 17.3721 207.378 17.4834 207.512 17.6232C207.646 17.763 207.75 17.9285 207.818 18.1097C207.886 18.2908 207.916 18.4839 207.908 18.6772L207.293 32.9398C207.157 36.1584 206.361 39.3148 204.956 42.2138C203.945 44.2989 203.582 46.6392 203.913 48.9327L207.956 77.0294L193.677 79.4631Z" fill="#F9B499"/>
<path d="M335.907 179.229C335.907 179.229 312.742 203.129 301.997 204.9L279.358 189.246C279.358 189.246 302.919 182.584 317.424 158.417L335.907 179.229Z" fill="#F9B499"/>
<path d="M409.306 502.482V512.209L428.105 522.219V501.601L409.306 502.482Z" fill="#F9B499"/>
<path d="M386.093 534.614C386.093 534.614 389.19 521.936 405.328 521.054V514.643C405.328 514.643 405.886 508.174 411.942 509.913C412.933 510.207 413.87 510.661 414.716 511.255C417.464 513.085 420.024 515.184 422.356 517.521C422.356 517.521 426.779 512.346 430.094 522.122C431.391 526.2 432.351 530.378 432.964 534.614H386.093Z" fill="#4F79FE"/>
<path d="M432.964 534.614H386.093V538.074H432.964V534.614Z" fill="#2F2E41"/>
<path d="M347.55 502.482V523.148L364.424 527.191V504.277L347.55 502.482Z" fill="#F9B499"/>
<path d="M323.674 534.614C323.674 534.614 325.461 523.294 342.764 520.868L343.338 513.737C343.385 513.138 343.561 512.555 343.851 512.029C344.142 511.503 344.542 511.045 345.025 510.686C345.507 510.327 346.06 510.075 346.648 509.947C347.236 509.819 347.844 509.819 348.432 509.945L350.59 510.406C352.181 510.748 353.627 511.575 354.728 512.772C355.83 513.97 356.534 515.479 356.743 517.092L357.35 521.79H368.184L371.062 534.646L323.674 534.614Z" fill="#4F79FE"/>
<path d="M371.062 534.614H323.674V538.074H371.062V534.614Z" fill="#2F2E41"/>
<path d="M382.633 273.496C382.633 273.496 383.813 294.073 394.13 306.153L403.266 443.823L406.501 503.072C406.501 503.072 414.166 508.376 430.377 504.843C430.377 504.843 441.583 461.805 438.042 402.256C438.042 402.256 434.808 367.173 436.271 358.037C436.271 358.037 442.303 272.898 441.349 258.87C441.357 258.87 406.509 274.45 382.633 273.496Z" fill="#2F2E41"/>
<path opacity="0.2" d="M382.633 273.496C382.633 273.496 383.813 294.073 394.13 306.153L403.266 443.823L406.501 503.072C406.501 503.072 414.166 508.376 430.377 504.843C430.377 504.843 441.583 461.805 438.042 402.256C438.042 402.256 434.808 367.173 436.271 358.037C436.271 358.037 442.303 272.898 441.349 258.87C441.357 258.87 406.509 274.45 382.633 273.496Z" fill="black"/>
<path d="M385.01 383.562C384.928 382.8 384.955 382.029 385.091 381.274C385.689 374.636 388.923 342.27 396.119 336.206L394.13 306.153C394.13 306.153 384.428 295.084 382.633 273.496C382.633 273.496 370.181 273.601 363.85 270.593L354.956 338.875C354.956 338.875 352.005 364.23 352.304 379.56L343.75 502.781L364.942 510.188C364.942 510.188 371.725 505.175 378.501 456.824C378.501 456.824 387.387 395.529 385.01 383.562Z" fill="#2F2E41"/>
<path d="M310.034 156.161C310.034 156.161 333.7 182.139 336.788 182.576C336.788 182.576 343.2 176.609 344.753 180.369L354.261 265.047C354.261 265.047 371.79 285.907 422.688 267.788L454.221 253.994C454.221 253.994 446.944 173.739 446.483 163.567C446.483 163.567 446.847 159.937 450.21 160.244C451.284 160.362 452.365 160.402 453.444 160.365L460.422 160.026C460.422 160.026 464.4 155.175 465.063 143.855V123.771C465.063 123.771 432.527 100.97 395.529 105.627C395.529 105.627 358.296 104.536 337.953 127.531L310.034 156.161Z" fill="#4F79FE"/>
<path d="M369.955 90.815L370.618 110.05C370.618 110.05 363.988 117.788 377.474 119.001C377.474 119.001 389.392 120.432 396.507 114.287C397.404 113.525 398.065 112.524 398.415 111.4C398.884 109.783 398.763 107.713 395.602 106.509L392.95 87.8315L369.955 90.815Z" fill="#F9B499"/>
<path d="M343.904 179.269L343.394 179.188C347.979 151.698 337.734 127.854 337.662 127.62L338.131 127.409C338.236 127.652 348.48 151.633 343.904 179.269Z" fill="#2F2E41"/>
<path d="M448.415 160.527C435.899 138.325 439.093 111.384 439.125 111.117L439.635 111.182C439.635 111.449 436.4 138.22 448.868 160.277L448.415 160.527Z" fill="#2F2E41"/>
<path d="M425.679 233.748L425.218 233.53C435.034 213.026 437.767 186.999 437.791 186.74L438.308 186.797C438.284 187.055 435.535 213.163 425.679 233.748Z" fill="#2F2E41"/>
<path d="M254.997 121.329C254.997 121.329 246.588 117.61 255.652 104.989C255.652 104.989 267.367 85.7293 277.539 91.0333C277.539 91.0333 281.299 92.7312 281.299 96.305C281.299 96.305 292.117 91.2031 299.224 97.6391C300.377 98.7064 301.318 99.982 301.997 101.399C304.035 105.563 309.015 117.634 304.827 129.398C303.531 133.077 303.126 137.011 303.646 140.876C304.166 144.741 305.596 148.428 307.819 151.633C310 154.74 312.601 157.529 315.548 159.921C316.763 161.04 317.783 162.354 318.564 163.81C319.055 164.783 319.283 165.869 319.224 166.958C319.166 168.046 318.823 169.101 318.23 170.016C317.637 170.931 316.815 171.675 315.845 172.174C314.875 172.672 313.791 172.908 312.702 172.857C310.495 172.731 308.329 172.2 306.315 171.289C306.315 171.289 313.389 177.701 308.085 181.905C308.085 181.905 304.544 186.101 294.154 177.482C294.154 177.482 293.273 189.61 283.765 185.665L270.052 175.049H267.844L249.491 166.203L246.37 163.325C246.545 162.512 246.951 161.767 247.539 161.179C248.127 160.591 248.872 160.185 249.685 160.01C249.685 160.01 239.732 160.891 238.632 157.358C238.632 157.358 232.657 150.412 242.828 142.966C242.828 142.966 237.799 142.408 235.058 140.201C234.634 139.847 234.288 139.408 234.045 138.912C233.801 138.416 233.665 137.874 233.644 137.322C233.624 136.77 233.719 136.22 233.925 135.707C234.131 135.195 234.443 134.731 234.84 134.347C236.255 132.956 238.972 131.339 244.154 130.49C244.179 130.498 249.919 129.948 254.997 121.329Z" fill="#2F2E41"/>
<path d="M194.259 91.8499L198.981 164.942C198.981 164.942 200.453 188.527 196.62 206.218L175.105 332.099C175.105 332.099 184.242 355.385 212.541 371.596C222.509 336.435 230.34 300.702 235.988 264.594C235.988 264.594 236.142 211.675 245.691 169.3C245.691 169.3 249.006 168.742 249.669 166.316L239.327 158.417L238.268 159.896C238.268 159.896 227.555 151.811 224.758 135.77L215.176 90.815L194.259 91.8499Z" fill="#4F79FE"/>
<path d="M187.629 79.7623L188.519 94.6475H217.553L212.985 73.1242L187.629 79.7623Z" fill="#4F79FE"/>
<path opacity="0.2" d="M187.629 79.7623L188.519 94.6475H217.553L212.985 73.1242L187.629 79.7623Z" fill="black"/>
<path d="M284.371 189.246C284.371 189.246 299.499 197.971 305.393 205.045L337.888 235.406C337.888 235.406 350.784 246.362 340.176 258.854C340.176 258.854 328.38 271.192 324.547 273.48C320.715 275.768 311.611 256.024 311.611 256.024L314.392 253.671L297.17 242.764L319.001 357.139C319.001 357.139 299.103 297 282.665 285.802L280.967 230.417L284.371 189.246Z" fill="#4F79FE"/>
<path d="M271.127 244.842L279.342 228.307C278.404 220.868 277.272 213.174 275.946 205.223C274.679 197.677 273.31 190.4 271.839 183.393C270.383 185.818 267.085 189.424 262.201 193.022C256.404 197.283 248.65 200.453 240.839 196.046C240.166 201.361 239.546 206.797 238.98 212.354C238.284 219.259 237.713 225.997 237.266 232.568C248.25 237.451 259.565 241.552 271.127 244.842Z" fill="#2F2E41"/>
<path d="M265.201 261.352L271.168 244.842C271.168 244.842 252.264 239.327 237.266 232.592L235.705 260.349L265.201 261.352Z" fill="#F9B499"/>
<path d="M268.475 502.482C268.475 502.482 257.641 438.81 249.24 419.356C249.24 419.356 240.176 395.909 239.538 389.287L261.425 385.309C261.425 385.309 285.301 437.266 281.105 508.676L279.116 512.654L268.475 502.482Z" fill="#F9B499"/>
<path d="M251.229 532.77C251.229 532.77 253.655 515.532 267.594 514.424C267.594 514.424 260.018 502.021 270.682 502.482C270.682 502.482 275.332 504.544 278.202 510.568C278.202 510.568 281.299 504.01 285.058 512.629C285.058 512.629 289.481 525.671 288.818 532.746L251.229 532.77Z" fill="#4F79FE"/>
<path d="M288.883 532.77H251.229V538.074H288.883V532.77Z" fill="#2F2E41"/>
<path d="M300.493 380.255L322.202 369.17C322.202 369.17 360.608 421.596 373.245 486.805L367.004 492.756L359.638 486.562C359.638 486.562 334.46 425.922 318.095 407.115C316.336 405.085 314.735 402.923 313.308 400.647L300.493 380.255Z" fill="#F9B499"/>
<path d="M386.756 497.178L375.97 485.123C375.97 485.123 371.701 484.46 371.038 488.915C371.038 488.915 357.988 480.999 358.732 488.22C358.732 488.22 358.579 495.585 362.856 499.539C362.856 499.539 354.309 510.446 353.719 521.054C353.719 521.054 364.626 525.477 371.038 519.874C371.062 519.89 385.43 503.517 386.756 497.178Z" fill="#4F79FE"/>
<path d="M353.274 523.448L353.743 521.022C353.743 521.022 363.325 526.035 371.062 519.842C371.062 519.842 383.19 507.018 386.756 497.146C386.756 497.146 389.99 498.181 389.562 502.45C389.562 502.45 377.474 521.321 370.254 525.299C370.254 525.299 366.171 528.145 355.741 526.803C355.354 526.754 354.981 526.627 354.646 526.43C354.31 526.233 354.017 525.969 353.787 525.655C353.556 525.341 353.392 524.984 353.304 524.604C353.215 524.225 353.206 523.831 353.274 523.448Z" fill="#2F2E41"/>
<path d="M279.342 228.307C279.342 228.307 282.422 256.945 282.115 269.243L269.453 267.796C269.453 267.796 268.257 267.853 267.982 268.435C267.982 268.435 265.492 264.352 265.16 261.352L271.127 244.842L279.342 228.307Z" fill="#4F79FE"/>
<path opacity="0.2" d="M279.342 228.307C279.342 228.307 282.422 256.945 282.115 269.243L269.453 267.796C269.453 267.796 268.257 267.853 267.982 268.435C267.982 268.435 265.492 264.352 265.16 261.352L271.127 244.842L279.342 228.307Z" fill="white"/>
<path d="M465.023 123.755L475.421 126.407C475.421 126.407 492.448 102.959 497.308 56.3228L488.616 33.1501C488.452 32.7068 488.451 32.2199 488.612 31.7758C488.773 31.3317 489.087 30.9592 489.497 30.7245C489.937 30.476 490.455 30.4029 490.947 30.5198C491.439 30.6368 491.868 30.9351 492.149 31.3551L498.617 41.0576L507.406 26.2694C507.911 25.4222 508.612 24.7088 509.45 24.1894C510.288 23.6701 511.239 23.36 512.222 23.2855C513.205 23.211 514.192 23.3741 515.099 23.7612C516.005 24.1483 516.806 24.7479 517.432 25.5094L525.582 35.4221C526.552 36.6004 527.049 38.0976 526.976 39.6221C526.902 41.1465 526.264 42.5892 525.186 43.6692L509.905 58.9748C509.905 58.9748 508.36 125.744 494.429 143.216C494.429 143.216 489.707 151.375 463.438 153.372C463.438 153.372 465.055 148.076 465.055 139.23L465.023 123.755Z" fill="#F9B499"/>
<path d="M370.165 96.8063L369.947 91.8257L393.055 88.729L393.467 91.4861C393.467 91.4861 386.295 100.129 370.165 96.8063Z" fill="#F7A389"/>
<path d="M379.536 96.305C391.664 96.305 401.496 82.636 401.496 65.7746C401.496 48.9131 391.664 35.2442 379.536 35.2442C367.408 35.2442 357.576 48.9131 357.576 65.7746C357.576 82.636 367.408 96.305 379.536 96.305Z" fill="#F9B499"/>
<path d="M358.603 73.4234C361.452 73.4234 363.761 70.455 363.761 66.7933C363.761 63.1317 361.452 60.1633 358.603 60.1633C355.754 60.1633 353.444 63.1317 353.444 66.7933C353.444 70.455 355.754 73.4234 358.603 73.4234Z" fill="#F9B499"/>
<path d="M357.94 60.2118C357.353 60.3343 356.792 60.5587 356.282 60.8748C356.282 60.8748 343.718 39.6669 360.519 32.8913C360.519 32.8913 374.086 27.2882 384.104 28.1695C384.104 28.1695 382.908 23.391 384.031 20.0841C384.164 19.6891 384.422 19.3482 384.766 19.1135C385.11 18.8788 385.521 18.7632 385.937 18.7843C386.353 18.8054 386.751 18.962 387.07 19.2303C387.388 19.4985 387.61 19.8637 387.702 20.27C388.095 22.4101 388.076 24.6055 387.646 26.7383C387.646 26.7383 390.071 22.2429 393.58 21.6607C393.799 21.6267 394.022 21.6379 394.237 21.6937C394.451 21.7495 394.651 21.8486 394.826 21.9851C395 22.1215 395.144 22.2923 395.25 22.4869C395.356 22.6814 395.42 22.8956 395.44 23.1161C395.561 24.5715 394.995 26.9405 391.179 29.3903C391.179 29.3903 404.673 28.0643 405.336 41.9955C405.336 41.9955 405.716 49.7736 403.97 62.3545C403.97 62.3545 403.727 79.5521 398.448 81.3389C401.262 74.6701 402.188 67.3555 401.124 60.1957C400.262 59.9671 399.344 60.0862 398.569 60.5272C398.569 60.5272 396.766 57.3981 396.911 48.8357C396.927 48.5549 396.865 48.2753 396.733 48.0271C396.601 47.779 396.403 47.5719 396.161 47.4284C395.919 47.285 395.643 47.2107 395.362 47.2136C395.08 47.2165 394.805 47.2966 394.567 47.445C393.859 47.913 393.203 48.4551 392.61 49.0621C392.61 49.0621 382.439 58.8697 381.565 54.3338C381.565 54.3338 380.498 52.4175 384.428 47.3318C384.506 47.233 384.549 47.1105 384.549 46.9841C384.549 46.8578 384.506 46.7353 384.428 46.6365C384.031 46.1352 383.037 45.642 380.967 48.3263C380.552 48.8758 380.101 49.3971 379.617 49.8868C376.941 52.5792 368.653 60.3978 366.527 56.3551C366.527 56.3551 364.489 53.8082 368.435 46.3697C368.553 46.1545 368.601 45.9074 368.57 45.6636C368.54 45.4198 368.433 45.1919 368.265 45.0125C368.098 44.8331 367.877 44.7113 367.636 44.6646C367.395 44.6179 367.145 44.6487 366.923 44.7526C365.666 45.4929 364.586 46.5004 363.761 47.7037C363.761 47.7037 358.546 54.7542 359.897 63.6239C359.897 63.6239 358.417 63.9958 357.94 60.2118Z" fill="#2F2E41"/>
<path d="M400.178 73.4234C403.027 73.4234 405.336 70.455 405.336 66.7933C405.336 63.1317 403.027 60.1633 400.178 60.1633C397.329 60.1633 395.02 63.1317 395.02 66.7933C395.02 70.455 397.329 73.4234 400.178 73.4234Z" fill="#F9B499"/>
<path opacity="0.2" d="M229.366 211.837L222.518 203.364C222.518 203.364 222.518 181.614 239.368 158.433L249.725 166.332C249.725 166.332 249.539 168.281 245.731 169.316L240.88 196.07C239.392 207.123 238.454 216.793 237.791 224.701C237.128 232.786 236.772 239.408 236.57 243.734C236.222 251.439 236.061 258.449 236.02 264.61C233.158 259.516 230.361 254.099 227.482 248.52C223.084 240.015 218.443 230.563 217.448 226.803L229.366 211.837Z" fill="black"/>
<path d="M282.406 228.331L290.362 222.809L283.732 185.665L270.052 175.049C270.052 175.049 281.113 222.146 281.994 261.716L282.657 285.818C282.657 285.818 289.287 256.856 295.036 244.914L282.406 228.331Z" fill="#4F79FE"/>
<path opacity="0.2" d="M282.406 228.331L290.362 222.809L283.732 185.665L270.052 175.049C270.052 175.049 281.113 222.146 281.994 261.716L282.657 285.818C282.657 285.818 289.287 256.856 295.036 244.914L282.406 228.331Z" fill="black"/>
<path d="M327.984 273.496L313.244 279.625C313.244 279.625 306.169 271.887 304.107 262.451L313.373 253.687C313.373 253.687 320.028 269.728 327.984 273.496Z" fill="#4F79FE"/>
<path opacity="0.2" d="M327.984 273.496L313.244 279.625C313.244 279.625 306.169 271.887 304.107 262.451L313.373 253.687C313.373 253.687 320.028 269.728 327.984 273.496Z" fill="black"/>
<path d="M257.641 153.372C257.641 153.372 249.838 169.227 245.658 169.227C244.761 173.221 243.944 177.442 243.152 181.735C242.246 186.667 241.475 191.44 240.839 196.054C243.623 197.532 246.736 198.277 249.887 198.221C255.442 197.962 263.05 194.987 271.257 184.282C271.257 184.282 267.497 181.662 267.367 177.11C267.363 176.754 267.38 176.398 267.416 176.043C267.642 173.464 268.734 162.451 271.127 157.139L257.641 153.372Z" fill="#F9B499"/>
<path d="M238.187 390.37L221.208 338.624C221.208 338.624 232.859 284.605 235.972 264.594L235.705 260.317L265.201 261.352C265.201 261.352 266.308 270.561 278.469 279.625C289.4 291.233 298.136 304.728 304.253 319.453C304.253 319.453 318.702 351.035 322.243 369.17C322.243 369.17 315.605 377.789 298.367 380.66C298.367 380.66 280.935 342.658 259.25 331.339C259.25 331.339 259.007 369.146 265.201 384.177C265.201 384.201 256.759 394.769 238.187 390.37Z" fill="#2F2E41"/>
<path d="M305.627 264.594L293.871 270.593L269.421 267.796C269.195 267.772 268.966 267.796 268.75 267.867C268.534 267.937 268.335 268.052 268.166 268.205C267.998 268.358 267.863 268.544 267.771 268.752C267.68 268.96 267.633 269.186 267.634 269.413C267.637 269.758 267.749 270.093 267.956 270.37C268.162 270.646 268.452 270.849 268.782 270.949L276.399 273.213L265.669 276.302C264.938 276.503 264.268 276.881 263.718 277.403C263.168 277.925 262.755 278.574 262.515 279.293C262.275 280.012 262.216 280.779 262.343 281.527C262.471 282.274 262.78 282.979 263.244 283.579L268.71 290.75C269.369 291.614 270.312 292.217 271.372 292.453C272.433 292.69 273.543 292.545 274.507 292.044L295.003 281.371L311.586 276.229C308.952 272.718 306.937 268.783 305.627 264.594Z" fill="#F9B499"/>
<path d="M254.997 158.417L257.641 153.372L271.257 158.417C271.257 158.417 266.818 163.729 254.997 158.417Z" fill="#F7A389"/>
<path d="M289.147 143.628C296.573 130.765 295.602 116.302 286.978 111.323C278.354 106.344 265.343 112.735 257.917 125.597C250.491 138.459 251.462 152.923 260.086 157.902C268.71 162.88 281.721 156.49 289.147 143.628Z" fill="#F9B499"/>
<path d="M258.909 132.043C260.011 129.261 259.15 126.312 256.987 125.455C254.824 124.599 252.177 126.159 251.076 128.941C249.975 131.723 250.835 134.672 252.998 135.529C255.162 136.385 257.808 134.824 258.909 132.043Z" fill="#F9B499"/>
<path d="M294.273 144.52C295.375 141.738 294.514 138.789 292.351 137.932C290.188 137.076 287.541 138.637 286.44 141.418C285.339 144.2 286.199 147.149 288.362 148.006C290.526 148.862 293.172 147.302 294.273 144.52Z" fill="#F9B499"/>
<path d="M277.264 109.961C277.264 109.961 271.135 128.849 263.947 117.683C263.947 117.683 259.468 123.197 255.353 121.491C255.012 121.342 254.689 121.154 254.39 120.933C252.814 119.777 248.917 116.082 252.725 109.961C252.725 109.961 265.823 84.6216 277.539 91.0333C278.548 91.5383 279.419 92.2828 280.074 93.2017C280.729 94.1207 281.15 95.1861 281.299 96.305C281.299 96.305 296.159 89.6507 301.997 101.399L295.448 130.506C295.448 130.506 287.929 134.597 287.71 121.556C287.71 121.548 279.188 136.845 277.264 109.961Z" fill="#2F2E41"/>
</svg>
