<svg width="820" height="742" viewBox="0 0 820 742" fill="none" xmlns="http://www.w3.org/2000/svg">
<path d="M56.4621 463.298C56.4621 463.298 -37.5823 342.725 19.455 226.062C19.455 226.062 48.9381 150.424 175.039 176.566C175.039 176.566 227.358 194.657 285.721 195.996C311.304 196.594 336.71 191.617 360.176 181.41C383.642 171.203 404.606 156.012 421.611 136.89C445.401 110.061 499.796 67.1814 594.047 88.6202C594.047 88.6202 716 121.522 719.611 292.228C719.611 292.228 731.036 477.684 544.316 562.978L209.092 581.446L56.4621 463.298Z" fill="#4F79FE"/>
<path opacity="0.7" d="M56.4621 463.298C56.4621 463.298 -37.5823 342.725 19.455 226.062C19.455 226.062 48.9381 150.424 175.039 176.566C175.039 176.566 227.358 194.657 285.721 195.996C311.304 196.594 336.71 191.617 360.176 181.41C383.642 171.203 404.606 156.012 421.611 136.89C445.401 110.061 499.796 67.1814 594.047 88.6202C594.047 88.6202 716 121.522 719.611 292.228C719.611 292.228 731.036 477.684 544.316 562.978L209.092 581.446L56.4621 463.298Z" fill="white"/>
<path d="M177.908 135.001C177.908 135.001 177.382 106.467 239.708 110.298C243.51 110.526 247.296 110.965 251.049 111.612C262.125 113.511 294.871 117.416 330.109 105.296C340.298 101.728 349.994 96.8826 358.965 90.8758C372.159 82.1722 401.907 65.4368 412.875 82.769C412.875 82.769 436.365 107.718 381.233 137.899C381.233 137.899 343.982 187.942 237.558 175.837C237.57 175.866 174.738 165.121 177.908 135.001Z" fill="#4F79FE"/>
<path opacity="0.7" d="M177.908 135.001C177.908 135.001 177.382 106.467 239.708 110.298C243.51 110.526 247.296 110.965 251.049 111.612C262.125 113.511 294.871 117.416 330.109 105.296C340.298 101.728 349.994 96.8826 358.965 90.8758C372.159 82.1722 401.907 65.4368 412.875 82.769C412.875 82.769 436.365 107.718 381.233 137.899C381.233 137.899 343.982 187.942 237.558 175.837C237.57 175.866 174.738 165.121 177.908 135.001Z" fill="white"/>
<path opacity="0.45" d="M620.617 392.318C656.263 389.199 682.631 357.774 679.513 322.129C676.394 286.483 644.97 260.115 609.324 263.233C573.678 266.352 547.31 297.777 550.428 333.422C553.547 369.068 584.972 395.436 620.617 392.318Z" fill="white"/>
<path d="M620.67 392.914C607.787 394.041 594.859 391.323 583.52 385.103C572.182 378.882 562.943 369.439 556.972 357.968C551 346.497 548.564 333.513 549.972 320.657C551.38 307.801 556.568 295.652 564.881 285.745C573.194 275.838 584.258 268.619 596.674 265C609.089 261.381 622.3 261.525 634.633 265.414C646.967 269.303 657.871 276.762 665.966 286.848C674.061 296.934 678.983 309.193 680.11 322.077C681.605 339.349 676.186 356.509 665.042 369.79C653.898 383.071 637.94 391.388 620.67 392.914ZM609.375 263.81C596.728 264.917 584.692 269.749 574.791 277.695C564.89 285.642 557.568 296.346 553.75 308.454C549.933 320.562 549.791 333.53 553.344 345.718C556.896 357.906 563.983 368.768 573.709 376.928C583.434 385.089 595.361 390.182 607.981 391.564C620.601 392.946 633.348 390.555 644.609 384.693C655.87 378.831 665.14 369.761 671.246 358.631C677.353 347.5 680.021 334.809 678.915 322.161C677.409 305.213 669.242 289.554 656.206 278.619C643.17 267.683 626.329 262.365 609.377 263.83L609.375 263.81Z" fill="#4F79FE"/>
<path d="M610.973 293C605.572 293.473 600.58 296.071 597.095 300.224C593.611 304.377 591.918 309.745 592.391 315.145L592.97 321.767L633.687 318.204L633.108 311.583C632.635 306.184 630.038 301.194 625.887 297.709C621.737 294.224 616.372 292.531 610.973 293ZM626.274 317.739L599.867 320.05L599.338 314.005C599.031 310.503 600.129 307.023 602.388 304.33C604.648 301.638 607.885 299.953 611.387 299.646C614.888 299.34 618.368 300.437 621.061 302.697C623.754 304.956 625.439 308.193 625.746 311.695L626.274 317.739Z" fill="#4F79FE"/>
<path d="M601.425 245.712C601.425 245.712 593.963 264.853 587.933 274.783C587.394 275.636 586.964 276.555 586.655 277.516C585.933 279.529 585.755 281.697 586.14 283.8C586.403 284.711 586.994 285.493 587.798 285.995C588.602 286.498 589.564 286.686 590.498 286.523C593.667 286.019 599.726 283.745 606.006 274.65C606.006 274.65 611.865 266.145 612.769 259.009C612.749 259.011 604.792 255.923 601.425 245.712Z" fill="#4F79FE"/>
<path opacity="0.2" d="M598.543 252.764C598.543 252.764 608.03 259.818 605.508 269.185C605.508 269.185 602.084 277.812 598.241 282.997C598.241 282.997 609.046 275.38 612.749 259.011C607.368 256.245 603.298 251.464 601.424 245.712L598.543 252.764Z" fill="black"/>
<path d="M370.087 118.296C399.777 115.768 456.41 110.744 485.674 108.075C487.991 107.884 490.321 108.191 492.509 108.978C494.696 109.764 496.689 111.011 498.353 112.634C500.017 114.257 501.314 116.219 502.154 118.386C502.995 120.553 503.361 122.876 503.226 125.196L491.307 354.61C491.077 359.658 488.99 364.444 485.448 368.048C481.905 371.653 477.156 373.821 472.112 374.137L351.653 381.178C349.924 381.267 348.195 380.993 346.58 380.371C344.964 379.749 343.497 378.794 342.274 377.568C341.051 376.342 340.1 374.872 339.483 373.255C338.865 371.637 338.595 369.908 338.689 368.179L350.107 139.223C350.339 133.907 352.492 128.856 356.166 125.007C359.841 121.159 364.787 118.774 370.087 118.296Z" fill="#2F2E41"/>
<path d="M362.48 125.644C392.16 123.106 448.804 118.092 478.058 115.424C480.363 115.209 482.687 115.493 484.873 116.258C487.058 117.022 489.053 118.248 490.722 119.853C492.39 121.458 493.693 123.404 494.542 125.558C495.391 127.712 495.766 130.023 495.641 132.335L483.472 359.346C483.201 364.366 481.092 369.11 477.546 372.674C474.001 376.238 469.267 378.372 464.249 378.669L343.794 385.748C342.075 385.85 340.354 385.588 338.743 384.98C337.133 384.371 335.668 383.43 334.446 382.217C333.224 381.004 332.271 379.547 331.65 377.941C331.03 376.335 330.754 374.616 330.843 372.896L342.461 146.338C342.73 141.05 344.907 136.04 348.588 132.235C352.269 128.43 357.205 126.088 362.48 125.644Z" fill="#2F2E41"/>
<path opacity="0.2" d="M362.48 125.644C392.16 123.106 448.804 118.092 478.058 115.424C480.363 115.209 482.687 115.493 484.873 116.258C487.058 117.022 489.053 118.248 490.722 119.853C492.39 121.458 493.693 123.404 494.542 125.558C495.391 127.712 495.766 130.023 495.641 132.335L483.472 359.346C483.201 364.366 481.092 369.11 477.546 372.674C474.001 376.238 469.267 378.372 464.249 378.669L343.794 385.748C342.075 385.85 340.354 385.588 338.743 384.98C337.133 384.371 335.668 383.43 334.446 382.217C333.224 381.004 332.271 379.547 331.65 377.941C331.03 376.335 330.754 374.616 330.843 372.896L342.461 146.338C342.73 141.05 344.907 136.04 348.588 132.235C352.269 128.43 357.205 126.088 362.48 125.644Z" fill="black"/>
<path d="M491.016 139.51L479.255 354.285C478.793 364.663 471.149 372.931 461.47 373.482L347.509 382.585C345.85 382.635 344.201 382.303 342.691 381.612C341.181 380.922 339.851 379.894 338.803 378.606C336.421 375.868 335.165 372.33 335.286 368.703L346.573 155.823C347.216 136.588 361.39 130.637 371.534 129.77C399.18 127.42 447.304 124.944 474.536 122.483C483.691 121.682 491.471 129.723 491.016 139.51Z" fill="white"/>
<path opacity="0.18" d="M371.573 129.776C371.573 129.776 350.978 135.885 351.492 155.058L341.94 377.178L338.803 378.606C336.421 375.868 335.164 372.33 335.286 368.703L346.572 155.823C347.255 136.595 361.459 130.641 371.573 129.776Z" fill="#4F79FE"/>
<path opacity="0.3" d="M356.371 140.075L487.695 128.585C487.695 128.585 482.648 121.813 474.576 122.489L371.574 129.776C371.574 129.776 360.004 133.617 356.371 140.075Z" fill="#4F79FE"/>
<path d="M382.752 250.109L385.9 207.238C387.098 200.57 389.881 194.287 394.012 188.918C398.144 183.549 403.504 179.25 409.643 176.383C419.678 171.563 431.645 172.162 440.627 178.738C445.89 182.565 450.528 188.604 451.781 198.084L448.989 245.694C448.989 245.694 448.313 271.771 420.713 281.854C410.981 285.405 399.978 283.894 392.178 277.077C386.447 272.069 381.701 263.782 382.752 250.109Z" fill="#4F79FE"/>
<path opacity="0.2" d="M382.752 250.109L385.9 207.238C387.098 200.57 389.881 194.287 394.012 188.918C398.144 183.549 403.504 179.25 409.643 176.383C419.678 171.563 431.645 172.162 440.627 178.738C445.89 182.565 450.528 188.604 451.781 198.084L448.989 245.694C448.989 245.694 448.313 271.771 420.713 281.854C410.981 285.405 399.978 283.894 392.178 277.077C386.447 272.069 381.701 263.782 382.752 250.109Z" fill="black"/>
<path d="M440.322 298.932L379.457 304.257C373.693 304.762 369.43 309.843 369.934 315.606L370.332 320.154C370.836 325.918 375.917 330.181 381.681 329.677L442.546 324.352C448.309 323.848 452.573 318.767 452.068 313.003L451.671 308.455C451.166 302.692 446.085 298.428 440.322 298.932Z" fill="#4F79FE"/>
<path d="M381.368 636.111L381.873 641.881L408.033 649.241L407.672 645.124L381.368 636.111Z" fill="#2F2E41"/>
<path d="M411.936 646.426L412.353 651.199L434.994 656.531C434.994 656.531 468.209 661.845 467.03 641.606L411.936 646.426Z" fill="#2F2E41"/>
<path d="M277.948 349.564L270.821 332.201C234.817 255.581 267.365 257.888 267.365 257.888C295.783 253.332 316.635 344.662 316.635 344.662C336.423 405.138 394.91 416.007 414.438 417.965C420.292 418.552 426.094 419.576 431.795 421.029C496.312 437.51 518.401 462.887 518.401 462.887C566.282 510.124 544.315 562.959 544.315 562.959C505.09 577.379 356.819 615.729 356.819 615.729C276.386 629.665 213.061 596.059 213.061 596.059C190.465 580.888 134.232 567.614 134.232 567.614C120.466 565.054 117.068 561.576 117.068 561.576L97.6533 547.506C94.0575 545.495 90.4692 543.345 86.9107 541.084L26.9561 482.801C32.5571 474.614 46.5482 462.293 80.8056 458.123C92.589 456.564 104.575 458.104 115.582 462.59C118.887 463.976 128.119 470.708 125.502 467.832C110.902 451.902 89.6035 412.353 89.6035 412.353C78.2508 392.423 66.6627 342.317 66.6627 342.317L56.1677 304.591L51.6514 248.239C107.194 236.944 117.592 308.708 117.592 308.708C125.02 334.806 138.881 363.801 138.881 363.801C151.138 378.268 164.361 391.889 178.459 404.569C163.728 378.016 146.832 347.218 140.798 336.146C139.091 333.031 137.591 329.807 136.307 326.496C122.297 290.271 120.05 252.425 119.817 248.188L121.658 191.388C124.04 190.864 126.494 190.756 128.913 191.069C169.781 191.603 175.143 252.888 175.143 252.888L211.3 211.288C211.991 211.017 212.698 210.79 213.419 210.61C224.362 207.839 232.224 217.835 237.175 227.789C240.953 235.436 243.343 243.693 244.236 252.175C250.78 312.322 277.078 348.408 277.915 349.528" fill="#F9B499"/>
<path d="M303.465 506.616C303.465 506.616 413.453 453.57 479.32 557.804C479.32 557.804 438.885 439.765 303.465 506.616Z" fill="#F7A48B"/>
<path d="M86.9215 541.093C59.254 523.596 33.6145 500.215 25.7738 492.829C24.9717 492.075 24.4302 491.085 24.2274 490.002C24.0247 488.92 24.1712 487.801 24.6458 486.807C25.3072 485.412 26.0798 484.072 26.9563 482.801C26.9563 482.801 98.5311 511.802 86.9215 541.093Z" fill="#4F79FE"/>
<path d="M56.2706 304.642L45.2524 264.991C40.1065 249.318 51.6769 248.306 51.6769 248.306L51.7552 248.299L62.3969 284.434C65.7908 299.571 56.2706 304.642 56.2706 304.642Z" fill="#4F79FE"/>
<path d="M119.817 248.188L119.783 247.797L112.005 202.157C112.825 195.078 117.427 192.369 121.629 191.4L129.466 237.035C129.466 237.035 130.884 246.491 119.817 248.188Z" fill="#4F79FE"/>
<path d="M87.2446 407.809C87.2446 407.809 143.408 478.635 200.714 494.248L268.945 515.106L224.264 508.282C224.264 508.282 186.904 504.356 125.502 467.833C125.502 467.833 101.781 437.878 87.2446 407.809Z" fill="#F7A48B"/>
<path d="M174.541 245.332L172.675 224.001L194.828 231.189L198.242 246.324C198.242 246.324 183.808 250.888 174.541 245.332Z" fill="#F4BBA8"/>
<path d="M172.675 224.001L173.78 236.637C173.78 236.637 191.803 244.709 198.281 246.32L194.828 231.189L172.675 224.001Z" fill="#F49984"/>
<path d="M260.107 373.083C260.107 373.083 233.856 393.405 180.906 397.161C180.906 397.161 170.884 394.578 167.683 382.667C167.37 381.519 167.137 380.351 166.983 379.17L141.562 312.101C138.472 306.222 136.082 300 134.441 293.565C132.999 287.778 132.203 281.274 133.223 275.251C133.873 271.554 135.489 268.094 137.906 265.223C140.324 262.351 143.457 260.17 146.99 258.899L173.237 249.349C173.237 249.349 170.73 241.871 178.088 244.983C178.088 244.983 188.573 248.007 194.532 246.619C194.532 246.619 198.843 244.744 199.546 247.599L199.724 249.634C199.724 249.634 226.137 246.258 237.757 249.647C238.729 249.927 239.631 250.409 240.404 251.061C242.005 252.377 243.021 254.272 243.231 256.333C244.138 265.124 246.854 290.422 250.343 313.858C251.57 322.138 252.895 330.182 254.274 337.167C254.944 340.499 255.851 343.779 256.986 346.983C257.051 347.135 257.108 347.292 257.155 347.451C258.609 351.398 260.312 355.248 262.254 358.979C264.143 362.658 265.037 367.813 260.107 373.083Z" fill="#4F79FE"/>
<path opacity="0.2" d="M173.276 249.346L167.048 251.605C167.048 251.605 176.184 258.139 195.375 252.429C195.385 252.428 177.368 253.649 173.276 249.346Z" fill="black"/>
<path opacity="0.2" d="M257.238 347.503C256.374 348.327 219.316 383.117 193.028 388.038C188.625 388.84 184.087 388.465 179.875 386.952L167.673 382.668C167.361 381.52 167.127 380.351 166.973 379.171L141.552 312.102C138.462 306.223 136.072 300.001 134.431 293.566C134.431 293.566 201.266 333.053 252.529 327.583C252.529 327.583 254.22 339.922 257.004 347.08L257.238 347.503Z" fill="black"/>
<path d="M355.724 233.384C355.724 233.384 348.096 334.094 326.906 338.145C326.906 338.145 315.719 339.489 302.041 333.422L250.354 313.877C249.694 309.48 249.076 305.011 248.474 300.609C245.895 281.498 243.971 263.443 243.24 256.323C243.03 254.261 242.014 252.367 240.413 251.051L240.636 250.785C240.636 250.785 250.137 249.55 263.164 264.849C263.164 264.849 295.169 292.719 312.48 298.517C312.48 298.517 333.126 242.289 333.308 227.707C333.308 227.707 343.482 227.743 350.177 229.799C352.907 230.595 355.049 231.757 355.724 233.384Z" fill="#4F79FE"/>
<path opacity="0.3" d="M355.724 233.384C355.724 233.384 348.096 334.094 326.906 338.145C326.906 338.145 315.719 339.489 302.041 333.422L250.354 313.877C249.694 309.48 249.076 305.011 248.474 300.609C245.895 281.498 243.971 263.443 243.24 256.323C243.03 254.261 242.014 252.367 240.413 251.051L240.636 250.785C240.636 250.785 250.137 249.55 263.164 264.849C263.164 264.849 295.169 292.719 312.48 298.517C312.48 298.517 333.126 242.289 333.308 227.707C333.308 227.707 343.482 227.743 350.177 229.799C352.907 230.595 355.049 231.757 355.724 233.384Z" fill="white"/>
<path opacity="0.3" d="M355.723 233.384C355.723 233.384 348.095 334.094 326.906 338.145C326.906 338.145 315.719 339.489 302.041 333.422L250.354 313.877L248.474 300.608L290.917 323.318C304.976 329.676 315.008 318.973 315.008 318.973C321.02 308.828 323.842 319.797 323.842 319.797C336.989 328.127 350.175 229.779 350.175 229.779C352.907 230.595 355.049 231.757 355.723 233.384Z" fill="white"/>
<path opacity="0.2" d="M250.354 313.877L254.38 315.397L249.283 279.664C249.283 279.664 248.541 269.045 244.076 263.966L250.354 313.877Z" fill="black"/>
<path d="M355.724 233.384C355.724 233.384 362.955 197.646 355.907 186.475C355.751 186.236 355.525 186.051 355.26 185.944C354.996 185.838 354.705 185.815 354.426 185.879C354.148 185.943 353.897 186.091 353.705 186.303C353.514 186.515 353.392 186.78 353.356 187.063C353.179 188.78 353.169 190.511 353.325 192.23C353.493 194.321 353.217 196.424 352.515 198.401C352.062 199.786 351.444 201.111 350.672 202.347C350.672 202.347 353.673 182.236 347.952 178.577C347.952 178.577 344.995 176.993 345.473 184.037C345.473 184.037 345.234 198.989 340.73 201.808C340.73 201.808 344.474 183.987 343.467 176.762C343.41 176.373 343.238 176.009 342.972 175.719C342.707 175.429 342.36 175.225 341.977 175.134C341.594 175.043 341.192 175.07 340.825 175.21C340.457 175.35 340.14 175.597 339.914 175.92C337.939 178.685 335.464 185.662 334.894 203.245C334.894 203.245 332.16 187.774 332.564 180.899C332.6 180.428 332.48 179.958 332.221 179.562C331.963 179.166 331.582 178.866 331.136 178.708C330.69 178.551 330.205 178.545 329.755 178.691C329.306 178.837 328.917 179.128 328.649 179.517C327.725 180.899 326.882 183.545 326.463 188.332C326.345 189.528 326.355 190.733 326.492 191.927C326.932 195.83 328.022 205.364 328.737 210.268C328.737 210.268 326.707 203.054 320.609 202.415C320.609 202.415 317.487 202.323 322.28 208.665C322.28 208.665 332.733 222.031 333.364 227.662C333.315 227.667 352.541 227.532 355.724 233.384Z" fill="#F4BBA8"/>
<path d="M659.325 290.988C652.662 293.69 653.185 282.99 653.185 282.99C653.179 278.753 652.967 274.868 652.609 271.342C650.984 254.681 646.358 245.959 646.358 245.959C645.378 243.325 644.302 244.316 644.382 245.905C644.429 246.77 644.335 247.637 644.104 248.472C641.224 259.94 628.057 261.516 628.057 261.516C603.585 263.42 600.601 242.61 600.601 242.61C589.938 245.209 583.9 235.783 583.9 235.783L598.922 234.232C598.449 228.823 605.253 222.788 605.253 222.788C601.653 206.299 576.76 192.127 576.76 192.127L575.677 191.69C540.852 177.44 537.5 162.891 537.5 162.891C536.641 160.683 535.929 158.421 535.37 156.119C534.547 152.843 534.176 149.471 534.266 146.094C534.385 140.688 536.191 135.454 539.432 131.125C544.604 124.237 552.427 120.714 557.175 119.106C559.146 118.492 561.204 118.199 563.268 118.238C566.912 118.205 563.996 113.937 563.996 113.937L548.093 97.0856C541.699 88.8933 544.197 84.8804 544.197 84.8804C548.943 79.5375 555.404 85.802 555.404 85.802L575.211 100.074L581.176 104.382C596.147 115.884 594.452 120.96 594.452 120.96C632.594 132.909 645.49 182.871 647.29 190.598C647.452 191.307 647.687 191.996 647.992 192.656C660.71 220.528 665.926 266.856 665.926 266.856C668.348 286.207 659.325 290.988 659.325 290.988Z" fill="#E6E7E8"/>
<path opacity="0.3" d="M659.325 290.988C652.662 293.689 653.185 282.99 653.185 282.99C653.179 278.753 652.967 274.868 652.609 271.342C665.157 270.688 654.866 231.348 654.866 231.348C646.294 194.421 633.703 168.794 628.494 159.158C626.965 156.304 625.181 153.593 623.163 151.06C604.371 127.76 575.61 117.592 575.61 117.592L581.038 117.117C581.681 117.075 582.303 116.875 582.85 116.535C583.397 116.196 583.852 115.727 584.175 115.17C584.499 114.613 584.68 113.985 584.703 113.341C584.727 112.698 584.592 112.058 584.31 111.479C581.8 106.446 575.172 100.078 575.172 100.078L581.136 104.385C596.108 115.887 594.413 120.963 594.413 120.963C632.555 132.912 645.451 182.875 647.25 190.602C647.413 191.31 647.648 191.999 647.953 192.659C660.671 220.531 665.887 266.859 665.887 266.859C668.348 286.207 659.325 290.988 659.325 290.988Z" fill="#4F79FE"/>
<path opacity="0.3" d="M613.623 259.428C613.623 259.428 650.752 259.353 636.342 228.021C636.342 228.021 642.161 231.454 644.391 245.904C644.391 245.904 644.9 257.805 628.018 261.519C628.067 261.515 621.662 263.001 613.623 259.428Z" fill="#4F79FE"/>
<path d="M624.059 234.3C622.809 236.459 618.502 243.774 615.873 246.842C615.782 246.945 615.723 247.073 615.704 247.209C615.684 247.345 615.704 247.483 615.762 247.608C615.82 247.733 615.913 247.838 616.03 247.91C616.147 247.983 616.282 248.02 616.419 248.017C619.64 247.991 626.788 247.356 631.397 242.695C631.397 242.695 633.497 235.268 625.126 233.763C624.915 233.73 624.698 233.765 624.507 233.861C624.316 233.957 624.16 234.11 624.059 234.3Z" fill="#4F79FE"/>
<path d="M629.086 196.18C635.337 194.892 638.755 185.848 636.72 175.981C634.686 166.114 627.97 159.16 621.719 160.448C615.468 161.737 612.051 170.781 614.085 180.648C616.119 190.515 622.836 197.469 629.086 196.18Z" fill="#4F79FE"/>
<path d="M575.735 191.684L572.553 190.346L572.465 190.354C540.706 176.556 537.543 162.927 537.543 162.927C536.683 160.719 535.972 158.457 535.413 156.155C540.142 149.384 548.151 144.052 557.832 142.052C568.743 139.816 579.305 142.252 586.475 147.834C590.907 151.139 593.997 155.933 595.176 161.334C597.72 173.628 589.289 186.083 575.735 191.684Z" fill="#4F79FE"/>
<path opacity="0.2" d="M575.735 191.684L572.553 190.346L572.465 190.354C605.848 175.173 587.11 148.666 586.485 147.833C590.913 151.14 593.999 155.934 595.176 161.334C597.72 173.628 589.289 186.083 575.735 191.684Z" fill="black"/>
<path d="M539.451 131.123C536.214 135.453 534.412 140.687 534.296 146.092C533.958 145.609 525.328 133.709 516.933 128.668C516.933 128.668 502.961 120.696 510.057 117.66C510.057 117.66 516.901 112.075 532.412 124.673L539.451 131.123Z" fill="#4F79FE"/>
<path opacity="0.2" d="M539.451 131.124C533.91 139.207 534.286 146.093 534.286 146.093L532.659 143.939C535.42 126.164 515.117 116.35 515.117 116.35C515.117 116.35 521.984 115.986 529.548 122.47L532.422 124.672L539.451 131.124Z" fill="black"/>
<path d="M543.268 126.985C543.268 126.985 531.311 109.385 499.584 100.797C499.584 100.797 486.881 96.9809 467.082 98.7822C464.716 99.0167 462.33 98.9539 459.979 98.5954C454.98 97.7811 448.065 95.3408 449.152 88.0512C449.152 88.0512 450.683 69.0539 490.828 76.422C490.828 76.422 533.625 82.4348 554.159 120.237C554.198 120.234 547.094 122.846 543.268 126.985Z" fill="#4F79FE"/>
<path opacity="0.2" d="M543.268 126.985C546.355 123.938 550.092 121.63 554.198 120.234C554.198 120.234 544.479 99.2644 520.371 86.9649C520.371 86.9649 547.744 111.574 540.765 123.942L543.268 126.985Z" fill="black"/>
<path opacity="0.45" d="M572.029 483.1C595.742 481.025 613.284 460.12 611.209 436.406C609.135 412.693 588.229 395.151 564.516 397.226C540.803 399.301 523.261 420.206 525.336 443.919C527.41 467.633 548.316 485.174 572.029 483.1Z" fill="white"/>
<path d="M572.078 483.657C563.467 484.41 554.827 482.594 547.25 478.436C539.672 474.279 533.498 467.968 529.507 460.302C525.516 452.636 523.888 443.958 524.829 435.366C525.77 426.775 529.237 418.655 534.793 412.034C540.349 405.413 547.743 400.588 556.04 398.17C564.338 395.751 573.167 395.848 581.41 398.447C589.653 401.046 596.94 406.03 602.35 412.771C607.76 419.512 611.049 427.705 611.802 436.315C612.799 447.858 609.177 459.325 601.729 468.2C594.282 477.076 583.618 482.634 572.078 483.657ZM564.565 397.784C556.191 398.516 548.222 401.716 541.666 406.977C535.11 412.239 530.262 419.326 527.734 427.343C525.206 435.36 525.113 443.947 527.465 452.017C529.817 460.087 534.51 467.279 540.949 472.682C547.389 478.085 555.286 481.458 563.642 482.373C571.998 483.288 580.438 481.705 587.894 477.823C595.35 473.942 601.488 467.937 605.532 460.567C609.575 453.197 611.342 444.794 610.609 436.419C609.604 425.203 604.194 414.842 595.564 407.607C586.934 400.373 575.788 396.854 564.568 397.823L564.565 397.784Z" fill="#4F79FE"/>
<path d="M549.568 463.609C549.113 463.653 548.659 463.515 548.303 463.227C548.118 463.082 547.963 462.902 547.847 462.696C547.732 462.491 547.658 462.265 547.63 462.031C547.602 461.797 547.621 461.56 547.685 461.334C547.749 461.107 547.858 460.895 548.004 460.711L562.546 442.29C562.688 442.095 562.869 441.93 563.076 441.806C563.284 441.683 563.514 441.602 563.754 441.569C563.993 441.536 564.237 441.552 564.47 441.616C564.704 441.68 564.922 441.79 565.111 441.94C565.301 442.09 565.458 442.277 565.574 442.489C565.69 442.701 565.762 442.935 565.785 443.175C565.808 443.416 565.783 443.659 565.71 443.889C565.638 444.12 565.519 444.334 565.362 444.517L550.82 462.938C550.669 463.13 550.479 463.288 550.264 463.403C550.049 463.519 549.812 463.589 549.568 463.609Z" fill="#4F79FE"/>
<path d="M570.643 418.145C567.905 418.383 565.3 419.427 563.155 421.146C561.011 422.865 559.425 425.181 558.597 427.801C557.769 430.422 557.737 433.229 558.505 435.867C559.273 438.506 560.806 440.858 562.911 442.625C565.015 444.392 567.597 445.495 570.328 445.795C573.06 446.095 575.819 445.578 578.257 444.31C580.695 443.041 582.702 441.078 584.024 438.669C585.346 436.26 585.923 433.512 585.684 430.775C585.363 427.106 583.598 423.715 580.778 421.347C577.958 418.978 574.312 417.827 570.643 418.145ZM572.782 442.597C570.676 442.781 568.562 442.337 566.708 441.319C564.854 440.302 563.343 438.758 562.367 436.883C561.391 435.007 560.992 432.884 561.222 430.782C561.453 428.68 562.301 426.693 563.66 425.073C565.02 423.453 566.829 422.273 568.859 421.681C570.889 421.089 573.049 421.113 575.066 421.749C577.082 422.385 578.865 423.604 580.189 425.253C581.513 426.903 582.317 428.907 582.502 431.014C582.629 432.415 582.479 433.828 582.06 435.17C581.64 436.513 580.959 437.76 580.056 438.839C579.153 439.918 578.046 440.808 576.798 441.458C575.551 442.108 574.187 442.505 572.785 442.626L572.782 442.597Z" fill="#4F79FE"/>
<path d="M183.146 403.272C183.146 403.272 177.461 441.821 190.576 468.486C190.576 468.486 198.173 496.521 243.175 493.273L338.655 486.635C338.655 486.635 340.043 522.092 365.308 567.779L381.499 599.871C381.499 599.871 410.574 602.817 419.045 589.687L394.376 499.904L383.771 461.035C383.771 461.035 381.69 437.249 359.703 432.973L319.644 429.973L369.79 394.049C369.79 394.049 374.309 431.282 389.761 451.089L416.244 494.709C416.244 494.709 434.734 494.382 444.676 478.581C444.676 478.581 427.401 439.961 414.542 387.049L409.417 366.653C409.417 366.653 405.539 331.227 369.796 340.277L266.375 377.029L210.95 395.409L183.146 403.272Z" fill="#2F2E41"/>
<path opacity="0.2" d="M339.332 415.853L290.959 422.697C270.526 423.114 278.173 410.717 278.173 410.717C262.097 426.582 284.861 428.69 284.861 428.69L319.644 429.973L339.332 415.853Z" fill="black"/>
<path d="M381.499 599.871L381.899 604.438C381.899 604.438 410.975 610.104 419.135 599.288L414.887 593.993C414.887 593.993 406.532 601.564 381.499 599.871Z" fill="#F4BBA8"/>
<path d="M383.326 637.655C383.326 637.655 378.847 636.588 379.351 626.008L381.869 604.441C381.869 604.441 408.903 609.96 419.106 599.291C419.106 599.291 435.134 614.988 453 621.95C453 621.95 473.491 625.794 465.999 644.692C465.273 646.56 463.917 648.115 462.165 649.088C457.077 651.879 444.281 656.113 419.668 648.864L383.326 637.655Z" fill="#4F79FE"/>
<path d="M443.637 480.111L447.541 482.726C447.541 482.726 441.7 496.049 421.555 501.113L418.636 494.559C423.577 494.016 428.352 492.452 432.656 489.964C436.96 487.477 440.699 484.122 443.637 480.111Z" fill="#F4BBA8"/>
<path d="M504.491 498.44C505.602 519.128 463.294 523.993 463.294 523.993C462.309 524 461.393 524.011 460.511 524.059C459.351 524.101 458.264 524.176 457.258 524.284C448.276 525.139 444.932 527.698 444.932 527.698C436.283 531.352 430.758 529.362 427.26 525.884C422.575 521.218 421.549 513.887 421.549 513.887C418.064 500.867 421.591 501.071 421.591 501.071C442.588 495.499 447.577 482.684 447.577 482.684C454.844 488.355 485.575 487.244 485.575 487.244C501.292 485.868 504.165 492.457 504.555 496.128C504.647 496.898 504.626 497.677 504.491 498.44Z" fill="#4F79FE"/>
<path d="M458.879 529.523L440.538 533.917C430.289 535.494 427.725 526.809 427.221 525.887C430.718 529.366 436.244 531.356 444.893 527.702C444.893 527.702 448.236 525.142 457.219 524.288L458.879 529.523Z" fill="#2F2E41"/>
<path d="M461.792 528.904L460.513 524.088C461.393 524.011 462.321 524.028 463.296 524.022C463.296 524.022 505.604 519.158 504.494 498.469C504.615 497.705 504.623 496.928 504.518 496.161C518.881 522.667 461.792 528.904 461.792 528.904Z" fill="#2F2E41"/>
<path d="M201.397 246.008C213.265 244.97 221.49 228.185 219.77 208.517C218.049 188.85 207.034 173.748 195.166 174.786C183.299 175.824 175.073 192.61 176.794 212.277C178.514 231.945 189.53 247.047 201.397 246.008Z" fill="#F4BBA8"/>
<path d="M181.58 230.594C181.58 230.594 170.316 233.984 165.373 209.925C165.373 209.925 150.829 179.769 169.809 178.404C169.809 178.404 175.937 160.128 196.85 166.774C196.85 166.774 208.333 153.943 221.659 165.116C221.659 165.116 231.715 189.939 217.954 198.357C217.398 197.795 216.687 197.411 215.912 197.253C215.137 197.094 214.332 197.169 213.599 197.467C213.599 197.467 206.873 201.012 199.873 197.387C199.873 197.387 178.309 193.094 181.453 211.347L179.624 225.817C179.624 225.817 180.944 229.299 181.58 230.594Z" fill="#2F2E41"/>
<path d="M179.341 225.842C182.911 225.53 185.506 221.843 185.135 217.608C184.764 213.374 181.57 210.194 177.999 210.506C174.429 210.818 171.835 214.505 172.205 218.74C172.576 222.975 175.77 226.154 179.341 225.842Z" fill="#F4BBA8"/>
<path d="M262.514 369.728L265.594 373.953C266.105 374.648 266.324 375.515 266.204 376.37C266.083 377.224 265.633 377.997 264.949 378.523C257.31 384.366 231.94 400.905 186.195 404.001C185.353 404.068 184.506 403.927 183.73 403.591C182.954 403.254 182.273 402.732 181.746 402.071C181.219 401.409 180.863 400.629 180.708 399.797C180.553 398.966 180.605 398.109 180.859 397.303L180.906 397.161C180.906 397.161 231.57 392.058 260.107 373.083C261.163 372.171 261.988 371.021 262.514 369.728Z" fill="#4F79FE"/>
<path opacity="0.2" d="M262.514 369.728L265.594 373.953C266.105 374.648 266.324 375.515 266.204 376.37C266.083 377.224 265.633 377.997 264.949 378.523C257.31 384.366 231.94 400.905 186.195 404.001C185.353 404.068 184.506 403.927 183.73 403.591C182.954 403.254 182.273 402.732 181.746 402.071C181.219 401.409 180.863 400.629 180.708 399.797C180.553 398.966 180.605 398.109 180.859 397.303L180.906 397.161C180.906 397.161 231.57 392.058 260.107 373.083C261.163 372.171 261.988 371.021 262.514 369.728Z" fill="black"/>
<path d="M379.458 248.397L382.668 205.55C383.866 198.882 386.648 192.599 390.78 187.23C394.911 181.86 400.272 177.562 406.41 174.695C416.445 169.875 428.413 170.473 437.394 177.04C442.658 180.876 447.296 186.916 448.559 196.395L445.756 244.006C445.756 244.006 445.081 270.083 417.481 280.165C407.749 283.717 396.746 282.206 388.945 275.388C383.172 270.345 378.434 262.037 379.458 248.397Z" fill="#4F79FE"/>
<path d="M411.706 274.314C397.857 273.722 387.303 259.773 388.058 243.17C388.08 242.636 388.112 242.101 388.165 241.574L390.393 214.769L390.344 214.773C390.091 214.756 389.839 214.716 389.594 214.652L387.361 241.516C385.829 258.582 396.085 273.64 410.271 275.149C410.719 275.198 411.165 275.228 411.62 275.248C419.031 275.585 426.319 272.365 431.859 266.302C431.678 266.058 431.526 265.793 431.406 265.514C426.014 271.475 418.929 274.638 411.706 274.314Z" fill="white"/>
<path d="M419.679 178.56C405.999 177.884 393.712 189.515 390.652 205.236C390.821 205.23 390.99 205.238 391.157 205.261L391.451 205.235C394.487 190.038 406.416 178.814 419.612 179.492C433.461 180.075 444.014 194.023 443.259 210.627C443.237 211.161 443.205 211.696 443.154 212.232L440.492 244.22C440.092 249.158 438.717 253.967 436.448 258.371C436.701 258.474 436.936 258.616 437.145 258.793C439.472 254.287 440.88 249.363 441.288 244.308L443.95 212.321C445.493 195.264 435.226 180.196 421.068 178.675C420.587 178.579 420.137 178.619 419.679 178.56Z" fill="white"/>
<path d="M419.128 185.103C423.521 185.351 427.705 187.067 431.006 189.977C431.138 189.693 431.292 189.419 431.467 189.158C428.054 186.162 423.736 184.395 419.201 184.141C414.035 183.959 408.973 185.617 404.916 188.82C405.042 189.101 405.143 189.392 405.219 189.691C409.159 186.551 414.093 184.924 419.128 185.103Z" fill="white"/>
<path d="M391.386 244.82C391.273 243.178 391.287 241.529 391.427 239.889L393.783 211.614C394.231 205.921 396.176 200.446 399.421 195.746C399.199 195.595 398.995 195.417 398.814 195.218C395.471 200.054 393.465 205.686 392.998 211.545L390.643 239.819C390.5 241.548 390.491 243.285 390.614 245.016C390.862 244.917 391.121 244.851 391.386 244.82Z" fill="white"/>
<path d="M436.878 195.81C436.68 196.033 436.455 196.231 436.21 196.401C439.163 201.758 440.434 207.88 439.856 213.97L437.511 242.243C436.116 257.622 424.991 269.249 412.154 268.736C407.095 268.444 402.338 266.235 398.851 262.557C398.619 262.755 398.362 262.92 398.086 263.048C401.705 267.002 406.721 269.391 412.072 269.709C425.354 270.242 436.868 258.216 438.255 242.306L440.611 214.032C441.227 207.721 439.926 201.371 436.878 195.81Z" fill="white"/>
<path d="M395.951 222.985L396.731 213.653C397.931 200.341 407.558 190.294 418.654 190.733C427.953 191.122 435.528 199.526 436.577 210.62C436.838 210.568 437.103 210.544 437.369 210.551C436.356 198.97 428.421 190.164 418.717 189.761C407.175 189.293 397.16 199.749 395.917 213.586L395.165 223.014C395.35 222.988 395.536 222.972 395.722 222.966L395.951 222.985Z" fill="white"/>
<path d="M421.036 261.326C418.429 262.591 415.546 263.182 412.652 263.045C402.119 262.626 394.027 252.03 394.575 239.367C394.587 238.942 394.619 238.516 394.661 238.098L395.154 232.467L394.9 232.489C394.718 232.476 394.538 232.449 394.36 232.408L393.87 238.069C392.692 251.191 400.575 262.771 411.468 263.937C411.826 263.975 412.174 264.003 412.52 264.013C415.587 264.154 418.64 263.517 421.395 262.162C421.245 261.898 421.124 261.617 421.036 261.326Z" fill="white"/>
<path d="M436.572 220.141L436.235 220.121L434.572 240.204C434.121 246.118 431.774 251.729 427.881 256.203C428.031 256.475 428.152 256.762 428.242 257.059C432.398 252.388 434.901 246.478 435.364 240.243L437.026 220.15L436.572 220.141Z" fill="white"/>
<path d="M425.284 197.574C423.167 196.27 420.756 195.518 418.273 195.388C408.462 194.995 399.947 203.89 398.886 215.642L397.162 236.381C397.064 237.605 397.05 238.835 397.119 240.061C397.357 239.819 397.623 239.607 397.911 239.43C397.865 238.443 397.881 237.454 397.958 236.469L399.691 215.729C400.681 204.506 408.808 196.019 418.192 196.371C420.541 196.502 422.821 197.221 424.82 198.462C424.952 198.154 425.107 197.857 425.284 197.574Z" fill="white"/>
<path d="M431.115 203.608C430.951 203.872 430.762 204.12 430.549 204.347C432.795 208.309 433.768 212.865 433.336 217.398L431.603 238.138C430.588 249.068 422.939 257.385 413.84 257.481C413.742 257.816 413.612 258.141 413.452 258.451C423.123 258.591 431.416 249.744 432.376 238.189L434.099 217.44C434.571 212.631 433.527 207.795 431.115 203.608Z" fill="white"/>
<path d="M414.545 202.229C414.576 201.892 414.632 201.557 414.714 201.229C412.598 201.681 410.616 202.617 408.921 203.963C409.163 204.129 409.379 204.329 409.565 204.557C411.045 203.443 412.741 202.65 414.545 202.229Z" fill="white"/>
<path d="M427.816 240.362C425.607 247.454 419.839 252.147 413.569 251.907C406.319 251.605 400.77 244.285 401.162 235.578C401.137 235.294 401.19 235.004 401.224 234.715L402.634 217.709C402.802 215.72 403.273 213.768 404.03 211.92C403.808 211.679 403.619 211.411 403.467 211.122C402.582 213.196 402.039 215.401 401.86 217.649L400.44 234.646C399.627 243.833 405.149 251.973 412.776 252.755C413.025 252.782 413.263 252.801 413.51 252.809C420.155 253.055 426.257 248.116 428.603 240.578C428.334 240.532 428.07 240.459 427.816 240.362Z" fill="white"/>
<path d="M430.098 219.14L429.806 222.674C430.015 222.631 430.229 222.613 430.442 222.619L430.608 222.604L430.896 219.13C431.538 211.711 428.014 204.786 422.264 202.145C422.272 202.476 422.251 202.808 422.203 203.136C427.499 205.767 430.683 212.19 430.098 219.14Z" fill="white"/>
<path d="M417.381 206.593C411.032 206.34 405.523 212.095 404.839 219.704L404.528 223.476C404.795 223.513 405.058 223.576 405.313 223.664L405.64 219.742C406.281 212.65 411.451 207.299 417.327 207.554C422.937 207.802 427.217 213.469 426.909 220.198C426.927 220.403 426.886 220.614 426.865 220.822L425.699 234.082C425.142 240.221 421.181 245.19 416.099 246.127C416.116 246.457 416.103 246.789 416.058 247.116C421.572 246.161 425.902 240.795 426.502 234.139L427.611 220.895C428.26 213.673 423.918 207.302 417.919 206.664C417.728 206.622 417.529 206.6 417.381 206.593Z" fill="white"/>
<path d="M409.324 217.469C409.49 217.462 409.656 217.471 409.819 217.494C410.455 216.187 411.446 215.085 412.679 214.315C413.912 213.544 415.337 213.137 416.791 213.14C417.632 213.178 418.456 213.391 419.211 213.765C419.314 213.467 419.443 213.179 419.599 212.904C418.753 212.465 417.823 212.211 416.872 212.157C413.649 212.035 410.603 214.055 408.946 217.423C409.073 217.428 409.2 217.444 409.324 217.469Z" fill="white"/>
<path d="M422.752 232.053C422.653 233.136 422.394 234.198 421.984 235.205C422.233 235.328 422.46 235.491 422.657 235.688C423.138 234.543 423.437 233.33 423.544 232.092L424.338 222.581C424.405 221.696 424.374 220.806 424.244 219.928C424.003 220.069 423.744 220.175 423.473 220.242C423.578 221.008 423.599 221.782 423.538 222.553L422.752 232.053Z" fill="white"/>
<path d="M416.238 240.497C415.664 240.631 415.075 240.683 414.487 240.651C410.528 240.455 407.515 236.441 407.789 231.687L407.812 231.271L408.175 226.971C407.908 226.931 407.647 226.858 407.397 226.754L407.02 231.231C406.553 236.476 409.717 241.107 414.084 241.563L414.48 241.587C415.137 241.62 415.795 241.562 416.436 241.416C416.35 241.115 416.284 240.808 416.238 240.497Z" fill="white"/>
<path d="M416.392 217.816C413.494 217.705 410.995 220.338 410.697 223.804L410.216 229.572C410.164 230.106 410.182 230.645 410.267 231.174C410.479 230.901 410.726 230.658 411.002 230.449C410.985 230.174 410.987 229.897 411.009 229.621L411.49 223.853C411.756 220.932 413.869 218.717 416.313 218.828C418.757 218.94 420.391 221.281 420.259 224.061C420.262 224.14 420.268 224.218 420.28 224.296L419.798 230.054C419.744 231.019 419.443 231.954 418.924 232.769C418.405 233.584 417.686 234.252 416.835 234.709C416.8 235.067 416.739 235.421 416.652 235.77C417.775 235.289 418.74 234.501 419.436 233.497C420.133 232.494 420.532 231.314 420.59 230.094L421.072 224.335C421.386 221.055 419.427 218.152 416.707 217.818L416.392 217.816Z" fill="white"/>
<path d="M410.505 223.407L404.45 246.456C404.382 246.713 404.377 246.982 404.435 247.242C404.493 247.501 404.613 247.742 404.785 247.944C404.957 248.147 405.175 248.305 405.42 248.406C405.666 248.506 405.933 248.546 406.197 248.521L420.8 247.243C421.02 247.224 421.233 247.161 421.429 247.058C421.624 246.955 421.796 246.813 421.936 246.642C422.075 246.471 422.179 246.273 422.24 246.061C422.302 245.849 422.321 245.627 422.295 245.408L419.58 222.603C419.58 222.603 426.186 216.999 423.645 209.81C423.092 208.342 422.093 207.084 420.788 206.214C419.483 205.343 417.938 204.904 416.371 204.957C414.922 205.012 413.5 205.371 412.198 206.009C410.896 206.647 409.742 207.552 408.811 208.664C407.854 209.747 407.144 211.027 406.731 212.412C406.317 213.798 406.211 215.257 406.418 216.688C406.581 218.035 407.03 219.331 407.735 220.49C408.439 221.648 409.384 222.643 410.505 223.407Z" fill="#2F2E41"/>
<path d="M437.858 296.339L378.401 301.541C372.638 302.045 368.374 307.126 368.878 312.89L369.276 317.438C369.781 323.201 374.862 327.465 380.625 326.961L440.081 321.759C445.845 321.255 450.109 316.174 449.604 310.41L449.206 305.862C448.702 300.099 443.621 295.835 437.858 296.339Z" fill="#E6E7E8"/>
<path d="M587.028 330.447L589.405 357.617C589.523 359.292 590.207 360.876 591.345 362.109C592.766 363.591 595.227 364.914 599.37 364.275L638.424 360.858C638.825 360.827 639.219 360.736 639.593 360.589C641.297 359.907 645.759 357.625 645.326 352.676L642.973 325.779C642.924 324.86 642.68 323.963 642.259 323.145C641.837 322.327 641.247 321.608 640.528 321.035C639.808 320.462 638.975 320.048 638.084 319.82C637.192 319.592 636.263 319.556 635.356 319.714L592.684 323.447C591.012 323.64 589.482 324.482 588.424 325.791C587.367 327.1 586.865 328.772 587.028 330.447Z" fill="#4F79FE"/>
<path d="M589.103 325.101C589.103 325.101 590.185 319.221 601.78 317.931L627.552 315.676C627.552 315.676 635.232 314.689 639.109 320.253C637.896 319.875 636.629 319.703 635.359 319.743L592.686 323.477C592.007 323.475 591.336 323.62 590.718 323.9C590.1 324.18 589.549 324.59 589.103 325.101Z" fill="#4F79FE"/>
<path opacity="0.2" d="M589.103 325.101C589.103 325.101 590.185 319.221 601.78 317.931L627.552 315.676C627.552 315.676 635.232 314.689 639.109 320.253C637.896 319.875 636.629 319.703 635.359 319.743L592.686 323.477C592.007 323.475 591.336 323.62 590.718 323.9C590.1 324.18 589.549 324.59 589.103 325.101Z" fill="black"/>
<path d="M620.485 339.77C621.711 338.802 622.586 337.459 622.978 335.947C623.369 334.435 623.255 332.836 622.653 331.394C622.051 329.953 620.994 328.748 619.643 327.964C618.292 327.179 616.721 326.858 615.171 327.05C613.621 327.242 612.175 327.935 611.056 329.025C609.937 330.115 609.205 331.541 608.972 333.085C608.739 334.63 609.017 336.208 609.765 337.58C610.513 338.951 611.689 340.041 613.114 340.681L612.074 357.181C612.063 357.406 612.102 357.631 612.187 357.84C612.273 358.048 612.403 358.235 612.568 358.388C612.734 358.541 612.931 358.655 613.145 358.724C613.36 358.792 613.587 358.813 613.811 358.784L623.55 357.459C623.766 357.429 623.974 357.354 624.159 357.238C624.344 357.121 624.502 356.967 624.622 356.785C624.743 356.602 624.823 356.397 624.857 356.181C624.891 355.965 624.879 355.745 624.821 355.534L620.485 339.77Z" fill="white"/>
<path d="M331.221 177.153C323.534 175.345 315.534 175.33 307.84 177.11C307.708 177.145 307.594 177.229 307.522 177.346C307.451 177.463 307.428 177.603 307.457 177.737C307.487 177.87 307.567 177.987 307.681 178.063C307.795 178.139 307.934 178.168 308.068 178.144C315.581 176.396 323.396 176.404 330.905 178.167C331.54 178.318 331.816 177.308 331.221 177.153Z" fill="#4F79FE"/>
<path d="M337.583 182.954C331.846 180.534 325.688 179.276 319.462 179.25C313.236 179.225 307.068 180.433 301.312 182.806C300.703 183.056 301.179 183.99 301.779 183.75C307.417 181.438 313.457 180.267 319.551 180.306C325.645 180.345 331.67 181.592 337.278 183.976C337.882 184.228 338.197 183.215 337.593 182.963L337.583 182.954Z" fill="#4F79FE"/>
<path d="M341.972 188.286C331.159 183.654 318.68 181.148 307.13 184.317C303.418 185.328 299.897 186.941 296.707 189.092C296.157 189.456 296.625 190.4 297.174 190.037C307.989 182.754 321.343 182.866 333.316 186.343C336.131 187.167 338.893 188.159 341.589 189.315C342.193 189.577 342.509 188.564 341.894 188.302L341.972 188.286Z" fill="#4F79FE"/>
<path d="M345.335 194.171C333.683 186.705 319.067 184.219 305.931 188.748C301.588 190.249 297.496 192.398 293.795 195.122C293.267 195.504 293.734 196.448 294.272 196.066C300.408 191.512 307.637 188.656 315.23 187.787C322.03 187.115 328.895 188.007 335.297 190.397C338.631 191.614 341.82 193.196 344.806 195.114C345.36 195.47 345.913 194.584 345.359 194.228L345.335 194.171Z" fill="#4F79FE"/>
<path d="M347.671 200.373C341.894 195.084 334.696 191.6 326.965 190.351C319.233 189.101 311.304 190.14 304.155 193.339C299.435 195.468 295.082 198.33 291.257 201.819C291.172 201.914 291.125 202.036 291.124 202.163C291.123 202.29 291.169 202.413 291.252 202.509C291.336 202.605 291.451 202.666 291.577 202.683C291.703 202.699 291.831 202.669 291.936 202.598C298.236 196.759 306.08 192.85 314.535 191.337C320.32 190.39 326.245 190.776 331.858 192.466C337.471 194.156 342.625 197.105 346.926 201.088C347.409 201.539 348.164 200.822 347.671 200.373Z" fill="#4F79FE"/>
<path d="M322.833 193.143C316.765 192.639 310.668 193.664 305.098 196.124C298.97 198.934 293.617 203.191 289.498 208.527C289.08 209.047 289.938 209.612 290.346 209.094C298.335 199.022 310.211 193.174 322.768 194.204C323.423 194.255 323.465 193.157 322.814 193.145L322.833 193.143Z" fill="#4F79FE"/>
<path d="M349.368 207.596C345.236 202.477 339.913 198.449 333.864 195.864C333.259 195.602 332.944 196.615 333.548 196.878C339.431 199.401 344.605 203.331 348.613 208.322C349.043 208.846 349.788 208.121 349.368 207.606L349.368 207.596Z" fill="#4F79FE"/>
<path d="M350.218 215.514C345.374 206.674 337.428 199.879 327.863 197.464C323.296 196.345 318.54 196.233 313.925 197.137C309.31 198.042 304.948 199.939 301.14 202.699C296.151 206.386 292.055 211.146 289.153 216.629C288.83 217.219 289.678 217.795 290.001 217.205C294.952 208.119 302.845 200.894 312.705 198.465C317.071 197.417 321.612 197.317 326.02 198.173C330.428 199.028 334.602 200.818 338.26 203.423C342.848 206.726 346.62 211.035 349.287 216.02C349.354 216.145 349.468 216.238 349.603 216.278C349.739 216.319 349.885 216.304 350.01 216.237C350.135 216.17 350.228 216.056 350.269 215.92C350.31 215.785 350.295 215.638 350.228 215.514L350.218 215.514Z" fill="#4F79FE"/>
<path d="M350.235 225.506C347.89 214.358 340.329 205.105 329.85 201.587C324.81 199.945 319.423 199.671 314.242 200.793C309.061 201.915 304.27 204.392 300.36 207.971C294.721 213.027 290.939 219.922 288.641 227.229C288.615 227.293 288.603 227.362 288.605 227.431C288.607 227.5 288.623 227.568 288.652 227.631C288.681 227.694 288.722 227.75 288.773 227.797C288.825 227.843 288.885 227.879 288.95 227.901C289.016 227.923 289.085 227.932 289.154 227.927C289.223 227.922 289.29 227.902 289.352 227.87C289.413 227.838 289.467 227.794 289.511 227.741C289.555 227.687 289.587 227.625 289.606 227.558C293.307 215.792 301.279 205.299 313.131 202.103C317.977 200.824 323.074 200.838 327.913 202.144C332.752 203.45 337.163 206.003 340.708 209.546C345.069 214.015 348.038 219.655 349.254 225.78C349.255 225.856 349.273 225.932 349.308 226.001C349.343 226.069 349.392 226.129 349.453 226.176C349.514 226.223 349.585 226.255 349.66 226.271C349.736 226.287 349.814 226.285 349.888 226.266C349.963 226.248 350.032 226.212 350.091 226.163C350.15 226.114 350.197 226.052 350.229 225.982C350.261 225.911 350.276 225.835 350.274 225.758C350.272 225.681 350.253 225.606 350.218 225.537L350.235 225.506Z" fill="#4F79FE"/>
<path d="M291.698 234.461C292.422 226.622 294.935 218.735 300.318 213.011C304.567 208.502 310.3 205.677 316.465 205.054C322.412 204.465 328.391 205.8 333.523 208.864C338.892 212.076 342.949 217.089 344.97 223.01C347.18 229.568 346.37 236.419 345.016 243.131C344.783 244.195 344.713 245.288 344.807 246.372C344.866 247.047 345.83 246.805 345.772 246.14C345.728 244.638 345.905 243.138 346.299 241.688C346.573 240.196 346.815 238.687 346.999 237.182C347.298 234.93 347.428 232.659 347.39 230.387C347.315 228.365 347.004 226.358 346.463 224.407C344.779 218.132 340.927 212.655 335.59 208.949C330.51 205.446 324.44 203.666 318.273 203.871C311.948 204.063 305.894 206.485 301.181 210.708C295.52 215.845 292.421 223.232 291.116 230.846C290.933 232.025 290.791 233.21 290.677 234.393C290.663 234.464 290.665 234.536 290.681 234.606C290.698 234.676 290.73 234.741 290.774 234.798C290.818 234.854 290.874 234.901 290.937 234.934C291.001 234.967 291.071 234.986 291.143 234.99C291.214 234.993 291.286 234.982 291.353 234.955C291.419 234.929 291.48 234.888 291.529 234.837C291.579 234.785 291.617 234.723 291.641 234.656C291.665 234.588 291.674 234.516 291.667 234.444L291.698 234.461Z" fill="#4F79FE"/>
<path d="M342.612 251.029C342.195 249.359 342.025 247.638 342.106 245.919C342.229 244.853 342.422 243.792 342.565 242.725C342.864 240.727 343.143 238.706 343.405 236.659C343.642 235.183 343.802 233.695 343.882 232.202C343.896 232.132 343.894 232.059 343.878 231.989C343.861 231.92 343.83 231.854 343.785 231.798C343.741 231.741 343.685 231.695 343.622 231.662C343.558 231.628 343.488 231.609 343.417 231.606C343.345 231.602 343.273 231.614 343.207 231.64C343.14 231.666 343.08 231.707 343.03 231.758C342.98 231.81 342.942 231.872 342.918 231.94C342.895 232.007 342.886 232.079 342.892 232.151C342.813 233.644 342.654 235.132 342.415 236.608C342.143 238.688 341.856 240.77 341.552 242.853C341.407 243.9 341.203 244.953 341.098 246.007C341.043 247.775 341.224 249.542 341.637 251.262C341.764 251.931 342.749 251.697 342.602 251.03L342.612 251.029Z" fill="#4F79FE"/>
<path d="M295.418 236.984C296.09 225.858 300.522 214.215 310.935 209.549C314.849 207.845 319.168 207.289 323.386 207.948C327.604 208.607 331.547 210.453 334.756 213.27C338.642 216.785 341.246 221.496 342.155 226.657C342.273 227.326 343.268 227.092 343.121 226.424C342.322 221.812 340.191 217.535 336.99 214.12C333.79 210.705 329.659 208.301 325.109 207.205C320.577 206.201 315.85 206.563 311.524 208.245C307.198 209.926 303.467 212.853 300.804 216.654C296.602 222.472 294.837 229.781 294.407 236.925C294.393 236.995 294.395 237.068 294.411 237.138C294.428 237.207 294.46 237.273 294.504 237.329C294.548 237.386 294.604 237.432 294.667 237.465C294.731 237.498 294.801 237.518 294.873 237.521C294.944 237.525 295.016 237.513 295.083 237.487C295.149 237.461 295.21 237.42 295.259 237.368C295.309 237.317 295.347 237.255 295.371 237.187C295.395 237.12 295.404 237.048 295.397 236.976L295.418 236.984Z" fill="#4F79FE"/>
<path d="M297.882 252.991C298.019 252.991 298.151 252.938 298.25 252.844C298.349 252.749 298.407 252.62 298.413 252.483C298.419 252.347 298.372 252.213 298.281 252.11C298.191 252.007 298.064 251.944 297.928 251.932C297.791 251.932 297.659 251.985 297.56 252.079C297.461 252.174 297.403 252.303 297.397 252.44C297.391 252.576 297.438 252.71 297.529 252.813C297.619 252.916 297.746 252.979 297.882 252.991Z" fill="#4F79FE"/>
<path d="M339.912 253.739C337.794 244.739 341.438 235.58 340.063 226.515C339.551 222.584 337.759 218.931 334.965 216.12C332.252 213.528 328.88 211.73 325.217 210.921C319.562 209.593 313.318 210.099 308.384 213.517C303.832 216.685 301.094 221.557 299.319 226.837C296.699 235.144 296.046 243.946 297.41 252.549C297.469 253.224 298.492 252.977 298.374 252.307C297.192 244.686 297.599 236.903 299.567 229.446C300.954 224.457 303.116 219.428 306.954 215.988C311.192 212.158 316.53 210.873 322.062 211.473C329.813 212.313 337.009 217.064 338.8 225.373C340.841 234.843 336.67 244.502 338.905 253.945C338.957 254.047 339.042 254.129 339.146 254.177C339.251 254.225 339.368 254.236 339.479 254.209C339.591 254.182 339.69 254.119 339.761 254.029C339.832 253.939 339.87 253.827 339.87 253.713L339.912 253.739Z" fill="#4F79FE"/>
<path d="M301.618 230.696C300.173 239.407 300.532 248.354 300.975 257.135C301.034 257.81 302.024 257.862 301.965 257.187C301.502 248.407 301.142 239.45 302.608 230.747C302.717 230.078 301.699 230.039 301.618 230.696Z" fill="#4F79FE"/>
<path d="M337.524 256.52C334.1 252.759 334.441 247.19 335.437 242.461C336.495 237.441 338.053 232.377 336.802 227.204C334.737 218.692 327.019 212.715 318.601 213.481C316.349 213.669 314.159 214.313 312.164 215.376C310.169 216.438 308.412 217.896 307 219.66C306.583 220.189 307.44 220.755 307.848 220.236C313.214 213.42 323.526 212.666 329.989 218.043C333.193 220.744 335.339 224.49 336.049 228.62C336.967 233.931 334.916 239.097 334.067 244.267C333.336 248.756 333.638 253.785 336.779 257.236C337.226 257.729 337.971 257.013 337.524 256.52Z" fill="#4F79FE"/>
<path d="M334.309 257.846C331.205 254.353 331.027 249.391 331.718 244.906C332.111 242.299 332.744 239.73 333.227 237.145C333.793 234.836 334.108 232.472 334.168 230.095C333.966 222.386 326.955 216.929 320.02 216.629C313.864 216.339 308.873 221.014 306.203 226.432C305.489 228.006 305.004 229.675 304.764 231.387C304.175 235.314 304.007 239.294 304.265 243.257C304.506 248.942 304.758 254.636 304.871 260.323C304.93 260.998 305.92 261.049 305.861 260.374C305.771 256.312 305.605 252.266 305.447 248.209C305.186 241.619 304.376 234.387 306.638 228.03C308.332 223.17 312.597 218.747 317.57 217.799C324.645 216.441 332.976 222.217 333.195 230.013C333.11 232.767 332.725 235.504 332.046 238.175C331.535 240.782 330.894 243.371 330.574 246.021C330.053 250.423 330.615 255.163 333.643 258.564C334.09 259.058 334.835 258.342 334.388 257.849L334.309 257.846Z" fill="#4F79FE"/>
<path d="M332.048 260.843C327.511 254.715 327.872 246.908 329.521 239.727C330.397 235.885 332.118 231.792 331.066 227.765C330.645 226.36 329.929 225.062 328.965 223.956C328.001 222.851 326.813 221.964 325.479 221.355C322.776 220.098 319.704 219.88 316.851 220.744C313.998 221.609 311.563 223.494 310.012 226.039C308.614 228.838 307.782 231.885 307.564 235.005C307.27 237.599 307.129 240.208 307.143 242.818C307.134 249.579 307.449 256.904 309.869 263.276C310.113 263.915 311.005 263.413 310.811 262.779C308.69 257.229 308.33 250.864 308.265 244.937C308.157 239.644 308.24 233.95 309.958 228.912C310.429 227.489 311.184 226.177 312.176 225.054C313.169 223.931 314.378 223.021 315.732 222.379C317.086 221.736 318.556 221.375 320.053 221.316C321.551 221.257 323.045 221.502 324.445 222.037C325.971 222.586 327.325 223.531 328.367 224.775C329.409 226.019 330.102 227.517 330.376 229.116C330.934 233.01 329.105 237.112 328.338 240.855C326.877 248.03 326.924 255.555 331.393 261.58C331.795 262.116 332.54 261.401 332.139 260.864L332.048 260.843Z" fill="#4F79FE"/>
<path d="M329.349 263.217C327.556 259.324 326.161 255.259 325.183 251.085C324.73 248.967 324.563 246.797 324.687 244.634C324.901 242.479 325.377 240.359 326.106 238.32C327.133 235.077 328.107 231.562 326.772 228.249C326.202 226.87 325.178 225.726 323.87 225.007C322.561 224.288 321.047 224.037 319.577 224.296C315.897 224.815 313.284 227.951 312.021 231.432C311.992 231.497 311.977 231.567 311.977 231.639C311.976 231.71 311.991 231.781 312.02 231.846C312.049 231.912 312.091 231.97 312.144 232.018C312.196 232.066 312.259 232.103 312.326 232.125C312.394 232.148 312.466 232.156 312.537 232.149C312.608 232.142 312.677 232.12 312.739 232.085C312.801 232.049 312.855 232.002 312.898 231.944C312.94 231.887 312.97 231.821 312.985 231.752C314.121 228.617 316.464 225.78 319.805 225.33C323.146 224.88 325.953 227.217 326.362 230.768C326.771 234.32 324.957 237.918 324.161 241.428C323.447 244.881 323.503 248.45 324.326 251.88C325.34 255.942 326.729 259.902 328.475 263.708C328.736 264.326 329.629 263.834 329.368 263.216L329.349 263.217Z" fill="#4F79FE"/>
<path d="M313.823 249.329C314.357 255.432 316.653 261.056 318.639 266.746C318.862 267.377 319.846 267.143 319.603 266.504C317.667 260.928 315.308 255.369 314.813 249.381C314.754 248.706 313.764 248.654 313.823 249.329Z" fill="#4F79FE"/>
<path d="M325.704 264.364C322.687 258.629 321.114 252.244 321.12 245.764C321.135 242.536 321.549 239.321 322.352 236.195C322.994 233.724 324.101 230.385 321.681 228.517C319.26 226.649 316.818 229.258 315.759 231.46C315.477 232.066 316.325 232.642 316.607 232.026C317.248 230.679 318.411 228.773 320.093 228.952C322.521 229.222 322.289 232.426 321.84 234.17C320.899 237.588 320.344 241.101 320.184 244.643C319.965 251.666 321.558 258.628 324.811 264.856C324.876 264.981 324.989 265.075 325.124 265.117C325.259 265.158 325.405 265.145 325.53 265.079C325.655 265.013 325.748 264.901 325.79 264.766C325.832 264.631 325.819 264.485 325.753 264.36L325.704 264.364Z" fill="#4F79FE"/>
<path d="M322.949 264.98C317.832 255.158 317.32 243.79 319.636 232.973C319.775 232.311 318.81 231.981 318.671 232.644C316.287 243.693 316.798 255.396 322.056 265.472C322.125 265.583 322.234 265.664 322.36 265.697C322.487 265.73 322.622 265.714 322.736 265.651C322.851 265.587 322.937 265.483 322.977 265.358C323.016 265.233 323.006 265.097 322.949 264.98Z" fill="#4F79FE"/>
<path d="M314.437 265.015C309.303 252.524 311.083 235.693 311.108 235.523L311.914 235.62C311.928 235.776 310.13 252.402 315.176 264.674L314.437 265.015Z" fill="#4F79FE"/>
<path d="M315.132 233.308C313.642 237.455 313.071 241.877 313.457 246.267C313.516 246.942 314.48 246.7 314.422 246.035C314.062 241.819 314.626 237.576 316.074 233.6C316.103 233.535 316.119 233.465 316.119 233.393C316.119 233.322 316.104 233.251 316.076 233.186C316.047 233.12 316.005 233.062 315.952 233.014C315.899 232.966 315.837 232.929 315.769 232.907C315.701 232.884 315.63 232.876 315.559 232.883C315.487 232.89 315.419 232.912 315.357 232.947C315.294 232.983 315.24 233.03 315.198 233.088C315.156 233.145 315.126 233.211 315.11 233.28L315.132 233.308Z" fill="#4F79FE"/>
<path d="M311.575 232.86L311.456 233.423C311.448 233.495 311.454 233.568 311.475 233.638C311.466 233.704 311.472 233.77 311.492 233.834C311.516 233.897 311.559 233.952 311.614 233.99C311.66 234.039 311.718 234.074 311.781 234.094L311.908 234.083C311.997 234.099 312.088 234.091 312.172 234.06L312.274 233.982C312.343 233.92 312.394 233.841 312.421 233.752L312.54 233.19C312.548 233.121 312.542 233.051 312.522 232.985C312.531 232.916 312.525 232.846 312.504 232.779C312.478 232.717 312.435 232.663 312.382 232.622C312.334 232.576 312.277 232.541 312.215 232.519L312.078 232.531C311.993 232.509 311.903 232.517 311.824 232.553L311.712 232.632C311.649 232.693 311.602 232.768 311.574 232.851L311.575 232.86Z" fill="#4F79FE"/>
<path d="M305.607 221.093C304.063 222.792 302.879 224.786 302.129 226.956C302.093 227.082 302.106 227.217 302.167 227.333C302.228 227.449 302.33 227.537 302.454 227.579C302.578 227.622 302.714 227.615 302.833 227.56C302.952 227.505 303.045 227.407 303.094 227.285C303.783 225.282 304.872 223.439 306.296 221.87C306.746 221.378 306.056 220.59 305.607 221.093Z" fill="#4F79FE"/>
<path d="M343.082 228.803L343.157 229.654C343.148 229.723 343.154 229.793 343.175 229.859C343.192 229.925 343.225 229.987 343.269 230.038C343.359 230.138 343.485 230.197 343.619 230.205C343.685 230.207 343.752 230.195 343.814 230.171C343.876 230.147 343.933 230.111 343.981 230.065C344.032 230.017 344.072 229.96 344.101 229.897C344.129 229.833 344.144 229.765 344.146 229.695L344.071 228.845C344.085 228.776 344.079 228.705 344.053 228.639C344.032 228.573 343.997 228.512 343.949 228.461C343.905 228.411 343.852 228.37 343.791 228.342C343.731 228.313 343.666 228.297 343.6 228.295C343.533 228.291 343.466 228.302 343.404 228.326C343.341 228.351 343.285 228.387 343.237 228.435C343.186 228.481 343.144 228.538 343.116 228.602C343.088 228.665 343.073 228.734 343.072 228.804L343.082 228.803Z" fill="#4F79FE"/>
<path d="M331.905 195.109C329.716 194.301 327.446 193.733 325.134 193.415C324.864 193.37 324.614 193.668 324.607 193.925C324.602 194.06 324.648 194.193 324.738 194.295C324.828 194.398 324.953 194.461 325.089 194.474C327.308 194.787 329.487 195.336 331.589 196.113C332.201 196.355 332.508 195.352 331.904 195.1L331.905 195.109Z" fill="#4F79FE"/>
<path d="M294.003 241.09C293.948 242.808 293.996 244.529 294.148 246.241C294.161 246.307 294.187 246.37 294.225 246.426C294.263 246.481 294.311 246.529 294.368 246.565C294.424 246.602 294.488 246.626 294.554 246.638C294.62 246.649 294.688 246.647 294.754 246.632C294.887 246.596 295.002 246.51 295.075 246.392C295.147 246.273 295.171 246.132 295.142 245.997C294.995 244.382 294.952 242.76 295.012 241.139C295.026 241.069 295.025 240.996 295.008 240.927C294.991 240.857 294.96 240.791 294.916 240.735C294.872 240.678 294.816 240.632 294.752 240.599C294.689 240.566 294.619 240.547 294.547 240.543C294.475 240.539 294.404 240.551 294.337 240.577C294.27 240.604 294.21 240.644 294.16 240.696C294.11 240.747 294.072 240.809 294.049 240.877C294.025 240.945 294.016 241.017 294.022 241.088L294.003 241.09Z" fill="#4F79FE"/>
<path d="M290.275 237.69L290.156 238.686C290.15 238.756 290.159 238.826 290.182 238.891C290.205 238.957 290.241 239.018 290.288 239.069C290.331 239.119 290.385 239.16 290.445 239.188C290.505 239.217 290.571 239.233 290.637 239.236C290.703 239.241 290.77 239.232 290.833 239.209C290.895 239.187 290.952 239.151 291 239.105C291.094 239.003 291.152 238.874 291.165 238.736L291.285 237.74C291.29 237.672 291.282 237.604 291.26 237.539C291.239 237.475 291.205 237.415 291.16 237.364C291.115 237.313 291.06 237.271 290.999 237.241C290.938 237.212 290.871 237.195 290.803 237.191C290.736 237.187 290.669 237.198 290.607 237.222C290.545 237.246 290.488 237.283 290.441 237.331C290.345 237.428 290.287 237.555 290.275 237.69Z" fill="#4F79FE"/>
<path d="M302.789 179.414L305.204 178.405C305.323 178.336 305.411 178.224 305.451 178.093C305.491 177.961 305.479 177.819 305.418 177.696C305.357 177.577 305.251 177.486 305.124 177.443C304.997 177.401 304.858 177.411 304.737 177.47L302.322 178.479C302.203 178.548 302.115 178.659 302.075 178.791C302.035 178.923 302.047 179.065 302.108 179.188C302.169 179.307 302.275 179.398 302.402 179.44C302.529 179.483 302.668 179.473 302.789 179.414Z" fill="#4F79FE"/>
<path d="M349.452 227.94C349.878 229.87 349.999 231.855 349.809 233.822C349.795 233.893 349.797 233.965 349.813 234.035C349.83 234.105 349.861 234.17 349.906 234.227C349.95 234.283 350.006 234.33 350.069 234.363C350.133 234.396 350.203 234.415 350.274 234.419C350.346 234.422 350.418 234.411 350.484 234.384C350.551 234.358 350.611 234.318 350.661 234.266C350.711 234.214 350.749 234.152 350.773 234.085C350.797 234.017 350.805 233.945 350.799 233.874C350.99 231.824 350.866 229.758 350.431 227.746C350.431 227.669 350.413 227.593 350.379 227.523C350.346 227.454 350.297 227.393 350.236 227.345C350.175 227.297 350.105 227.264 350.029 227.248C349.954 227.231 349.876 227.232 349.801 227.25C349.725 227.268 349.656 227.303 349.596 227.352C349.536 227.401 349.488 227.463 349.456 227.533C349.424 227.603 349.408 227.679 349.41 227.757C349.411 227.834 349.43 227.91 349.465 227.978L349.452 227.94Z" fill="#4F79FE"/>
<path d="M350.759 217.872C350.898 218.451 351.027 219.021 351.167 219.6C351.18 219.667 351.206 219.73 351.244 219.786C351.281 219.842 351.33 219.89 351.386 219.927C351.443 219.964 351.506 219.99 351.572 220.003C351.639 220.015 351.707 220.015 351.773 220.001C351.904 219.961 352.016 219.874 352.088 219.757C352.16 219.64 352.186 219.5 352.161 219.365L351.744 217.638C351.731 217.571 351.705 217.508 351.667 217.452C351.629 217.396 351.581 217.348 351.524 217.311C351.468 217.274 351.405 217.248 351.338 217.235C351.272 217.223 351.203 217.224 351.137 217.238C351.007 217.277 350.896 217.365 350.826 217.482C350.756 217.599 350.732 217.738 350.759 217.872Z" fill="#4F79FE"/>
<path d="M282.937 254.298C278.435 261.544 274.99 269.395 272.707 277.614L289.613 290.613C289.613 290.613 295.501 282.322 297.53 275.443C298.586 273.441 300.161 271.76 302.089 270.575C304.017 269.39 306.229 268.745 308.492 268.708L316.203 268.763C316.491 268.766 316.774 268.694 317.025 268.554C317.277 268.414 317.487 268.212 317.637 267.966C317.786 267.721 317.869 267.441 317.878 267.153C317.886 266.866 317.82 266.581 317.686 266.327C317.508 265.986 317.216 265.718 316.861 265.572C313.084 264.156 309.064 263.503 305.033 263.65C304.957 263.656 304.881 263.635 304.819 263.59C304.758 263.544 304.715 263.478 304.698 263.403C304.682 263.328 304.694 263.25 304.731 263.183C304.768 263.117 304.829 263.066 304.901 263.04C306.958 262.22 311.473 260.997 319.298 261.554C319.669 261.581 320.041 261.515 320.38 261.364C320.72 261.212 321.017 260.979 321.245 260.685C321.473 260.391 321.624 260.045 321.686 259.679C321.748 259.312 321.719 258.936 321.601 258.583C321.49 258.263 321.308 257.971 321.068 257.731C320.829 257.491 320.538 257.308 320.218 257.196C317.462 256.225 309.675 253.96 302.914 256.552C302.914 256.552 302.577 253.368 317.544 252.315L320.977 252.015C321.625 251.958 322.225 251.646 322.643 251.147C323.061 250.649 323.265 250.004 323.208 249.356C323.155 248.735 322.868 248.158 322.405 247.741C321.942 247.323 321.338 247.098 320.715 247.11C313.933 247.218 307.167 247.81 300.469 248.881C300.391 248.895 300.31 248.881 300.241 248.842C300.172 248.803 300.118 248.741 300.089 248.666C300.061 248.592 300.059 248.51 300.084 248.435C300.109 248.359 300.16 248.295 300.227 248.252C302.89 246.59 308.668 243.345 314.539 242.072C315.109 241.959 315.617 241.639 315.966 241.174C316.314 240.709 316.479 240.131 316.427 239.552C316.399 239.226 316.305 238.91 316.15 238.623C315.994 238.335 315.781 238.083 315.524 237.882C315.267 237.681 314.971 237.535 314.655 237.453C314.339 237.371 314.009 237.355 313.687 237.406C307.348 238.404 290.688 242.178 282.937 254.298Z" fill="#F4BBA8"/>
<path d="M289.834 292.801C263.29 336.921 227.009 363.245 227.009 363.245C209.126 378.962 199.353 379.896 199.353 379.896C178.596 383.604 137.445 307.513 137.445 307.513C132.034 297.816 129.315 290.288 128.186 284.483C125.538 270.996 131.42 266.924 131.42 266.924C141.256 253.635 153.987 271.523 153.987 271.523L196.659 329.623C201.073 325.432 205.458 331.967 205.458 331.967C209.371 326.786 225.932 316.014 225.932 316.014C247.416 301.026 270.061 275.53 270.061 275.53C281.019 276.868 285.964 282.023 288.134 286.317C289.16 288.331 289.74 290.543 289.834 292.801Z" fill="#4F79FE"/>
<path opacity="0.3" d="M289.834 292.801C263.29 336.921 227.009 363.245 227.009 363.245C209.126 378.962 199.353 379.896 199.353 379.896C178.596 383.604 137.445 307.513 137.445 307.513C132.034 297.816 129.315 290.288 128.186 284.483C125.538 270.996 131.42 266.924 131.42 266.924C141.256 253.635 153.987 271.523 153.987 271.523L196.659 329.623C201.073 325.432 205.458 331.967 205.458 331.967C209.371 326.786 225.932 316.014 225.932 316.014C247.416 301.026 270.061 275.53 270.061 275.53C281.019 276.868 285.964 282.023 288.134 286.317C289.16 288.331 289.74 290.543 289.834 292.801Z" fill="white"/>
<path opacity="0.3" d="M289.834 292.801C263.29 336.921 227.009 363.245 227.009 363.245C209.127 378.962 199.353 379.896 199.353 379.896C178.596 383.604 137.445 307.513 137.445 307.513C132.034 297.816 129.315 290.288 128.187 284.483C128.187 284.483 182.314 373.71 190.7 355.009C190.7 355.009 196.182 335.538 196.766 349.994C196.766 349.994 193.83 375.462 218.968 358.755C218.968 358.755 251.086 346.464 288.123 286.308C289.155 288.324 289.739 290.539 289.834 292.801Z" fill="white"/>
</svg>
