<svg width="700" height="553" viewBox="0 0 700 553" fill="none" xmlns="http://www.w3.org/2000/svg">
<path d="M241.624 47.7523C241.624 47.7523 149.45 53.0644 76.4635 150.178C76.4635 150.178 10.1633 227.409 44.8173 329.407C44.8173 329.407 59.2254 419.607 224.054 441.793C224.054 441.793 428.929 486.675 588.414 387.088C588.414 387.088 697.93 330.733 655.401 186.134C655.401 186.134 625.275 66.3406 539.505 102.854C539.505 102.854 465.435 138.292 352.377 70.2458C352.377 70.2539 308.781 38.357 241.624 47.7523Z" fill="#FBFBFD"/>
<path opacity="0.7" d="M241.624 47.7523C241.624 47.7523 149.45 53.0644 76.4635 150.178C76.4635 150.178 10.1633 227.409 44.8173 329.407C44.8173 329.407 59.2254 419.607 224.054 441.793C224.054 441.793 428.929 486.675 588.414 387.088C588.414 387.088 697.93 330.733 655.401 186.134C655.401 186.134 625.275 66.3406 539.505 102.854C539.505 102.854 465.435 138.292 352.377 70.2458C352.377 70.2539 308.781 38.357 241.624 47.7523Z" fill="white"/>
<mask id="mask0_814_1526" style="mask-type:luminance" maskUnits="userSpaceOnUse" x="34" y="46" width="632" height="406">
<path d="M241.624 47.7523C241.624 47.7523 149.45 53.0644 76.4635 150.178C76.4635 150.178 10.1633 227.409 44.8173 329.407C44.8173 329.407 59.2254 419.607 224.054 441.793C224.054 441.793 428.93 486.675 588.414 387.088C588.414 387.088 697.93 330.733 655.401 186.134C655.401 186.134 625.275 66.3406 539.505 102.854C539.505 102.854 465.435 138.292 352.377 70.2458C352.377 70.2539 308.781 38.357 241.624 47.7523Z" fill="white"/>
</mask>
<g mask="url(#mask0_814_1526)">
<path d="M383.085 334.63H204.107V349.871H383.085V334.63Z" fill="#3F4347"/>
<path d="M319.033 219.381H304.406V267.82H319.033V219.381Z" fill="#2F2E41"/>
<g opacity="0.2">
<path d="M319.033 225.687H304.406V226.835H319.033V225.687Z" fill="white"/>
<path d="M319.033 233.425H304.406V235.147H319.033V233.425Z" fill="white"/>
<path d="M319.033 228.267H304.406V232.568H319.033V228.267Z" fill="white"/>
</g>
<g opacity="0.2">
<path d="M319.033 253.202H304.406V254.35H319.033V253.202Z" fill="white"/>
<path d="M319.033 260.94H304.406V262.662H319.033V260.94Z" fill="white"/>
<path d="M319.033 255.781H304.406V260.082H319.033V255.781Z" fill="white"/>
</g>
<path d="M354.754 224.111H340.127V267.82H354.754V224.111Z" fill="#9EA0A3"/>
<g opacity="0.2">
<path d="M354.754 229.803H340.127V230.838H354.754V229.803Z" fill="white"/>
<path d="M354.754 236.78H340.127V238.333H354.754V236.78Z" fill="white"/>
<path d="M354.754 232.131H340.127V236.012H354.754V232.131Z" fill="white"/>
</g>
<g opacity="0.2">
<path d="M354.754 254.625H340.127V255.66H354.754V254.625Z" fill="white"/>
<path d="M354.754 261.611H340.127V263.163H354.754V261.611Z" fill="white"/>
<path d="M354.754 256.953H340.127V260.834H354.754V256.953Z" fill="white"/>
</g>
<path d="M366.146 224.111H354.754V267.82H366.146V224.111Z" fill="#2F2E41"/>
<g opacity="0.2">
<path d="M366.146 229.803H354.754V230.838H366.146V229.803Z" fill="black"/>
<path d="M366.146 236.78H354.754V238.333H366.146V236.78Z" fill="black"/>
<path d="M366.146 232.131H354.754V236.012H366.146V232.131Z" fill="black"/>
</g>
<g opacity="0.2">
<path d="M366.146 254.625H354.754V255.66H366.146V254.625Z" fill="black"/>
<path d="M366.146 261.611H354.754V263.163H366.146V261.611Z" fill="black"/>
<path d="M366.146 256.953H354.754V260.834H366.146V256.953Z" fill="black"/>
</g>
<path d="M375.994 231.274H366.292V267.82H375.994V231.274Z" fill="#4F79FE"/>
<path d="M375.994 236.037H366.292V236.902H375.994V236.037Z" fill="white"/>
<path d="M375.994 241.874H366.292V243.168H375.994V241.874Z" fill="white"/>
<path d="M375.994 237.977H366.292V241.219H375.994V237.977Z" fill="white"/>
<path d="M375.994 256.792H366.292V257.657H375.994V256.792Z" fill="white"/>
<path d="M375.994 262.629H366.292V263.923H375.994V262.629Z" fill="white"/>
<path d="M375.994 258.74H366.292V261.983H375.994V258.74Z" fill="white"/>
<path d="M332.115 218.378H319.033V267.82H332.115V218.378Z" fill="#9EA0A3"/>
<path d="M340.128 221.677H332.252V267.82H340.128V221.677Z" fill="#E1E1E2"/>
<path opacity="0.2" d="M332.115 224.814H319.033V225.986H332.115V224.814Z" fill="white"/>
<path opacity="0.2" d="M332.115 260.794H319.033V262.548H332.115V260.794Z" fill="white"/>
<path opacity="0.2" d="M340.128 227.692H332.252V228.549H340.128V227.692Z" fill="white"/>
<path opacity="0.2" d="M340.128 263.236H332.252V264.093H340.128V263.236Z" fill="white"/>
<path d="M395.666 77.4984H379.714V373.084H395.666V77.4984Z" fill="#3F4347"/>
<path d="M382.956 80.8619H382.147V365.103H382.956V80.8619Z" fill="#2E3135"/>
<path d="M385.794 80.8619H384.985V365.103H385.794V80.8619Z" fill="#2E3135"/>
<path d="M388.979 80.8619H388.171V365.103H388.979V80.8619Z" fill="#2E3135"/>
<path d="M392.521 80.8619H391.712V365.103H392.521V80.8619Z" fill="#2E3135"/>
<path d="M205.878 60.131H186.028V443.249H205.878V60.131Z" fill="#3F4347"/>
<path d="M190.152 69.1704H189.343V438.826H190.152V69.1704Z" fill="#2E3135"/>
<path d="M202.207 69.1704H201.398V438.826H202.207V69.1704Z" fill="#2E3135"/>
<path d="M194.761 69.1704H193.952V203.137H194.761V69.1704Z" fill="#2E3135"/>
<path d="M198.31 69.1704H197.501V203.137H198.31V69.1704Z" fill="#2E3135"/>
<path d="M194.761 269.057H193.952V438.47H194.761V269.057Z" fill="#2E3135"/>
<path d="M198.31 269.057H197.501V438.47H198.31V269.057Z" fill="#2E3135"/>
<path d="M385.956 368.475H389.424C391.738 368.475 393.957 369.394 395.593 371.03C397.229 372.666 398.148 374.885 398.148 377.199V384.428H377.231V377.199C377.231 374.885 378.151 372.666 379.787 371.03C381.423 369.394 383.642 368.475 385.956 368.475Z" fill="#2E3135"/>
<path d="M380.773 115.419H204.277V128.889H380.773V115.419Z" fill="#3F4347"/>
<path d="M390.168 192.149H213.672V205.619H390.168V192.149Z" fill="#3F4347"/>
<path d="M381.129 267.82H204.633V281.29H381.129V267.82Z" fill="#3F4347"/>
<path d="M109.646 92.0278H91.2192V151.924H109.646V92.0278Z" fill="#4F79FE"/>
<g opacity="0.2">
<path d="M109.646 99.8302H91.2192V101.245H109.646V99.8302Z" fill="white"/>
<path d="M109.646 109.395H91.2192V111.522H109.646V109.395Z" fill="white"/>
<path d="M109.646 103.016H91.2192V108.336H109.646V103.016Z" fill="white"/>
</g>
<g opacity="0.2">
<path d="M109.646 133.853H91.2192V135.268H109.646V133.853Z" fill="white"/>
<path d="M109.646 143.418H91.2192V145.545H109.646V143.418Z" fill="white"/>
<path d="M109.646 137.039H91.2192V142.359H109.646V137.039Z" fill="white"/>
</g>
<path d="M154.657 97.8735H136.23V151.924H154.657V97.8735Z" fill="#2F2E41"/>
<g opacity="0.2">
<path d="M154.657 104.916H136.23V106.193H154.657V104.916Z" fill="white"/>
<path d="M154.657 113.551H136.23V115.467H154.657V113.551Z" fill="white"/>
<path d="M154.657 107.794H136.23V112.589H154.657V107.794Z" fill="white"/>
</g>
<g opacity="0.2">
<path d="M154.657 135.616H136.23V136.894H154.657V135.616Z" fill="white"/>
<path d="M154.657 144.251H136.23V146.168H154.657V144.251Z" fill="white"/>
<path d="M154.657 138.494H136.23V143.289H154.657V138.494Z" fill="white"/>
</g>
<path d="M169.017 97.8735H154.665V151.924H169.017V97.8735Z" fill="#9EA0A3"/>
<g opacity="0.2">
<path d="M169.017 104.916H154.665V106.193H169.017V104.916Z" fill="black"/>
<path d="M169.017 113.551H154.665V115.467H169.017V113.551Z" fill="black"/>
<path d="M169.017 107.794H154.665V112.589H169.017V107.794Z" fill="black"/>
</g>
<g opacity="0.2">
<path d="M169.017 135.616H154.665V136.894H169.017V135.616Z" fill="black"/>
<path d="M169.017 144.251H154.665V146.168H169.017V144.251Z" fill="black"/>
<path d="M169.017 138.494H154.665V143.289H169.017V138.494Z" fill="black"/>
</g>
<path d="M181.419 106.735H169.194V151.924H181.419V106.735Z" fill="#4F79FE"/>
<path d="M181.419 112.621H169.194V113.689H181.419V112.621Z" fill="white"/>
<path d="M181.419 119.842H169.194V121.442H181.419V119.842Z" fill="white"/>
<path d="M181.419 115.023H169.194V119.033H181.419V115.023Z" fill="white"/>
<path d="M181.419 138.292H169.194V139.36H181.419V138.292Z" fill="white"/>
<path d="M181.419 145.505H169.194V147.105H181.419V145.505Z" fill="white"/>
<path d="M181.419 140.694H169.194V144.704H181.419V140.694Z" fill="white"/>
<path d="M126.132 90.7907H109.654V151.924H126.132V90.7907Z" fill="#E1E1E2"/>
<path d="M136.23 94.8658H126.31V151.924H136.23V94.8658Z" fill="#4F79FE"/>
<path opacity="0.2" d="M126.132 98.7468H109.654V100.194H126.132V98.7468Z" fill="white"/>
<path opacity="0.2" d="M126.132 143.241H109.654V145.408H126.132V143.241Z" fill="white"/>
<path opacity="0.2" d="M136.23 102.304H126.31V103.372H136.23V102.304Z" fill="white"/>
<path opacity="0.2" d="M136.23 146.256H126.31V147.324H136.23V146.256Z" fill="white"/>
<path d="M303.695 55.6436H285.269V115.54H303.695V55.6436Z" fill="#4F79FE"/>
<g opacity="0.2">
<path d="M303.695 63.446H285.269V64.8609H303.695V63.446Z" fill="white"/>
<path d="M303.695 73.011H285.269V75.1374H303.695V73.011Z" fill="white"/>
<path d="M303.695 66.6316H285.269V71.9518H303.695V66.6316Z" fill="white"/>
</g>
<g opacity="0.2">
<path d="M303.695 97.4693H285.269V98.8842H303.695V97.4693Z" fill="white"/>
<path d="M303.695 107.034H285.269V109.161H303.695V107.034Z" fill="white"/>
<path d="M303.695 100.655H285.269V105.975H303.695V100.655Z" fill="white"/>
</g>
<path d="M348.706 61.4893H330.28V115.54H348.706V61.4893Z" fill="#2F2E41"/>
<g opacity="0.2">
<path d="M348.706 68.5317H330.28V69.8092H348.706V68.5317Z" fill="white"/>
<path d="M348.706 77.1669H330.28V79.0831H348.706V77.1669Z" fill="white"/>
<path d="M348.706 71.4101H330.28V76.2047H348.706V71.4101Z" fill="white"/>
</g>
<g opacity="0.2">
<path d="M348.706 99.2319H330.28V100.509H348.706V99.2319Z" fill="white"/>
<path d="M348.706 107.867H330.28V109.783H348.706V107.867Z" fill="white"/>
<path d="M348.706 102.11H330.28V106.905H348.706V102.11Z" fill="white"/>
</g>
<path d="M363.066 61.4893H348.714V115.54H363.066V61.4893Z" fill="#9EA0A3"/>
<g opacity="0.2">
<path d="M363.066 68.5317H348.714V69.8092H363.066V68.5317Z" fill="black"/>
<path d="M363.066 77.1669H348.714V79.0831H363.066V77.1669Z" fill="black"/>
<path d="M363.066 71.4101H348.714V76.2047H363.066V71.4101Z" fill="black"/>
</g>
<g opacity="0.2">
<path d="M363.066 99.2319H348.714V100.509H363.066V99.2319Z" fill="black"/>
<path d="M363.066 107.867H348.714V109.783H363.066V107.867Z" fill="black"/>
<path d="M363.066 102.11H348.714V106.905H363.066V102.11Z" fill="black"/>
</g>
<path d="M375.469 70.3509H363.244V115.54H375.469V70.3509Z" fill="#4F79FE"/>
<path d="M375.469 76.2371H363.244V77.3043H375.469V76.2371Z" fill="white"/>
<path d="M375.469 83.4573H363.244V85.0582H375.469V83.4573Z" fill="white"/>
<path d="M375.469 78.6384H363.244V82.6488H375.469V78.6384Z" fill="white"/>
<path d="M375.469 101.908H363.244V102.975H375.469V101.908Z" fill="white"/>
<path d="M375.469 109.12H363.244V110.721H375.469V109.12Z" fill="white"/>
<path d="M375.469 104.31H363.244V108.32H375.469V104.31Z" fill="white"/>
<path d="M320.181 54.4065H303.703V115.54H320.181V54.4065Z" fill="#E1E1E2"/>
<path d="M330.28 58.4816H320.359V115.54H330.28V58.4816Z" fill="#4F79FE"/>
<path opacity="0.2" d="M320.181 62.3625H303.703V63.8098H320.181V62.3625Z" fill="white"/>
<path opacity="0.2" d="M320.181 106.856H303.703V109.023H320.181V106.856Z" fill="white"/>
<path opacity="0.2" d="M330.28 65.9201H320.359V66.9874H330.28V65.9201Z" fill="white"/>
<path opacity="0.2" d="M330.28 109.872H320.359V110.94H330.28V109.872Z" fill="white"/>
<path d="M99.9432 265.864H81.5166V325.76H99.9432V265.864Z" fill="#4F79FE"/>
<g opacity="0.2">
<path d="M99.9432 273.666H81.5166V275.081H99.9432V273.666Z" fill="white"/>
<path d="M99.9432 283.231H81.5166V285.357H99.9432V283.231Z" fill="white"/>
<path d="M99.9432 276.852H81.5166V282.172H99.9432V276.852Z" fill="white"/>
</g>
<g opacity="0.2">
<path d="M99.9432 307.689H81.5166V309.104H99.9432V307.689Z" fill="white"/>
<path d="M99.9432 317.254H81.5166V319.381H99.9432V317.254Z" fill="white"/>
<path d="M99.9432 310.875H81.5166V316.195H99.9432V310.875Z" fill="white"/>
</g>
<path d="M144.954 271.709H126.528V325.76H144.954V271.709Z" fill="#2F2E41"/>
<g opacity="0.2">
<path d="M144.954 278.752H126.528V280.029H144.954V278.752Z" fill="white"/>
<path d="M144.954 287.387H126.528V289.303H144.954V287.387Z" fill="white"/>
<path d="M144.954 281.63H126.528V286.425H144.954V281.63Z" fill="white"/>
</g>
<g opacity="0.2">
<path d="M144.954 309.452H126.528V310.729H144.954V309.452Z" fill="white"/>
<path d="M144.954 318.087H126.528V320.003H144.954V318.087Z" fill="white"/>
<path d="M144.954 312.33H126.528V317.125H144.954V312.33Z" fill="white"/>
</g>
<path d="M159.314 271.709H144.963V325.76H159.314V271.709Z" fill="#9EA0A3"/>
<g opacity="0.2">
<path d="M159.314 278.752H144.963V280.029H159.314V278.752Z" fill="black"/>
<path d="M159.314 287.387H144.963V289.303H159.314V287.387Z" fill="black"/>
<path d="M159.314 281.63H144.963V286.425H159.314V281.63Z" fill="black"/>
</g>
<g opacity="0.2">
<path d="M159.314 309.452H144.963V310.729H159.314V309.452Z" fill="black"/>
<path d="M159.314 318.087H144.963V320.003H159.314V318.087Z" fill="black"/>
<path d="M159.314 312.33H144.963V317.125H159.314V312.33Z" fill="black"/>
</g>
<path d="M171.717 280.571H159.492V325.76H171.717V280.571Z" fill="#4F79FE"/>
<path d="M171.717 286.457H159.492V287.524H171.717V286.457Z" fill="white"/>
<path d="M171.717 293.677H159.492V295.278H171.717V293.677Z" fill="white"/>
<path d="M171.717 288.858H159.492V292.869H171.717V288.858Z" fill="white"/>
<path d="M171.717 312.128H159.492V313.195H171.717V312.128Z" fill="white"/>
<path d="M171.717 319.34H159.492V320.941H171.717V319.34Z" fill="white"/>
<path d="M171.717 314.529H159.492V318.54H171.717V314.529Z" fill="white"/>
<path d="M116.429 264.626H99.9512V325.76H116.429V264.626Z" fill="#E1E1E2"/>
<path d="M126.528 268.701H116.607V325.76H126.528V268.701Z" fill="#4F79FE"/>
<path opacity="0.2" d="M116.429 272.582H99.9512V274.03H116.429V272.582Z" fill="white"/>
<path opacity="0.2" d="M116.429 317.076H99.9512V319.243H116.429V317.076Z" fill="white"/>
<path opacity="0.2" d="M126.528 276.14H116.607V277.207H126.528V276.14Z" fill="white"/>
<path opacity="0.2" d="M126.528 320.092H116.607V321.159H126.528V320.092Z" fill="white"/>
<path d="M97.5179 349.951H79.0913V409.848H97.5179V349.951Z" fill="#4F79FE"/>
<g opacity="0.2">
<path d="M97.5179 357.754H79.0913V359.169H97.5179V357.754Z" fill="white"/>
<path d="M97.5179 367.319H79.0913V369.445H97.5179V367.319Z" fill="white"/>
<path d="M97.5179 360.94H79.0913V366.26H97.5179V360.94Z" fill="white"/>
</g>
<g opacity="0.2">
<path d="M97.5179 391.777H79.0913V393.192H97.5179V391.777Z" fill="white"/>
<path d="M97.5179 401.342H79.0913V403.469H97.5179V401.342Z" fill="white"/>
<path d="M97.5179 394.963H79.0913V400.283H97.5179V394.963Z" fill="white"/>
</g>
<path d="M142.529 355.797H124.103V409.848H142.529V355.797Z" fill="#2F2E41"/>
<g opacity="0.2">
<path d="M142.529 362.84H124.103V364.117H142.529V362.84Z" fill="white"/>
<path d="M142.529 371.475H124.103V373.391H142.529V371.475Z" fill="white"/>
<path d="M142.529 365.718H124.103V370.513H142.529V365.718Z" fill="white"/>
</g>
<g opacity="0.2">
<path d="M142.529 393.54H124.103V394.817H142.529V393.54Z" fill="white"/>
<path d="M142.529 402.175H124.103V404.091H142.529V402.175Z" fill="white"/>
<path d="M142.529 396.418H124.103V401.213H142.529V396.418Z" fill="white"/>
</g>
<path d="M156.889 355.797H142.537V409.848H156.889V355.797Z" fill="#9EA0A3"/>
<g opacity="0.2">
<path d="M156.889 362.84H142.537V364.117H156.889V362.84Z" fill="black"/>
<path d="M156.889 371.475H142.537V373.391H156.889V371.475Z" fill="black"/>
<path d="M156.889 365.718H142.537V370.513H156.889V365.718Z" fill="black"/>
</g>
<g opacity="0.2">
<path d="M156.889 393.54H142.537V394.817H156.889V393.54Z" fill="black"/>
<path d="M156.889 402.175H142.537V404.091H156.889V402.175Z" fill="black"/>
<path d="M156.889 396.418H142.537V401.213H156.889V396.418Z" fill="black"/>
</g>
<path d="M169.292 364.659H157.066V409.848H169.292V364.659Z" fill="#4F79FE"/>
<path d="M169.292 370.545H157.066V371.612H169.292V370.545Z" fill="white"/>
<path d="M169.292 377.765H157.066V379.366H169.292V377.765Z" fill="white"/>
<path d="M169.292 372.946H157.066V376.957H169.292V372.946Z" fill="white"/>
<path d="M169.292 396.216H157.066V397.283H169.292V396.216Z" fill="white"/>
<path d="M169.292 403.428H157.066V405.029H169.292V403.428Z" fill="white"/>
<path d="M169.292 398.617H157.066V402.628H169.292V398.617Z" fill="white"/>
<path d="M114.004 348.714H97.5259V409.848H114.004V348.714Z" fill="#E1E1E2"/>
<path d="M124.102 352.789H114.182V409.848H124.102V352.789Z" fill="#4F79FE"/>
<path opacity="0.2" d="M114.004 356.67H97.5259V358.118H114.004V356.67Z" fill="white"/>
<path opacity="0.2" d="M114.004 401.164H97.5259V403.331H114.004V401.164Z" fill="white"/>
<path opacity="0.2" d="M124.102 360.228H114.182V361.295H124.102V360.228Z" fill="white"/>
<path opacity="0.2" d="M124.102 404.18H114.182V405.247H124.102V404.18Z" fill="white"/>
<path d="M331.864 135.98H317.69V191.979H331.864V135.98Z" fill="#2F2E41"/>
<path d="M331.864 184.177H317.69V186.659H331.864V184.177Z" fill="white"/>
<path d="M331.686 140.758H317.513V143.241H331.686V140.758Z" fill="white"/>
<path d="M324.781 168.936C327.228 168.936 329.212 166.952 329.212 164.505C329.212 162.058 327.228 160.074 324.781 160.074C322.334 160.074 320.351 162.058 320.351 164.505C320.351 166.952 322.334 168.936 324.781 168.936Z" fill="white"/>
<path d="M346.046 138.632H331.873V191.971H346.046V138.632Z" fill="#9EA0A3"/>
<path d="M346.046 184.549H331.873V186.91H346.046V184.549Z" fill="white"/>
<path d="M338.955 168.936C341.402 168.936 343.386 166.952 343.386 164.505C343.386 162.058 341.402 160.074 338.955 160.074C336.508 160.074 334.524 162.058 334.524 164.505C334.524 166.952 336.508 168.936 338.955 168.936Z" fill="white"/>
<path d="M360.22 141.826H346.046V191.979H360.22V141.826Z" fill="#2F2E41"/>
<path d="M375.639 130.482H360.22V192.149H375.639V130.482Z" fill="#4F79FE"/>
<path d="M375.639 137.225H360.22V138.988H375.639V137.225Z" fill="white"/>
<path d="M375.639 148.213H360.22V149.976H375.639V148.213Z" fill="white"/>
<path d="M375.639 140.597H360.22V146.612H375.639V140.597Z" fill="white"/>
<path d="M375.639 172.671H360.22V174.434H375.639V172.671Z" fill="white"/>
<path d="M375.639 183.651H360.22V185.414H375.639V183.651Z" fill="white"/>
<path d="M375.639 176.035H360.22V182.05H375.639V176.035Z" fill="white"/>
<path d="M360.22 184.549H346.046V186.91H360.22V184.549Z" fill="white"/>
<path d="M353.137 168.936C355.584 168.936 357.568 166.952 357.568 164.505C357.568 162.058 355.584 160.074 353.137 160.074C350.69 160.074 348.706 162.058 348.706 164.505C348.706 166.952 350.69 168.936 353.137 168.936Z" fill="white"/>
<path d="M298.553 178.153H253.897V191.624H298.553V178.153Z" fill="#E1E1E2"/>
<path d="M292.173 178.153H290.758V191.624H292.173V178.153Z" fill="white"/>
<path d="M260.988 178.153H259.573V191.624H260.988V178.153Z" fill="white"/>
<path d="M273.035 188.786C275.188 188.786 276.933 187.041 276.933 184.888C276.933 182.736 275.188 180.991 273.035 180.991C270.883 180.991 269.138 182.736 269.138 184.888C269.138 187.041 270.883 188.786 273.035 188.786Z" fill="white"/>
<path d="M190.103 151.924H57.1958V165.75H190.103V151.924Z" fill="#3F4347"/>
<path d="M188.333 238.05H27.7812V252.223H188.333V238.05Z" fill="#3F4347"/>
<path d="M188.333 324.523H27.7812V338.697H188.333V324.523Z" fill="#3F4347"/>
<path d="M188.333 410.293H27.7812V424.466H188.333V410.293Z" fill="#3F4347"/>
<path d="M317.383 286.336H302.757V334.775H317.383V286.336Z" fill="#2F2E41"/>
<g opacity="0.2">
<path d="M317.383 292.642H302.757V293.79H317.383V292.642Z" fill="white"/>
<path d="M317.383 300.38H302.757V302.102H317.383V300.38Z" fill="white"/>
<path d="M317.383 295.222H302.757V299.523H317.383V295.222Z" fill="white"/>
</g>
<g opacity="0.2">
<path d="M317.383 320.157H302.757V321.305H317.383V320.157Z" fill="white"/>
<path d="M317.383 327.895H302.757V329.617H317.383V327.895Z" fill="white"/>
<path d="M317.383 322.736H302.757V327.038H317.383V322.736Z" fill="white"/>
</g>
<path d="M353.104 291.066H338.478V334.775H353.104V291.066Z" fill="#9EA0A3"/>
<g opacity="0.2">
<path d="M353.104 296.758H338.478V297.793H353.104V296.758Z" fill="white"/>
<path d="M353.104 303.744H338.478V305.296H353.104V303.744Z" fill="white"/>
<path d="M353.104 299.086H338.478V302.967H353.104V299.086Z" fill="white"/>
</g>
<g opacity="0.2">
<path d="M353.104 321.588H338.478V322.623H353.104V321.588Z" fill="white"/>
<path d="M353.104 328.566H338.478V330.118H353.104V328.566Z" fill="white"/>
<path d="M353.104 323.917H338.478V327.798H353.104V323.917Z" fill="white"/>
</g>
<path d="M364.497 291.066H353.104V334.775H364.497V291.066Z" fill="#2F2E41"/>
<g opacity="0.2">
<path d="M364.497 296.758H353.104V297.793H364.497V296.758Z" fill="black"/>
<path d="M364.497 303.744H353.104V305.296H364.497V303.744Z" fill="black"/>
<path d="M364.497 299.086H353.104V302.967H364.497V299.086Z" fill="black"/>
</g>
<g opacity="0.2">
<path d="M364.497 321.588H353.104V322.623H364.497V321.588Z" fill="black"/>
<path d="M364.497 328.566H353.104V330.118H364.497V328.566Z" fill="black"/>
<path d="M364.497 323.917H353.104V327.798H364.497V323.917Z" fill="black"/>
</g>
<path d="M374.345 298.229H364.643V334.775H374.345V298.229Z" fill="#4F79FE"/>
<path d="M374.345 302.992H364.643V303.857H374.345V302.992Z" fill="white"/>
<path d="M374.345 308.829H364.643V310.123H374.345V308.829Z" fill="white"/>
<path d="M374.345 304.932H364.643V308.174H374.345V304.932Z" fill="white"/>
<path d="M374.345 323.747H364.643V324.612H374.345V323.747Z" fill="white"/>
<path d="M374.345 329.584H364.643V330.878H374.345V329.584Z" fill="white"/>
<path d="M374.345 325.695H364.643V328.938H374.345V325.695Z" fill="white"/>
<path d="M330.465 285.333H317.383V334.775H330.465V285.333Z" fill="#4F79FE"/>
<path d="M338.478 288.632H330.603V334.775H338.478V288.632Z" fill="#E1E1E2"/>
<path opacity="0.2" d="M330.465 291.769H317.383V292.941H330.465V291.769Z" fill="white"/>
<path opacity="0.2" d="M330.465 327.757H317.383V329.512H330.465V327.757Z" fill="white"/>
<path opacity="0.2" d="M338.478 294.647H330.603V295.505H338.478V294.647Z" fill="white"/>
<path opacity="0.2" d="M338.478 330.191H330.603V331.048H338.478V330.191Z" fill="white"/>
<path d="M201.423 42.7636H190.492C186.267 42.7636 182.843 46.1881 182.843 50.4124V55.6678C182.843 59.8921 186.267 63.3166 190.492 63.3166H201.423C205.647 63.3166 209.072 59.8921 209.072 55.6678V50.4124C209.072 46.1881 205.647 42.7636 201.423 42.7636Z" fill="#2E3135"/>
</g>
<path d="M262.096 497.857C261.307 500.664 261.012 503.585 261.222 506.493C259.808 507.382 258.902 510.26 258.902 510.26C257.705 512.864 255.587 512.751 253.978 512.152C252.807 511.705 251.811 510.891 251.14 509.832C250.622 509.031 249.993 508.307 249.272 507.681L248.642 486.053L254.649 490.095C255.215 490.346 255.765 490.556 256.266 490.75C259.5 491.939 261.999 492.27 263.963 492.036C263.637 494.059 263.007 496.022 262.096 497.857Z" fill="#F9B499"/>
<path d="M225.954 521.135C225.642 521.618 225.433 522.161 225.34 522.728C225.247 523.296 225.272 523.876 225.413 524.434C225.555 524.855 225.827 525.22 226.191 525.476C226.554 525.731 226.99 525.865 227.434 525.857H242.748C243.165 525.862 243.574 525.743 243.924 525.516C244.273 525.289 244.548 524.963 244.712 524.58C244.896 524.022 244.943 523.428 244.849 522.848C244.755 522.268 244.522 521.719 244.171 521.248L225.954 521.135Z" fill="#2F2E41"/>
<path d="M241.535 488.292H228.776V512.751H241.535V488.292Z" fill="#F9B499"/>
<path d="M228.816 488.292V492.133C228.816 492.133 234.128 498.051 241.591 497.421V488.292H228.816Z" fill="#F7A48B"/>
<path d="M293.596 295.925C293.596 295.925 293.596 297.954 293.467 301.455C293.087 315.047 291.656 350.889 286.869 376.261C286.869 376.261 279.794 418.435 276.965 441.122C276.965 441.122 272.364 467.699 270.949 481.881C270.949 481.881 271.58 491.09 263.988 491.971C262.023 492.206 259.508 491.874 256.29 490.686C255.765 490.492 255.215 490.281 254.673 490.031L248.666 485.988L248.294 485.745C248.294 485.745 244.292 497.752 225.598 489.408C225.07 489.179 224.616 488.809 224.285 488.338C223.954 487.867 223.759 487.314 223.722 486.74C223.173 474.895 220.221 409.783 220.488 374.458C220.577 364.538 220.909 356.961 221.628 353.582L237.556 303.105C237.556 303.105 279.794 303.202 293.596 295.925Z" fill="#2F2E41"/>
<path opacity="0.2" d="M264.537 344.389L256.29 490.734C255.765 490.54 255.215 490.33 254.673 490.079L248.294 485.834L264.537 344.389Z" fill="black"/>
<path opacity="0.2" d="M293.596 295.925C293.596 295.925 293.596 297.954 293.467 301.455C278.582 307.269 256.735 308.926 256.735 308.926C240.783 310.705 237.395 325.162 237.395 325.162C238.963 341.041 232.285 348.27 232.285 348.27C228.008 352.523 228.008 356.808 228.008 356.808C227.385 366.033 223.528 371.531 220.488 374.491C220.577 364.57 220.909 356.994 221.628 353.614L237.557 303.137C237.557 303.137 279.795 303.202 293.596 295.925Z" fill="black"/>
<path d="M253.719 178.687C253.719 178.687 243.087 181.161 238.131 175.137L239.546 164.505L242.78 165.103L254.787 167.367C253.863 169.787 253.357 172.346 253.291 174.935C253.265 176.199 253.409 177.461 253.719 178.687Z" fill="#F9B499"/>
<path d="M254.787 167.367C253.863 169.787 253.357 172.346 253.291 174.935C250.76 174.127 242.974 171.402 242.384 166.656L242.764 165.128L254.787 167.367Z" fill="#F7A48B"/>
<path d="M526.835 523.512C526.835 523.512 495.448 524.143 494.583 523.512C490.685 520.699 498.868 515.039 498.868 515.039C503.121 511.489 501.811 508.11 501.811 508.11V507.988C502.59 508.12 503.385 508.12 504.164 507.988C504.164 507.988 506.096 508.053 509.015 508.417C513.895 508.958 518.691 510.096 523.294 511.805C523.887 512.22 524.55 512.526 525.25 512.71V512.807C528.703 517.004 526.835 523.512 526.835 523.512Z" fill="#2F2E41"/>
<path d="M408.465 522.833C408.465 522.833 406.687 512.904 419.785 511.134C419.785 511.134 431.476 509.711 432.899 507.584L459.452 513.09C459.452 513.09 460.543 518.564 459.84 522.793L408.465 522.833Z" fill="#2F2E41"/>
<path d="M552.03 268.855C552.03 268.855 542.748 360.479 540.629 408.676C538.511 456.873 531.088 505.078 531.088 505.078C530.401 512.654 527.329 513.244 525.251 512.718C524.55 512.534 523.888 512.228 523.294 511.813C518.686 510.077 513.883 508.915 508.991 508.352C506.08 507.988 504.14 507.924 504.14 507.924C503.361 508.056 502.566 508.056 501.787 507.924C494.672 506.759 500.598 491.931 500.598 491.931C504.14 486.966 502.717 480.611 502.717 480.611L502.773 452.256L503.04 325.032L481.8 424.636C480.328 434.863 478.342 445.01 475.849 455.037C470.739 475.178 465.872 483.118 465.872 483.118C464.457 494.817 461.619 495.885 461.619 495.885C457.01 501.197 459.848 508.999 459.848 508.999C461.142 521.329 446.58 515.597 438.487 511.505C435.406 509.961 433.271 508.643 433.271 508.643C431.848 503.687 435.034 494.09 435.034 494.09C437.872 489.481 434.331 487.354 434.331 487.354C430.425 484.88 435.034 474.596 435.034 474.596C438.931 462.904 449.192 393.435 449.192 393.435C456.145 357.681 462.937 288.414 464.804 269.057C465.12 265.766 465.29 263.923 465.29 263.923L509.759 254.487L552.03 268.855Z" fill="#47E6E0"/>
<path opacity="0.2" d="M552.029 268.855C547.178 278.962 528.905 282.156 528.905 282.156C515.087 281.8 512.605 294.559 512.605 294.559L503.04 325.032C495.124 297.494 472.429 275.776 464.804 269.073C465.12 265.783 465.289 263.939 465.289 263.939L509.759 254.504L552.029 268.855Z" fill="black"/>
<path d="M582.059 241.381C578.719 244.615 572.494 244.93 572.494 244.93C560.438 245.998 555.126 246.353 555.126 246.353L556.194 260.907C557.617 281.816 495.594 275.097 495.594 275.097C481.412 275.097 466.882 265.532 466.882 265.532C459.436 261.635 464.748 248.553 464.748 248.553C467.934 229.415 464.036 214.885 464.036 214.885C460.798 223.964 455.732 232.283 449.151 239.327C447.389 240.775 444.817 241.381 441.737 241.365C426.69 241.292 399.305 226.48 392.327 222.566C392.145 222.464 391.99 222.319 391.875 222.145C391.76 221.97 391.688 221.771 391.665 221.563C391.642 221.355 391.669 221.145 391.743 220.95C391.818 220.755 391.937 220.58 392.093 220.44C397.275 215.629 398.876 208.15 399.37 204.851C399.397 204.655 399.469 204.468 399.58 204.303C399.69 204.139 399.837 204.002 400.008 203.902C400.179 203.802 400.371 203.743 400.568 203.728C400.766 203.713 400.964 203.743 401.148 203.816L414.085 208.862C424.717 206.024 426.844 209.209 426.844 209.209C432.156 213.818 434.994 210.98 434.994 210.98C438.891 194.001 459.436 141.866 459.436 141.866C465.807 124.143 495.577 126.617 495.577 126.617L526.059 128.735C531.371 130.15 541.3 131.21 541.3 131.21C563.624 134.039 569.308 159.201 569.308 159.201C577.814 178.339 586.287 213.777 586.287 213.777C590.92 234.646 582.059 241.381 582.059 241.381Z" fill="#2F2E41"/>
<path opacity="0.2" d="M464.036 214.829C460.804 223.928 455.738 232.266 449.151 239.327C447.388 240.775 444.817 241.381 441.737 241.365C442.982 240.791 446.038 238.85 444.898 234.015C444.898 234.015 441.001 227.28 446.313 224.798C446.313 224.798 453.404 221.564 455.522 209.913C455.522 209.913 455.159 164.19 461.182 161.004C461.182 161.004 465.079 159.581 463.672 184.039C463.672 184.039 463.672 191.122 465.087 196.087C465.087 196.046 466.527 208.093 464.036 214.829Z" fill="black"/>
<path opacity="0.2" d="M531.953 224.288L559.015 219.769L560.074 199.919L554.414 184.686C554.414 184.686 544.494 180.078 542.02 199.571C542.02 199.571 542.02 210.204 532.099 211.627C532.099 211.627 520.399 212.338 514.376 209.5C514.376 209.5 502.676 199.935 501.617 205.603C501.617 205.603 499.49 207.73 507.277 214.821C508.849 217.753 509.232 221.179 508.344 224.386C508.344 224.386 507.285 236.441 527.846 244.939C527.846 244.939 548.464 255.45 555.692 256.387L555.134 240.678L531.953 224.288Z" fill="black"/>
<path opacity="0.2" d="M475.849 455.037C470.739 475.178 465.872 483.118 465.872 483.118C464.457 494.817 461.619 495.885 461.619 495.885C457.01 501.197 459.848 508.999 459.848 508.999C461.142 521.329 446.58 515.597 438.486 511.505C444.736 511.255 457.026 509.233 453.849 496.952C453.849 496.952 463.058 489.158 467.311 473.561L475.808 454.067L475.849 455.037Z" fill="black"/>
<g opacity="0.2">
<path d="M436.004 491.543C440.443 493.467 447.001 495.998 451.367 498.011C445.602 497.924 440.095 495.606 436.004 491.543Z" fill="black"/>
</g>
<path opacity="0.2" d="M509.468 500.121C509.468 500.121 507.204 502.951 508.991 508.352C506.08 507.988 504.14 507.924 504.14 507.924C493.507 509.694 500.598 491.971 500.598 491.971C504.14 487.007 502.717 480.652 502.717 480.652L502.773 452.296C503.21 459.791 504.528 478.024 507.325 482.77C507.333 482.754 515.492 490.201 509.468 500.121Z" fill="black"/>
<path d="M526.836 523.512H494.583V525.639H526.836V523.512Z" fill="#47E6E0"/>
<path d="M459.856 522.825H408.465V525.663H459.856V522.825Z" fill="#47E6E0"/>
<path d="M530.643 239.586L516.138 244.987C514.18 245.441 512.156 245.537 510.163 245.27C507.383 244.903 504.709 243.961 502.312 242.505C497.356 240.378 497.703 237.896 497.703 237.896C494.874 236.481 494.518 232.236 494.518 232.236C492.436 231.024 490.816 229.156 489.909 226.924C490.613 223.375 495.569 227.272 495.569 227.272C500.178 230.506 506.201 229.754 506.201 229.754L512.581 225.857C516.478 223.019 512.225 223.375 512.225 223.375C507.64 223.973 505.757 223.561 504.948 223.092C504.738 222.955 504.585 222.748 504.516 222.507C504.448 222.266 504.469 222.008 504.576 221.782C506.088 218.548 516.397 218.815 520.286 219.017C521.242 219.071 522.175 219.324 523.027 219.761L531.921 224.337C532.93 229.439 532.487 234.723 530.643 239.586Z" fill="#F9B499"/>
<path d="M510.188 245.189V245.23C507.407 244.863 504.734 243.921 502.337 242.464C497.38 240.338 497.728 237.856 497.728 237.856C494.898 236.441 494.542 232.196 494.542 232.196C494.542 232.196 500.922 234.678 503.752 234.678C503.752 234.678 504.107 238.22 506.234 239.99C506.234 239.99 506.234 242.473 508.013 243.184C508.2 243.661 508.493 244.089 508.87 244.437C509.246 244.784 509.697 245.041 510.188 245.189Z" fill="#F7A48B"/>
<path d="M225.202 354.326C223.294 356.226 223.27 359.387 223.367 360.754C223.369 360.829 223.351 360.904 223.314 360.97C223.277 361.036 223.223 361.092 223.158 361.13C223.093 361.168 223.018 361.187 222.942 361.187C222.867 361.186 222.793 361.165 222.728 361.125C221.849 360.316 221.238 359.259 220.973 358.093C220.959 358.035 220.924 357.984 220.875 357.95C220.825 357.916 220.766 357.9 220.706 357.906C220.646 357.912 220.591 357.939 220.549 357.982C220.508 358.025 220.483 358.082 220.48 358.142C220.003 363.422 218.823 362.831 218.823 362.831C216.341 363.187 215.985 357.519 215.985 357.519C213.147 356.452 213.147 354.326 213.147 354.326C212.337 353.843 211.656 353.172 211.162 352.37C210.668 351.567 210.375 350.657 210.309 349.717C206.767 347.946 207.932 335.705 207.932 335.705V335.584C211.214 338.009 220.593 344.478 227.62 345.488C227.51 348.582 226.682 351.607 225.202 354.326Z" fill="#F9B499"/>
<path d="M228.113 522.696C227.757 522.69 227.406 522.609 227.084 522.457C226.762 522.305 226.476 522.086 226.245 521.814C225.704 521.151 225.477 520.116 227.013 518.774C227.013 518.774 228.784 517.707 227.013 515.54C227.013 515.54 225.049 509.411 230.304 506.533C231.631 505.786 233.124 505.384 234.647 505.363C236.169 505.341 237.673 505.702 239.02 506.412C240.92 507.447 242.869 509.387 243.669 513.058V520.149C243.669 520.149 246.151 523.334 239.772 522.979L228.113 522.696Z" fill="#47E6E0"/>
<path d="M282.988 525.493L246.483 525.857L246.127 522.316C246.127 522.316 246.078 521.685 246.03 520.699C245.836 516.818 245.569 507.301 247.542 506.735C248.182 506.909 248.768 507.24 249.248 507.697C249.969 508.323 250.597 509.047 251.116 509.848C251.787 510.907 252.782 511.721 253.954 512.169C255.571 512.767 257.681 512.88 258.878 510.277C258.878 510.277 259.783 507.398 261.198 506.509C261.494 506.31 261.85 506.224 262.204 506.264C262.558 506.304 262.886 506.468 263.13 506.727C263.13 506.727 268.095 514.529 275.897 518.419C275.897 518.419 280.934 519.179 282.519 523.019C282.833 523.806 282.993 524.646 282.988 525.493Z" fill="#47E6E0"/>
<path d="M282.989 525.493L246.483 525.857L246.127 522.316C246.127 522.316 246.079 521.685 246.03 520.699C250.141 522.815 254.632 524.091 259.242 524.45C259.242 524.45 276.593 525.663 282.52 523.019C282.834 523.806 282.993 524.646 282.989 525.493Z" fill="#2F2E41"/>
<path d="M324.046 215.37C327.766 212.207 330.991 208.503 333.611 204.382L338.931 196.936C338.931 196.936 341.761 200.17 337.16 207.568C337.16 207.568 337.872 209.694 343.896 207.212L359.937 199.183C360.219 199.046 360.537 199 360.847 199.05C361.157 199.101 361.443 199.246 361.667 199.466C361.828 199.628 361.95 199.824 362.024 200.04C362.098 200.256 362.121 200.486 362.092 200.712C362.063 200.938 361.983 201.155 361.857 201.345C361.732 201.536 361.565 201.695 361.368 201.811L351.843 207.414C351.734 207.478 351.64 207.564 351.566 207.667C351.493 207.77 351.443 207.887 351.418 208.011C351.394 208.135 351.396 208.262 351.425 208.385C351.453 208.508 351.508 208.624 351.585 208.724C351.713 208.896 351.898 209.017 352.108 209.063C352.317 209.109 352.536 209.078 352.725 208.975L361.991 204.051C362.369 203.851 362.81 203.801 363.224 203.912C363.638 204.023 363.994 204.286 364.222 204.649C364.344 204.843 364.425 205.059 364.46 205.284C364.496 205.51 364.485 205.74 364.429 205.962C364.374 206.183 364.273 206.391 364.135 206.572C363.996 206.754 363.823 206.906 363.624 207.018L353.598 212.751C353.364 212.886 353.187 213.101 353.098 213.356C353.009 213.611 353.014 213.89 353.113 214.141C353.212 214.385 353.393 214.587 353.625 214.711C353.856 214.835 354.125 214.874 354.382 214.821L367.481 212.136C367.689 212.091 367.904 212.088 368.113 212.126C368.323 212.164 368.523 212.243 368.701 212.359C368.88 212.475 369.034 212.625 369.155 212.8C369.276 212.975 369.361 213.173 369.405 213.381C369.455 213.593 369.461 213.813 369.423 214.028C369.386 214.243 369.306 214.447 369.187 214.63C369.068 214.813 368.914 214.97 368.733 215.091C368.553 215.213 368.349 215.297 368.135 215.338L353.21 218.386C352.981 218.433 352.775 218.558 352.628 218.739C352.48 218.92 352.4 219.147 352.401 219.381C352.401 219.637 352.499 219.884 352.675 220.07C352.851 220.257 353.091 220.369 353.347 220.383L361.797 220.933C361.986 220.946 362.171 221 362.337 221.093C362.503 221.185 362.647 221.313 362.757 221.468C362.868 221.623 362.943 221.8 362.976 221.987C363.01 222.174 363.002 222.367 362.953 222.55C362.875 222.821 362.71 223.059 362.483 223.227C362.257 223.395 361.981 223.484 361.7 223.48C358.336 223.48 347.299 223.48 344.607 225.275C344.607 225.275 342.125 227.046 337.516 227.046C337.516 227.046 333.975 227.401 333.619 229.528L325.841 226.391L324.046 215.37Z" fill="#F9B499"/>
<path d="M337.161 207.568C337.161 207.568 337.161 213.228 335.034 215.726C335.034 215.726 338.77 214.109 339.885 208.368C339.405 208.538 338.883 208.552 338.394 208.409C337.904 208.265 337.473 207.971 337.161 207.568Z" fill="#F7A48B"/>
<path d="M495.553 114.166V126.577C495.553 126.577 494.494 141.13 510.446 141.454C510.446 141.454 523.205 140.386 526.035 128.695C524.656 128.095 523.484 127.104 522.664 125.843C521.845 124.582 521.414 123.108 521.426 121.604L520.699 100.695L495.553 114.166Z" fill="#F9B499"/>
<path d="M495.553 114.166V126.577C495.553 126.577 512.476 127.789 516.947 111.586L495.553 114.166Z" fill="#F7A48B"/>
<path d="M520.003 77.838C520.003 68.148 512.148 60.2927 502.458 60.2927C492.768 60.2927 484.913 68.148 484.913 77.838V101.577C484.913 111.267 492.768 119.122 502.458 119.122C512.148 119.122 520.003 111.267 520.003 101.577V77.838Z" fill="#F9B499"/>
<path d="M489.869 64.5537C489.869 64.5537 482.778 64.5537 483.845 70.2134C483.845 70.2134 489.165 80.8457 513.616 72.6876C513.616 72.6876 511.489 81.9049 515.039 86.5136C515.039 86.5136 512.516 93.3538 518.564 94.3645L526.383 99.2723L521.774 105.999C521.774 105.999 522.485 111.659 527.434 108.837C527.434 108.837 530.263 106.711 529.552 98.9166C529.552 98.9166 533.101 97.8493 530.263 91.4699C530.263 91.4699 539.828 86.5055 532.382 79.0669C532.382 79.0669 533.797 66.3082 522.105 69.1462C522.105 69.1462 521.75 57.8266 511.117 61.7076C511.117 61.7076 507.568 49.2966 498.003 54.261C498.003 54.261 495.165 55.684 495.876 60.6484C495.892 60.6404 490.572 58.2147 489.869 64.5537Z" fill="#2F2E41"/>
<path d="M521.774 106.016C524.319 106.016 526.382 103 526.382 99.2804C526.382 95.5607 524.319 92.5453 521.774 92.5453C519.228 92.5453 517.165 95.5607 517.165 99.2804C517.165 103 519.228 106.016 521.774 106.016Z" fill="#F9B499"/>
<path d="M555.126 246.354C547.849 247.914 536.91 245.464 531.622 244.049C530.158 243.661 529.722 242.117 530.167 240.653C532.293 233.619 532.479 227.523 531.638 223.06C531.538 222.53 531.545 221.986 531.659 221.46C531.772 220.933 531.989 220.434 532.298 219.993C532.607 219.551 533.001 219.176 533.457 218.889C533.913 218.602 534.422 218.409 534.953 218.321C540.54 217.4 550.251 215.985 555.83 216.227L548.019 186.457C548.019 186.457 548.593 180.797 555.684 180.797L579.786 213.454L571.636 235.39L555.126 246.354Z" fill="#2F2E41"/>
<path d="M450.55 164.861L458.352 171.24C458.352 171.24 460.479 173.367 463.317 171.24C463.317 171.24 466.147 167.335 479.261 170.876C479.261 170.876 533.134 182.56 544.826 173.302L569.203 157.94L569.284 159.128L572.243 166.244C572.243 166.244 547.987 175.792 546.604 186.069C546.604 186.069 547.316 192.804 537.039 193.515C537.039 193.515 505.142 189.982 478.558 179.706C478.558 179.706 462.25 172.979 461.894 180.417C461.894 180.417 463.066 190.047 458.522 187.597C457.623 187.096 456.915 186.311 456.509 185.365C455.498 183.077 452.531 177.814 446.249 176.326L450.55 164.861Z" fill="#47E6E0"/>
<path d="M399.288 204.455C399.288 204.455 398.674 212.354 394.211 218.039C394.211 218.039 393.855 216.268 389.246 216.268C388.598 216.29 387.949 216.26 387.306 216.179C383.838 215.71 380.443 214.808 377.199 213.495C376.508 213.231 375.771 213.113 375.032 213.147C372.453 213.252 365.912 213.341 360.899 211.667C360.899 211.667 359.12 209.541 365.144 210.244L368.338 210.002C368.506 209.988 368.669 209.937 368.815 209.851C368.961 209.765 369.085 209.647 369.179 209.506C369.272 209.365 369.332 209.205 369.355 209.037C369.377 208.869 369.361 208.699 369.308 208.538C369.233 208.319 369.092 208.128 368.903 207.993C368.715 207.858 368.489 207.786 368.257 207.786C365.71 207.786 358.077 207.786 358.077 205.991C358.077 205.991 357.01 204.221 361.619 204.221H369.769C369.769 204.221 353.113 198.197 354.528 194.656C354.528 194.656 354.883 192.529 360.907 195.359C360.907 195.359 368.701 198.197 371.895 197.13C371.895 197.13 358.425 190.758 359.484 187.92C359.484 187.92 359.136 185.082 365.144 187.92C365.144 187.92 378.97 196.418 385.357 194.292C385.357 194.292 386.061 191.454 383.578 188.268C383.578 188.268 379.681 183.659 383.578 181.177C385.533 183.914 387.664 186.521 389.958 188.98C392.611 191.786 394.552 195.188 395.618 198.9C395.618 198.9 396.127 202.652 398.633 204.14C398.843 204.263 399.062 204.368 399.288 204.455Z" fill="#F9B499"/>
<path d="M385.349 194.292C385.349 194.292 383.231 195.86 386.772 201.18Z" fill="#F7A48B"/>
<path d="M399.289 204.455C398.941 209.378 397.178 214.095 394.211 218.038C394.211 218.038 393.855 216.268 389.247 216.268C388.598 216.29 387.95 216.26 387.306 216.179C390.403 214.505 396.329 210.584 398.626 204.14C398.837 204.263 399.059 204.369 399.289 204.455Z" fill="#F7A48B"/>
<path d="M249.959 171.289C247.996 171.32 246.045 170.957 244.225 170.22C242.404 169.484 240.75 168.389 239.361 167C237.972 165.612 236.875 163.958 236.138 162.138C235.4 160.318 235.036 158.368 235.066 156.404V139.748C235.064 137.793 235.447 135.857 236.194 134.051C236.941 132.244 238.037 130.603 239.418 129.22C240.8 127.838 242.441 126.741 244.247 125.994C246.053 125.246 247.989 124.861 249.943 124.863C251.898 124.861 253.834 125.245 255.64 125.993C257.447 126.74 259.088 127.835 260.471 129.217C261.854 130.598 262.951 132.238 263.7 134.044C264.449 135.85 264.836 137.785 264.837 139.74V156.404C264.837 160.35 263.269 164.135 260.48 166.926C257.69 169.717 253.906 171.287 249.959 171.289Z" fill="#F9B499"/>
<path d="M257.746 129.107C257.746 129.107 264.473 128.752 264.837 139.74L264.691 148.496C264.691 148.496 268.022 150.372 270.504 148.245C270.504 148.245 271.653 113.009 256.323 118.127C255.255 118.483 240.726 103.574 218.046 124.159C218.046 124.159 207.058 130.894 206.355 149.677C206.355 149.677 204.584 160.996 199.628 166.656C199.628 166.656 207.778 161.336 208.522 151.407C208.522 151.407 209.233 139.715 213.486 138.648C213.486 138.648 207.107 150.348 212.783 165.233C212.783 165.233 216.324 170.545 211.724 176.924C211.724 176.924 205.344 185.082 208.886 192.877C208.886 192.877 212.435 185.082 229.794 180.11C229.769 178.615 230.06 177.131 230.65 175.757C231.239 174.383 232.113 173.149 233.215 172.138C233.505 171.885 233.881 171.753 234.266 171.768C234.65 171.783 235.015 171.944 235.284 172.219C236.397 173.356 237.649 174.348 239.012 175.17C239.012 175.17 241.227 173.941 240.467 167.828C238.746 166.469 237.366 164.727 236.436 162.741C235.505 160.755 235.05 158.58 235.107 156.387L234.969 149.248C237.314 148.728 239.382 147.357 240.774 145.399L241.13 148.634C241.13 148.634 249.733 148.634 250.323 139.141C250.323 138.891 250.323 138.64 250.323 138.389C250.242 136.303 250.315 124.919 257.746 129.107Z" fill="#2F2E41"/>
<path opacity="0.2" d="M218.055 163.503C220.868 163.131 221.895 159.711 222.421 157.333L222.704 155.522C222.752 154.835 222.882 153.638 222.882 152.959C222.882 152.498 222.882 151.237 222.882 150.752L222.777 147.817C222.688 146.79 222.502 144.405 222.38 143.418C222.033 138.43 223.997 133.53 227.005 129.625C228.546 127.698 230.31 125.961 232.261 124.45C233.069 123.86 233.878 123.302 234.686 122.736C228.347 127.143 222.914 133.934 222.712 141.931C222.706 142.907 222.766 143.882 222.89 144.85L223.124 147.801C223.229 149.77 223.229 151.742 223.124 153.711C223.068 154.204 222.979 155.441 222.882 155.918C222.785 156.396 222.696 157.018 222.631 157.382C222.411 158.345 222.113 159.289 221.742 160.204C221.03 161.708 219.866 163.438 218.055 163.503Z" fill="black"/>
<path opacity="0.2" d="M220.149 183.587C220.149 183.587 233.086 170.327 229.981 156.638C230.797 156.973 231.681 157.111 232.561 157.039C233.441 156.968 234.291 156.689 235.042 156.226C234.98 158.447 235.434 160.652 236.369 162.668C237.303 164.684 238.692 166.456 240.427 167.844C240.427 167.844 241.454 172.696 238.972 175.186C237.611 174.361 236.357 173.373 235.236 172.243C234.968 171.969 234.605 171.808 234.221 171.793C233.838 171.778 233.464 171.91 233.174 172.162C232.06 173.167 231.177 174.401 230.587 175.781C229.996 177.16 229.712 178.651 229.754 180.15C226.484 181.094 223.276 182.242 220.149 183.587Z" fill="black"/>
<path opacity="0.2" d="M236.789 148.577C236.789 148.577 240.079 145.545 240.079 137.395C240.079 137.395 240.435 122.51 252.127 121.442C252.127 121.442 242.206 123.925 242.909 134.557C242.909 134.557 244.381 145.941 242.052 148.577H241.09L240.734 145.343C239.746 146.767 238.379 147.888 236.789 148.577Z" fill="black"/>
<path d="M232.228 157.115C235.167 157.115 237.549 154.657 237.549 151.625C237.549 148.593 235.167 146.135 232.228 146.135C229.29 146.135 226.908 148.593 226.908 151.625C226.908 154.657 229.29 157.115 232.228 157.115Z" fill="#F9B499"/>
<path d="M307.39 274.094C306.36 275.611 304.971 276.85 303.348 277.7C297.688 280.433 292.19 275.162 292.19 275.162C293.249 279.415 296.798 287.565 296.798 287.565C299.636 291.818 298.925 293.224 298.925 293.224C290.621 300.315 264.635 302.353 249.289 302.927C243.742 303.137 239.586 303.161 238.155 303.161H237.613L235.851 340.015C234.953 344.866 231.695 346.087 227.668 345.513C220.642 344.518 211.263 338.017 207.98 335.608C207.22 335.05 206.784 334.711 206.784 334.711L207.795 311.287C209.921 293.208 208.142 270.86 208.142 270.86C206.363 258.805 205.652 239.667 205.652 239.667C206.711 226.908 205.652 208.482 205.652 208.482C201.043 186.505 229.746 180.118 229.746 180.118C229.746 175.517 232.172 173.221 232.172 173.221C233.87 170.577 235.252 172.211 235.252 172.211C236.381 173.331 237.635 174.318 238.988 175.154C241.549 176.904 244.517 177.968 247.607 178.242C249.931 178.431 252.268 178.1 254.447 177.272C260.01 175.234 260.608 179.407 260.608 179.407C264.15 184.015 270.173 183.304 270.173 183.304C294.276 185.422 294.64 229.722 294.64 229.722C295.351 239.998 300.299 235.382 300.299 235.382C304.9 225.817 323.682 213.05 323.682 213.05C326.52 228.008 337.161 229.39 337.161 229.39C340.346 237.185 307.39 274.094 307.39 274.094Z" fill="#47E6E0"/>
<path opacity="0.2" d="M232.156 173.254C232.156 173.254 237.913 189.368 259.881 184.403C259.881 184.403 248.812 194.445 220.149 183.595C223.272 182.239 226.48 181.091 229.754 180.158C229.754 180.158 229.253 176.989 232.156 173.254Z" fill="#39B8B3"/>
<path opacity="0.2" d="M249.256 302.903C243.71 303.113 239.554 303.137 238.123 303.137C237.831 298.569 237.12 290.661 235.462 284.5L232.98 272.809C232.018 268.331 232.329 263.673 233.878 259.363C235.439 254.952 236.189 250.296 236.093 245.618C236.012 239.279 235.834 231.104 235.446 226.035C237.478 235.942 238.432 246.04 238.292 256.153C238.292 256.153 241.535 286.603 249.256 302.903Z" fill="#39B8B3"/>
<path opacity="0.2" d="M256.007 255.078C256.007 255.078 267.327 249.418 271.248 239.125C271.248 239.125 271.604 253.307 256.007 255.078Z" fill="#39B8B3"/>
<path d="M273.367 212.904C276.694 212.904 279.39 209.809 279.39 205.991C279.39 202.173 276.694 199.078 273.367 199.078C270.04 199.078 267.343 202.173 267.343 205.991C267.343 209.809 270.04 212.904 273.367 212.904Z" fill="#EDEDED"/>
<path opacity="0.2" d="M303.315 277.66C297.655 280.393 292.157 275.121 292.157 275.121L287.549 249.03C287.549 249.03 284.355 234.145 286.481 221.386C286.481 221.386 292.141 238.753 294.284 256.476C294.308 256.493 296.192 270.464 303.315 277.66Z" fill="#39B8B3"/>
<path d="M210.309 350.097C210.208 350.097 210.111 350.059 210.037 349.99C209.963 349.921 209.919 349.826 209.913 349.725L209.412 342.82C209.407 342.767 209.413 342.714 209.43 342.663C209.446 342.612 209.472 342.565 209.507 342.525C209.541 342.484 209.584 342.451 209.631 342.426C209.679 342.402 209.73 342.388 209.783 342.384C209.837 342.377 209.891 342.381 209.943 342.397C209.995 342.412 210.043 342.438 210.084 342.473C210.125 342.508 210.158 342.551 210.182 342.6C210.205 342.649 210.218 342.702 210.22 342.756L210.754 349.701C210.758 349.754 210.752 349.807 210.736 349.857C210.719 349.907 210.693 349.954 210.658 349.994C210.623 350.033 210.581 350.066 210.534 350.089C210.486 350.113 210.435 350.126 210.382 350.129L210.309 350.097Z" fill="#F7A48B"/>
<path d="M213.551 345.432C213.551 345.208 213.37 345.027 213.147 345.027C212.924 345.027 212.743 345.208 212.743 345.432V354.326C212.743 354.549 212.924 354.73 213.147 354.73C213.37 354.73 213.551 354.549 213.551 354.326V345.432Z" fill="#F7A48B"/>
<path d="M215.985 357.924C215.878 357.917 215.778 357.87 215.706 357.792C215.634 357.713 215.594 357.61 215.597 357.503L215.944 348.609C215.953 348.504 216 348.405 216.078 348.333C216.156 348.261 216.259 348.221 216.365 348.221C216.418 348.223 216.47 348.236 216.518 348.258C216.567 348.28 216.61 348.312 216.646 348.351C216.682 348.39 216.71 348.436 216.728 348.486C216.747 348.536 216.755 348.589 216.753 348.642L216.405 357.536C216.403 357.589 216.391 357.641 216.368 357.689C216.346 357.737 216.315 357.781 216.276 357.817C216.237 357.853 216.191 357.881 216.141 357.899C216.091 357.918 216.038 357.926 215.985 357.924Z" fill="#F7A48B"/>
</svg>
