<svg width="1440" height="900" viewBox="0 0 1440 900" fill="none" xmlns="http://www.w3.org/2000/svg">
<rect width="1379.93" height="746.112" transform="matrix(-0.880676 -0.532174 0.320082 -0.915832 888.632 1678.28)" fill="#4F79FE"/>
<path d="M1448.93 869.204L1392.91 883.596C1337.01 897.614 1224.78 926.957 1140.69 875.84C1056.4 825.283 1000.27 694.267 929.885 603.993C859.628 513.347 775.442 462.51 679.089 446.448C582.606 430.76 474.281 448.914 391.727 393.416C309.172 337.918 253.04 206.902 179.194 126.51C105.545 45.5598 14.183 15.2339 -31.2696 -0.581609L-76.8529 -16.0243L-160.36 222.649L-118.267 248.067C-76.1743 273.485 8.0113 324.322 92.197 375.159C176.383 425.996 260.568 476.833 344.754 527.67C428.94 578.506 513.125 629.343 597.311 680.18C681.497 731.017 765.682 781.854 849.868 832.69C934.054 883.527 1018.24 934.364 1102.42 985.201C1186.61 1036.04 1270.8 1086.87 1312.89 1112.29L1354.98 1137.71L1448.93 869.204Z" fill="#4F79FE"/>
</svg>
